<?xml version="1.0" standalone="no"?><!DOCTYPE svg PUBLIC "-//W3C//DTD SVG 1.1//EN" "http://www.w3.org/Graphics/SVG/1.1/DTD/svg11.dtd"><svg t="1691638758468" class="icon" viewBox="0 0 1024 1024" version="1.1" xmlns="http://www.w3.org/2000/svg" p-id="10293" xmlns:xlink="http://www.w3.org/1999/xlink" width="200" height="200"><path d="M874.666667 149.333333l85.333333 64-85.333333 64M960 576l-85.333333 64v-106.666667l14.293333-10.666666L960 576zM960 469.333333l-71.04 53.333334L874.666667 512v-106.666667l85.333333 64zM960 341.333333l-85.333333 64v-128l85.333333 64z" fill="#5CE0BF" p-id="10294"></path><path d="M576 149.333333h85.333333a85.333333 85.333333 0 0 1-170.666666 0z" fill="#EFF1F4" p-id="10295"></path><path d="M277.333333 682.666667v170.666666a85.333333 85.333333 0 0 0 64.64 82.773334L341.333333 938.666667v64H149.333333v-42.666667a42.794667 42.794667 0 0 1 42.666667-42.666667h21.333333v-106.666666c0-70.826667 28.586667-128 64-128z" fill="#4FD3B2" p-id="10296"></path><path d="M277.333333 469.333333v170.666667h-64c0-94.293333 28.586667-170.666667 64-170.666667z" fill="#5CE0BF" p-id="10297"></path><path d="M490.666667 149.333333a85.333333 85.333333 0 0 0 170.666666 0h-170.666666z m341.333333 789.333334v64H618.666667v-42.666667a43.264 43.264 0 0 1 5.12-20.266667L618.666667 938.666667H362.666667a83.328 83.328 0 0 1-20.693334-2.56A85.333333 85.333333 0 0 1 277.333333 853.333333V384H64a42.666667 42.666667 0 0 1-42.026667-49.92A44.202667 44.202667 0 0 1 66.346667 298.666667H298.666667a42.794667 42.794667 0 0 0 42.666666-42.666667v-42.666667a42.794667 42.794667 0 0 0-24.106666-38.4A41.642667 41.642667 0 0 0 298.666667 170.666667H64a42.666667 42.666667 0 0 1-42.666667-42.666667V64a42.794667 42.794667 0 0 1 42.666667-42.666667h42.666667a42.794667 42.794667 0 0 1 42.666666 42.666667v21.333333h640a85.333333 85.333333 0 0 1 85.333334 85.333334v560.64c85.333333 0.853333 128-33.493333 128-91.306667v128c0 94.293333-21.973333 170.666667-128 170.666667z" fill="#5CE0BF" p-id="10298"></path><path d="M832 1024H618.666667a21.333333 21.333333 0 0 1-21.333334-21.333333v-42.666667a64 64 0 0 1 64-64v-85.333333c0-85.141333 36.693333-149.333333 85.333334-149.333334v42.666667c-17.386667 0-42.666667 41.557333-42.666667 106.666667v106.666666a21.333333 21.333333 0 0 1-21.333333 21.333334h-21.333334a21.333333 21.333333 0 0 0-21.333333 21.333333v21.333333h170.666667v-149.333333h42.666666v170.666667a21.333333 21.333333 0 0 1-21.333333 21.333333zM341.333333 1024H149.333333a21.333333 21.333333 0 0 1-21.333333-21.333333v-42.666667a64 64 0 0 1 64-64v-85.333333c0-85.141333 36.693333-149.333333 85.333333-149.333334v42.666667c-17.386667 0-42.666667 41.557333-42.666666 106.666667v106.666666a21.333333 21.333333 0 0 1-21.333334 21.333334H192a21.333333 21.333333 0 0 0-21.333333 21.333333v21.333333h149.333333v-42.666666h42.666667v64a21.333333 21.333333 0 0 1-21.333334 21.333333z" fill="#2A3244" p-id="10299"></path><path d="M874.666667 960h-42.666667v-42.666667h42.666667c76.8 0 106.666667-41.856 106.666666-149.333333v-41.728a181.077333 181.077333 0 0 1-106.88 26.368 21.333333 21.333333 0 0 1-21.12-21.333333V170.666667a64 64 0 0 0-64-64H149.333333a21.333333 21.333333 0 0 1-21.333333-21.333334V64a21.333333 21.333333 0 0 0-21.333333-21.333333H64a21.333333 21.333333 0 0 0-21.333333 21.333333v64a21.461333 21.461333 0 0 0 21.333333 21.333333h234.666667a64 64 0 0 1 64 64v42.666667a64 64 0 0 1-64 64H66.346667a23.125333 23.125333 0 0 0-23.317334 17.514667A21.333333 21.333333 0 0 0 64 362.666667h213.333333a21.333333 21.333333 0 0 1 21.333334 21.333333v469.333333a63.701333 63.701333 0 0 0 48.426666 62.058667A62.933333 62.933333 0 0 0 362.666667 917.333333h256v42.666667H362.666667a103.936 103.936 0 0 1-26.026667-3.242667A106.218667 106.218667 0 0 1 256 853.333333V405.333333H64a64 64 0 0 1-63.082667-74.666666A65.770667 65.770667 0 0 1 66.346667 277.333333H298.666667a21.333333 21.333333 0 0 0 21.333333-21.333333v-42.666667a21.333333 21.333333 0 0 0-12.181333-19.2A20.373333 20.373333 0 0 0 298.666667 192H64a64.106667 64.106667 0 0 1-64-64V64a64 64 0 0 1 64-64h42.666667a64 64 0 0 1 64 64h618.666666a106.794667 106.794667 0 0 1 106.666667 106.666667v538.666666a107.84 107.84 0 0 0 68.650667-24.533333A59.733333 59.733333 0 0 0 981.333333 640a21.333333 21.333333 0 0 1 42.666667 0v128c0 82.432-15.488 192-149.333333 192z" fill="#2A3244" p-id="10300"></path><path d="M64 64h42.666667v42.666667H64zM661.333333 661.333333h-106.666666a64 64 0 0 1-64-64v-170.666666h42.666666v170.666666a21.333333 21.333333 0 0 0 21.333334 21.333334h106.666666a21.333333 21.333333 0 0 0 21.333334-21.333334v-170.666666h42.666666v170.666666a64 64 0 0 1-64 64z" fill="#2A3244" p-id="10301"></path><path d="M554.666667 576h42.666666v64h-42.666666zM618.666667 576h42.666666v64h-42.666666zM277.333333 661.333333h-64a21.333333 21.333333 0 0 1-21.333333-21.333333c0-95.424 29.312-192 85.333333-192v42.666667c-11.434667 0-38.165333 44.672-42.176 128H277.333333zM887.466667 294.4l-25.6-34.133333 62.570666-46.933334L861.866667 166.4l25.6-34.133333 85.333333 64a21.333333 21.333333 0 0 1 0 34.133333z" fill="#2A3244" p-id="10302"></path><path d="M887.466667 422.4l-25.6-34.133333 62.570666-46.933334-62.570666-46.933333 25.6-34.133333 85.333333 64a21.333333 21.333333 0 0 1 0 34.133333z" fill="#2A3244" p-id="10303"></path><path d="M887.466667 550.4l-25.6-34.133333 62.592-46.933334-62.592-46.933333 25.6-34.133333 85.333333 64a21.333333 21.333333 0 0 1 0 34.133333z" fill="#2A3244" p-id="10304"></path><path d="M887.466667 657.066667l-25.6-34.133334 62.592-46.933333-62.592-46.933333 25.6-34.133334 85.333333 64a21.333333 21.333333 0 0 1 0 34.133334zM576 256a106.794667 106.794667 0 0 1-106.666667-106.666667 21.333333 21.333333 0 0 1 21.333334-21.333333h170.666666a21.333333 21.333333 0 0 1 21.333334 21.333333 106.794667 106.794667 0 0 1-106.666667 106.666667z m-60.352-85.333333a64 64 0 0 0 120.704 0z" fill="#2A3244" p-id="10305"></path><path d="M554.666667 149.333333h42.666666v64h-42.666666z" fill="#2A3244" p-id="10306"></path></svg>