<svg width="656" height="549" viewBox="0 0 656 549" xmlns="http://www.w3.org/2000/svg"><title>bigtable-architecture</title><g fill="none" fill-rule="evenodd"><path d="M650.56 548.31H3.44c-1.892 0-3.44-.805-3.44-1.79V348.79c0-.985 1.548-1.79 3.44-1.79h647.12c1.892 0 3.44.805 3.44 1.79v197.73c0 .985-1.548 1.79-3.44 1.79" fill="#E1F6FE"/><path d="M211.245 507H15.755c-1.515 0-2.755-.382-2.755-.85v-46.3c0-.468 1.24-.85 2.755-.85h195.49c1.515 0 2.755.382 2.755.85v46.3c0 .468-1.24.85-2.755.85" fill="#B3E5FC"/><path d="M15.755 506.5c-.69 0-1.335-.085-1.798-.227-.32-.1-.457-.198-.457-.123v-46.3c0 .075.136-.024.457-.123.463-.142 1.108-.227 1.798-.227h195.49c.69 0 1.335.085 1.798.227.32.1.457.198.457.123v46.3c0-.075-.136.024-.457.123-.463.142-1.108.227-1.798.227v1c1.803 0 3.255-.448 3.255-1.35v-46.3c0-.902-1.452-1.35-3.255-1.35H15.755c-1.803 0-3.255.448-3.255 1.35v46.3c0 .902 1.452 1.35 3.255 1.35h195.49v-1H15.755z" fill="#FFF"/><path d="M86.504 482.197c-.965-.277-1.667-.618-2.107-1.022a1.954 1.954 0 0 1-.659-1.497c0-.672.269-1.228.806-1.667.537-.44 1.235-.66 2.095-.66.586 0 1.108.114 1.567.34.459.227.815.54 1.066.938.252.398.378.834.378 1.307h-1.13c0-.516-.165-.921-.493-1.216-.328-.295-.79-.443-1.388-.443-.555 0-.988.122-1.298.367-.31.244-.466.583-.466 1.016 0 .348.147.642.442.882.295.24.797.46 1.506.66.71.198 1.264.418 1.664.658.4.24.698.52.89.841.194.32.291.697.291 1.131 0 .691-.27 1.245-.809 1.661-.539.416-1.26.624-2.162.624a4.01 4.01 0 0 1-1.64-.337c-.508-.224-.9-.532-1.175-.923a2.252 2.252 0 0 1-.413-1.33h1.13c0 .516.191.923.572 1.222.38.299.89.448 1.526.448.594 0 1.05-.12 1.365-.363.317-.242.475-.572.475-.99 0-.418-.146-.741-.44-.97-.292-.228-.824-.454-1.593-.677zm5.52-1.77c.48-.59 1.105-.884 1.874-.884 1.34 0 2.016.756 2.028 2.268V486h-1.084v-4.195c-.004-.457-.109-.795-.314-1.014-.205-.219-.524-.328-.958-.328-.351 0-.66.094-.925.281a1.91 1.91 0 0 0-.622.738V486H90.94v-9h1.084v3.428zm9.439 5.573c-.063-.125-.113-.348-.152-.668-.504.523-1.106.785-1.805.785-.625 0-1.138-.177-1.538-.53-.4-.354-.6-.802-.6-1.345 0-.66.25-1.173.752-1.538s1.208-.548 2.118-.548h1.055v-.498c0-.379-.113-.68-.34-.905-.226-.225-.56-.337-1.002-.337-.387 0-.71.098-.972.293-.262.195-.393.432-.393.709h-1.09c0-.316.112-.622.337-.917a2.3 2.3 0 0 1 .914-.7 3.075 3.075 0 0 1 1.269-.258c.73 0 1.302.183 1.716.548.414.365.63.868.645 1.509v2.918c0 .582.074 1.044.223 1.388V486h-1.137zm-1.799-.826c.34 0 .662-.088.967-.264.305-.176.525-.404.662-.685v-1.301h-.85c-1.328 0-1.992.388-1.992 1.166 0 .34.113.605.34.797.227.191.518.287.873.287zm7.477-4.541a3.248 3.248 0 0 0-.534-.041c-.71 0-1.193.303-1.447.908v4.5h-1.084v-6.34h1.055l.017.733c.356-.567.86-.85 1.512-.85.211 0 .371.027.48.082v1.008zm3.515 5.484c-.86 0-1.558-.282-2.097-.846-.54-.565-.809-1.32-.809-2.265v-.2c0-.628.12-1.19.36-1.684s.577-.88 1.008-1.16c.432-.28.9-.419 1.403-.419.825 0 1.465.271 1.922.814.457.543.686 1.32.686 2.332v.452h-4.295c.016.625.198 1.13.548 1.514.35.385.794.577 1.333.577.383 0 .707-.078.972-.234.266-.156.499-.363.698-.621l.662.516c-.531.816-1.328 1.224-2.39 1.224zm-.135-5.683c-.437 0-.804.159-1.101.477-.297.318-.48.765-.55 1.339h3.175v-.082c-.031-.55-.18-.978-.445-1.28-.266-.303-.625-.454-1.079-.454zm3.598 2.343c0-.972.23-1.755.692-2.346.46-.592 1.064-.888 1.81-.888.742 0 1.33.254 1.764.762V477h1.084v9h-.996l-.053-.68c-.434.532-1.037.797-1.81.797-.735 0-1.334-.3-1.797-.902-.462-.602-.694-1.387-.694-2.356v-.082zm1.084.123c0 .72.149 1.282.445 1.688.297.406.707.61 1.23.61.688 0 1.19-.31 1.507-.927v-2.912c-.324-.597-.822-.896-1.494-.896-.532 0-.946.205-1.243.615-.296.41-.445 1.018-.445 1.822zm10.219 2.18h4.043v.92h-5.174v-8.531h1.13v7.611zm4.869-2.309c0-.62.122-1.18.366-1.675a2.732 2.732 0 0 1 1.02-1.149c.435-.27.932-.404 1.491-.404.863 0 1.561.299 2.095.896.533.598.8 1.393.8 2.385v.076c0 .618-.119 1.171-.355 1.662-.236.49-.574.872-1.014 1.145a2.81 2.81 0 0 1-1.514.41c-.86 0-1.556-.299-2.09-.896-.532-.598-.799-1.389-.799-2.373v-.077zm1.09.13c0 .703.163 1.267.49 1.693.325.426.762.638 1.309.638.55 0 .988-.215 1.312-.647.324-.432.487-1.036.487-1.814 0-.695-.166-1.258-.496-1.69a1.574 1.574 0 0 0-1.315-.647c-.535 0-.967.212-1.295.638-.328.426-.492 1.035-.492 1.828zm5.783-.124c0-.988.229-1.774.686-2.358.457-.584 1.062-.876 1.816-.876.773 0 1.377.273 1.81.82l.053-.703h.99v6.188c0 .82-.243 1.466-.729 1.94-.486.472-1.14.708-1.96.708a3.26 3.26 0 0 1-1.342-.293c-.437-.195-.771-.463-1.002-.803l.563-.65c.465.574 1.033.861 1.705.861.527 0 .938-.148 1.233-.445.295-.297.443-.715.443-1.254v-.545c-.434.5-1.026.75-1.776.75-.742 0-1.342-.299-1.801-.896-.46-.598-.689-1.412-.689-2.444zm1.09.123c0 .715.146 1.277.44 1.685.292.408.702.612 1.23.612.683 0 1.185-.31 1.506-.931v-2.895c-.332-.605-.83-.908-1.494-.908-.528 0-.94.205-1.237.615-.297.41-.445 1.018-.445 1.822z" fill="#000"/><path d="M421.245 508h-195.49c-1.515 0-2.755-.382-2.755-.85v-46.3c0-.468 1.24-.85 2.755-.85h195.49c1.515 0 2.755.382 2.755.85v46.3c0 .468-1.24.85-2.755.85" fill="#B3E5FC"/><path d="M225.755 507.5c-.69 0-1.335-.085-1.798-.227-.32-.1-.457-.198-.457-.123v-46.3c0 .075.136-.024.457-.123.463-.142 1.108-.227 1.798-.227h195.49c.69 0 1.335.085 1.798.227.32.1.457.198.457.123v46.3c0-.075-.136.024-.457.123-.463.142-1.108.227-1.798.227v1c1.803 0 3.255-.448 3.255-1.35v-46.3c0-.902-1.452-1.35-3.255-1.35h-195.49c-1.803 0-3.255.448-3.255 1.35v46.3c0 .902 1.452 1.35 3.255 1.35h195.49v-1h-195.49z" fill="#FFF"/><path d="M296.504 483.197c-.965-.277-1.667-.618-2.107-1.022a1.954 1.954 0 0 1-.659-1.497c0-.672.269-1.228.806-1.667.537-.44 1.235-.66 2.095-.66.586 0 1.108.114 1.567.34.459.227.815.54 1.066.938.252.398.378.834.378 1.307h-1.13c0-.516-.165-.921-.493-1.216-.328-.295-.79-.443-1.388-.443-.555 0-.988.122-1.298.367-.31.244-.466.583-.466 1.016 0 .348.147.642.442.882.295.24.797.46 1.506.66.71.198 1.264.418 1.664.658.4.24.698.52.89.841.194.32.291.697.291 1.131 0 .691-.27 1.245-.809 1.661-.539.416-1.26.624-2.162.624a4.01 4.01 0 0 1-1.64-.337c-.508-.224-.9-.532-1.175-.923a2.252 2.252 0 0 1-.413-1.33h1.13c0 .516.191.923.572 1.222.38.299.89.448 1.526.448.594 0 1.05-.12 1.365-.363.317-.242.475-.572.475-.99 0-.418-.146-.741-.44-.97-.292-.228-.824-.454-1.593-.677zm5.52-1.77c.48-.59 1.105-.884 1.874-.884 1.34 0 2.016.756 2.028 2.268V487h-1.084v-4.195c-.004-.457-.109-.795-.314-1.014-.205-.219-.524-.328-.958-.328-.351 0-.66.094-.925.281a1.91 1.91 0 0 0-.622.738V487h-1.084v-9h1.084v3.428zm9.439 5.573c-.063-.125-.113-.348-.152-.668-.504.523-1.106.785-1.805.785-.625 0-1.138-.177-1.538-.53-.4-.354-.6-.802-.6-1.345 0-.66.25-1.173.752-1.538s1.208-.548 2.118-.548h1.055v-.498c0-.379-.113-.68-.34-.905-.226-.225-.56-.337-1.002-.337-.387 0-.71.098-.972.293-.262.195-.393.432-.393.709h-1.09c0-.316.112-.622.337-.917a2.3 2.3 0 0 1 .914-.7 3.075 3.075 0 0 1 1.269-.258c.73 0 1.302.183 1.716.548.414.365.63.868.645 1.509v2.918c0 .582.074 1.044.223 1.388V487h-1.137zm-1.799-.826c.34 0 .662-.088.967-.264.305-.176.525-.404.662-.685v-1.301h-.85c-1.328 0-1.992.388-1.992 1.166 0 .34.113.605.34.797.227.191.518.287.873.287zm7.477-4.541a3.248 3.248 0 0 0-.534-.041c-.71 0-1.193.303-1.447.908v4.5h-1.084v-6.34h1.055l.017.733c.356-.567.86-.85 1.512-.85.211 0 .371.027.48.082v1.008zm3.515 5.484c-.86 0-1.558-.282-2.097-.846-.54-.565-.809-1.32-.809-2.265v-.2c0-.628.12-1.19.36-1.684s.577-.88 1.008-1.16c.432-.28.9-.419 1.403-.419.825 0 1.465.271 1.922.814.457.543.686 1.32.686 2.332v.452h-4.295c.016.625.198 1.13.548 1.514.35.385.794.577 1.333.577.383 0 .707-.078.973-.234.265-.156.498-.363.697-.621l.662.516c-.531.816-1.328 1.224-2.39 1.224zm-.135-5.683c-.437 0-.804.159-1.101.477-.297.318-.48.765-.55 1.339h3.175v-.082c-.031-.55-.18-.978-.445-1.28-.266-.303-.625-.454-1.079-.454zm3.598 2.343c0-.972.23-1.755.692-2.346.46-.592 1.064-.888 1.81-.888.742 0 1.33.254 1.764.762V478h1.084v9h-.996l-.053-.68c-.434.532-1.037.797-1.81.797-.735 0-1.334-.3-1.797-.902-.462-.602-.694-1.387-.694-2.356v-.082zm1.084.123c0 .72.149 1.282.445 1.688.297.406.707.61 1.23.61.688 0 1.19-.31 1.507-.927v-2.912c-.324-.597-.822-.896-1.494-.896-.532 0-.946.205-1.243.615-.296.41-.445 1.018-.445 1.822zm10.219 2.18h4.043v.92h-5.174v-8.531h1.13v7.611zm4.869-2.309c0-.62.122-1.18.366-1.675a2.732 2.732 0 0 1 1.02-1.149c.435-.27.932-.404 1.491-.404.863 0 1.561.299 2.095.896.533.598.8 1.393.8 2.385v.076c0 .618-.119 1.171-.355 1.662-.236.49-.574.872-1.014 1.145a2.81 2.81 0 0 1-1.514.41c-.86 0-1.556-.299-2.09-.896-.532-.598-.799-1.389-.799-2.373v-.077zm1.09.13c0 .703.163 1.267.49 1.693.325.426.762.638 1.309.638.55 0 .988-.215 1.312-.647.324-.432.487-1.036.487-1.814 0-.695-.166-1.258-.496-1.69a1.574 1.574 0 0 0-1.315-.647c-.535 0-.967.212-1.295.638-.328.426-.492 1.035-.492 1.828zm5.783-.124c0-.988.229-1.774.686-2.358.457-.584 1.062-.876 1.816-.876.773 0 1.377.273 1.81.82l.053-.703h.99v6.188c0 .82-.243 1.466-.729 1.94-.486.472-1.14.708-1.96.708a3.26 3.26 0 0 1-1.342-.293c-.437-.195-.771-.463-1.002-.803l.563-.65c.465.574 1.033.861 1.705.861.527 0 .938-.148 1.233-.445.295-.297.443-.715.443-1.254v-.545c-.434.5-1.026.75-1.776.75-.742 0-1.342-.299-1.801-.896-.46-.598-.689-1.412-.689-2.444zm1.09.123c0 .715.146 1.277.44 1.685.292.408.702.612 1.23.612.683 0 1.185-.31 1.506-.931v-2.895c-.332-.605-.83-.908-1.494-.908-.528 0-.94.205-1.237.615-.297.41-.445 1.018-.445 1.822z" fill="#000"/><path d="M307.66 527.519c-.097.827-.402 1.465-.916 1.914-.513.45-1.196.674-2.049.674-.924 0-1.664-.33-2.22-.993-.557-.663-.836-1.549-.836-2.659v-.752c0-.727.13-1.366.39-1.917.26-.552.627-.975 1.103-1.27.477-.296 1.028-.444 1.655-.444.83 0 1.496.232 1.998.696.501.464.793 1.105.875 1.925h-1.036c-.09-.623-.284-1.074-.583-1.353-.3-.28-.717-.42-1.254-.42-.66 0-1.176.244-1.55.731-.374.487-.561 1.18-.561 2.079v.757c0 .849.177 1.524.532 2.025.354.502.85.752 1.487.752.573 0 1.013-.13 1.319-.39.306-.259.51-.71.61-1.355h1.036zm.988-.478c0-.57.112-1.082.336-1.537.224-.454.535-.805.935-1.052.399-.247.855-.37 1.367-.37.791 0 1.431.273 1.92.82.489.549.733 1.277.733 2.187v.07c0 .565-.108 1.073-.325 1.522-.217.45-.526.8-.93 1.05a2.566 2.566 0 0 1-1.388.376c-.787 0-1.426-.274-1.914-.821-.49-.548-.734-1.273-.734-2.176v-.07zm1 .118c0 .644.149 1.162.448 1.552.299.39.7.585 1.2.585.505 0 .906-.197 1.204-.593.297-.396.445-.95.445-1.662 0-.638-.151-1.154-.454-1.55a1.443 1.443 0 0 0-1.205-.594c-.49 0-.887.196-1.187.586-.301.39-.452.949-.452 1.676zm6.617 2.841h-.994v-8.25h.994V530zm1.326-2.96c0-.569.112-1.08.336-1.536.224-.454.535-.805.935-1.052.399-.247.854-.37 1.367-.37.79 0 1.43.273 1.92.82.488.549.733 1.277.733 2.187v.07c0 .565-.108 1.073-.325 1.522-.217.45-.526.8-.93 1.05a2.566 2.566 0 0 1-1.388.376c-.788 0-1.426-.274-1.915-.821-.488-.548-.733-1.273-.733-2.176v-.07zm1 .119c0 .644.149 1.162.448 1.552.299.39.699.585 1.2.585.505 0 .906-.197 1.203-.593.298-.396.446-.95.446-1.662 0-.638-.151-1.154-.454-1.55a1.443 1.443 0 0 0-1.205-.594c-.491 0-.887.196-1.187.586-.301.39-.452.949-.452 1.676zm8.92 1.3a.731.731 0 0 0-.303-.626c-.202-.149-.555-.277-1.058-.384-.503-.108-.902-.237-1.198-.387-.295-.15-.513-.33-.655-.537a1.285 1.285 0 0 1-.212-.741c0-.477.201-.88.604-1.209.403-.33.918-.494 1.544-.494.66 0 1.194.17 1.604.51.41.34.615.776.615 1.305h-1c0-.272-.115-.506-.346-.703-.23-.197-.522-.296-.873-.296-.361 0-.644.08-.848.237a.744.744 0 0 0-.306.617c0 .24.095.421.284.543.19.122.533.238 1.029.35.496.11.898.243 1.206.397.308.153.536.339.684.555.15.217.223.481.223.793 0 .519-.207.935-.623 1.248-.415.314-.954.47-1.616.47-.466 0-.878-.082-1.236-.247a2.01 2.01 0 0 1-.84-.69 1.663 1.663 0 0 1-.304-.959h.994c.018.333.151.598.4.793.249.195.577.292.986.292.376 0 .677-.076.905-.228.227-.152.34-.355.34-.61zm5.673 0a.731.731 0 0 0-.304-.626c-.202-.149-.555-.277-1.058-.384-.503-.108-.902-.237-1.198-.387-.295-.15-.514-.33-.655-.537a1.285 1.285 0 0 1-.212-.741c0-.477.201-.88.604-1.209.403-.33.918-.494 1.544-.494.66 0 1.194.17 1.604.51.41.34.615.776.615 1.305h-1c0-.272-.115-.506-.346-.703-.23-.197-.522-.296-.873-.296-.361 0-.644.08-.848.237a.744.744 0 0 0-.307.617c0 .24.095.421.285.543.19.122.533.238 1.029.35.496.11.898.243 1.206.397.307.153.536.339.684.555.149.217.223.481.223.793 0 .519-.207.935-.623 1.248-.415.314-.954.47-1.616.47-.466 0-.878-.082-1.236-.247a2.01 2.01 0 0 1-.84-.69 1.663 1.663 0 0 1-.304-.959h.994c.018.333.151.598.4.793.249.195.577.292.986.292.375 0 .677-.076.905-.228.227-.152.34-.355.34-.61zm5.876.966c-.387.455-.955.682-1.703.682-.62 0-1.091-.18-1.415-.54-.324-.36-.488-.892-.492-1.597v-3.782h.994v3.755c0 .88.358 1.321 1.074 1.321.76 0 1.264-.283 1.515-.848v-4.228h.993V530h-.945l-.021-.575zm5.86-.967a.731.731 0 0 0-.304-.625c-.202-.149-.555-.277-1.058-.384-.503-.108-.902-.237-1.198-.387-.295-.15-.514-.33-.655-.537a1.285 1.285 0 0 1-.212-.741c0-.477.201-.88.604-1.209.403-.33.917-.494 1.544-.494.659 0 1.193.17 1.603.51.41.34.615.776.615 1.305h-.999c0-.272-.115-.506-.346-.703-.231-.197-.522-.296-.873-.296-.362 0-.644.08-.849.237a.744.744 0 0 0-.306.617c0 .24.095.421.285.543.19.122.533.238 1.029.35.495.11.897.243 1.205.397.308.153.537.339.685.555.149.217.223.481.223.793 0 .519-.208.935-.623 1.248-.415.314-.954.47-1.617.47-.465 0-.877-.082-1.235-.247a2.01 2.01 0 0 1-.84-.69 1.663 1.663 0 0 1-.304-.959h.994c.018.333.15.598.4.793.249.195.577.292.985.292.376 0 .678-.076.905-.228.228-.152.341-.355.341-.61z" fill="#757575"/><path d="M650.56 322H3.44c-1.892 0-3.44-.656-3.44-1.458V159.458C0 158.656 1.548 158 3.44 158h647.12c1.892 0 3.44.656 3.44 1.458v161.084c0 .802-1.548 1.458-3.44 1.458" fill="#E1F6FE"/><path d="M585.63 275h-97.26c-.753 0-1.37-.74-1.37-1.646v-89.708c0-.905.617-1.646 1.37-1.646h97.26c.753 0 1.37.74 1.37 1.646v89.708c0 .905-.617 1.646-1.37 1.646" fill="#B3E5FC"/><path d="M488.37 274.5c-.455 0-.87-.499-.87-1.146v-89.708c0-.647.415-1.146.87-1.146h97.26c.455 0 .87.499.87 1.146v89.708c0 .647-.415 1.146-.87 1.146v1c1.052 0 1.87-.983 1.87-2.146v-89.708c0-1.163-.818-2.146-1.87-2.146h-97.26c-1.052 0-1.87.983-1.87 2.146v89.708c0 1.163.818 2.146 1.87 2.146h97.26v-1h-97.26z" fill="#FFF"/><path d="M530.547 231h-1.131l-4.295-6.574V231h-1.13v-8.531h1.13l4.307 6.603v-6.603h1.119V231zm1.414-3.229c0-.62.122-1.18.366-1.675a2.732 2.732 0 0 1 1.02-1.149c.435-.27.932-.404 1.49-.404.864 0 1.562.299 2.095.896.534.598.8 1.393.8 2.385v.076c0 .618-.118 1.171-.354 1.662-.237.49-.575.872-1.014 1.145-.44.273-.944.41-1.515.41-.859 0-1.555-.299-2.089-.896-.533-.598-.8-1.389-.8-2.373v-.077zm1.09.13c0 .703.163 1.267.489 1.693.326.426.762.638 1.31.638.55 0 .988-.215 1.312-.647.324-.432.486-1.036.486-1.814 0-.695-.165-1.258-.495-1.69a1.574 1.574 0 0 0-1.315-.647c-.536 0-.967.212-1.295.638-.328.426-.492 1.035-.492 1.828zm5.65-.124c0-.972.23-1.755.691-2.346.461-.592 1.065-.888 1.81-.888.743 0 1.33.254 1.764.762V222h1.084v9h-.996l-.053-.68c-.433.532-1.037.797-1.81.797-.734 0-1.333-.3-1.796-.902-.463-.602-.694-1.387-.694-2.356v-.082zm1.084.123c0 .72.148 1.282.445 1.688.297.406.707.61 1.23.61.688 0 1.19-.31 1.506-.927v-2.912c-.324-.597-.822-.896-1.494-.896-.531 0-.945.205-1.242.615-.297.41-.445 1.018-.445 1.822zm8.45 3.217c-.859 0-1.558-.282-2.097-.846-.54-.565-.809-1.32-.809-2.265v-.2c0-.628.12-1.19.36-1.684s.577-.88 1.009-1.16c.431-.28.899-.419 1.403-.419.824 0 1.465.271 1.922.814.457.543.685 1.32.685 2.332v.452h-4.295c.016.625.199 1.13.548 1.514.35.385.794.577 1.333.577.383 0 .707-.078.973-.234.265-.156.498-.363.697-.621l.662.516c-.531.816-1.328 1.224-2.39 1.224zm-.134-5.683c-.438 0-.805.159-1.102.477-.297.318-.48.765-.55 1.339h3.175v-.082c-.031-.55-.18-.978-.445-1.28-.266-.303-.625-.454-1.078-.454z" fill="#000"/><g fill="#616161"><path d="M538.5 138.085h-1v37.83h1z"/><path d="M542.09 172.602l-.732-.682-3.357 3.612-3.357-3.612-.733.682L538 177zm0-31.204l-.732.682-3.357-3.612-3.357 3.612-.733-.682L538 137z"/></g><path d="M368.63 275h-97.26c-.753 0-1.37-.74-1.37-1.646v-89.708c0-.905.617-1.646 1.37-1.646h97.26c.753 0 1.37.74 1.37 1.646v89.708c0 .905-.617 1.646-1.37 1.646" fill="#B3E5FC"/><path d="M271.37 274.5c-.455 0-.87-.499-.87-1.146v-89.708c0-.647.415-1.146.87-1.146h97.26c.455 0 .87.499.87 1.146v89.708c0 .647-.415 1.146-.87 1.146v1c1.052 0 1.87-.983 1.87-2.146v-89.708c0-1.163-.818-2.146-1.87-2.146h-97.26c-1.052 0-1.87.983-1.87 2.146v89.708c0 1.163.818 2.146 1.87 2.146h97.26v-1h-97.26z" fill="#FFF"/><path d="M313.547 231h-1.131l-4.295-6.574V231h-1.13v-8.531h1.13l4.307 6.603v-6.603h1.119V231zm1.414-3.229c0-.62.122-1.18.366-1.675a2.732 2.732 0 0 1 1.02-1.149c.435-.27.932-.404 1.49-.404.864 0 1.562.299 2.095.896.534.598.8 1.393.8 2.385v.076c0 .618-.118 1.171-.354 1.662-.237.49-.575.872-1.014 1.145-.44.273-.944.41-1.515.41-.859 0-1.555-.299-2.089-.896-.533-.598-.8-1.389-.8-2.373v-.077zm1.09.13c0 .703.163 1.267.489 1.693.326.426.762.638 1.31.638.55 0 .988-.215 1.312-.647.324-.432.486-1.036.486-1.814 0-.695-.165-1.258-.495-1.69a1.574 1.574 0 0 0-1.315-.647c-.536 0-.967.212-1.295.638-.328.426-.492 1.035-.492 1.828zm5.65-.124c0-.972.23-1.755.691-2.346.461-.592 1.065-.888 1.81-.888.743 0 1.33.254 1.764.762V222h1.084v9h-.996l-.053-.68c-.433.532-1.037.797-1.81.797-.734 0-1.333-.3-1.796-.902-.463-.602-.694-1.387-.694-2.356v-.082zm1.084.123c0 .72.148 1.282.445 1.688.297.406.707.61 1.23.61.688 0 1.19-.31 1.506-.927v-2.912c-.324-.597-.822-.896-1.494-.896-.531 0-.945.205-1.242.615-.297.41-.445 1.018-.445 1.822zm8.45 3.217c-.859 0-1.558-.282-2.097-.846-.54-.565-.809-1.32-.809-2.265v-.2c0-.628.12-1.19.36-1.684s.577-.88 1.009-1.16c.431-.28.899-.419 1.403-.419.824 0 1.465.271 1.922.814.457.543.685 1.32.685 2.332v.452h-4.295c.016.625.199 1.13.548 1.514.35.385.794.577 1.333.577.383 0 .707-.078.973-.234.265-.156.498-.363.697-.621l.662.516c-.531.816-1.328 1.224-2.39 1.224zm-.134-5.683c-.438 0-.805.159-1.102.477-.297.318-.48.765-.55 1.339h3.175v-.082c-.031-.55-.18-.978-.445-1.28-.266-.303-.625-.454-1.078-.454z" fill="#000"/><g fill="#616161"><path d="M321.5 138.085h-1v37.83h1z"/><path d="M325.09 172.602l-.732-.682-3.357 3.612-3.357-3.612-.733.682L321 177zm0-31.204l-.732.682-3.357-3.612-3.357 3.612-.733-.682L321 137z"/></g><path d="M158.63 275H61.37c-.753 0-1.37-.74-1.37-1.646v-89.708c0-.905.617-1.646 1.37-1.646h97.26c.753 0 1.37.74 1.37 1.646v89.708c0 .905-.617 1.646-1.37 1.646" fill="#B3E5FC"/><path d="M61.37 274.5c-.455 0-.87-.499-.87-1.146v-89.708c0-.647.415-1.146.87-1.146h97.26c.455 0 .87.499.87 1.146v89.708c0 .647-.415 1.146-.87 1.146v1c1.052 0 1.87-.983 1.87-2.146v-89.708c0-1.163-.818-2.146-1.87-2.146H61.37c-1.052 0-1.87.983-1.87 2.146v89.708c0 1.163.818 2.146 1.87 2.146h97.26v-1H61.37z" fill="#FFF"/><path d="M103.547 231h-1.131l-4.295-6.574V231h-1.13v-8.531h1.13l4.307 6.603v-6.603h1.119V231zm1.414-3.229c0-.62.122-1.18.366-1.675a2.732 2.732 0 0 1 1.02-1.149c.435-.27.932-.404 1.49-.404.864 0 1.562.299 2.095.896.534.598.8 1.393.8 2.385v.076c0 .618-.118 1.171-.354 1.662-.237.49-.575.872-1.014 1.145-.44.273-.944.41-1.515.41-.859 0-1.555-.299-2.089-.896-.533-.598-.8-1.389-.8-2.373v-.077zm1.09.13c0 .703.163 1.267.489 1.693.326.426.762.638 1.31.638.55 0 .988-.215 1.312-.647.324-.432.486-1.036.486-1.814 0-.695-.165-1.258-.495-1.69a1.574 1.574 0 0 0-1.315-.647c-.536 0-.967.212-1.295.638-.328.426-.492 1.035-.492 1.828zm5.65-.124c0-.972.23-1.755.691-2.346.461-.592 1.065-.888 1.81-.888.743 0 1.33.254 1.764.762V222h1.084v9h-.996l-.053-.68c-.433.532-1.037.797-1.81.797-.734 0-1.333-.3-1.796-.902-.463-.602-.694-1.387-.694-2.356v-.082zm1.084.123c0 .72.148 1.282.445 1.688.297.406.707.61 1.23.61.688 0 1.19-.31 1.506-.927v-2.912c-.324-.597-.822-.896-1.494-.896-.531 0-.945.205-1.242.615-.297.41-.445 1.018-.445 1.822zm8.45 3.217c-.859 0-1.558-.282-2.097-.846-.54-.565-.809-1.32-.809-2.265v-.2c0-.628.12-1.19.36-1.684s.577-.88 1.009-1.16c.431-.28.899-.419 1.403-.419.824 0 1.465.271 1.922.814.457.543.685 1.32.685 2.332v.452h-4.295c.016.625.199 1.13.548 1.514.35.385.794.577 1.333.577.383 0 .707-.078.973-.234.265-.156.498-.363.697-.621l.662.516c-.531.816-1.328 1.224-2.39 1.224zm-.134-5.683c-.438 0-.805.159-1.102.477-.297.318-.48.765-.55 1.339h3.175v-.082c-.031-.55-.18-.978-.445-1.28-.266-.303-.625-.454-1.078-.454z" fill="#000"/><g fill="#616161"><path d="M111.5 138.085h-1v37.83h1z"/><path d="M115.09 172.602l-.732-.682-3.357 3.612-3.357-3.612-.733.682L111 177zm0-31.204l-.732.682-3.357-3.612-3.357 3.612-.733-.682L111 137z"/></g><path d="M651.56 133H4.44c-1.892 0-3.44-.192-3.44-.427V85.427C1 85.192 2.548 85 4.44 85h647.12c1.892 0 3.44.192 3.44.427v47.146c0 .235-1.548.427-3.44.427" stroke="#FFF" fill="#B3E5FC"/><path d="M637.178 451.5h-58.356c-.452 0-.822-.625-.822-1.39v-75.72c0-.765.37-1.39.822-1.39h58.356c.452 0 .822.625.822 1.39v75.72c0 .765-.37 1.39-.822 1.39" fill="#FFF"/><path d="M578.822 451c-.106 0-.322-.365-.322-.89v-75.72c0-.525.216-.89.322-.89h58.356c.106 0 .322.365.322.89v75.72c0 .525-.216.89-.322.89v1c.798 0 1.322-.885 1.322-1.89v-75.72c0-1.005-.524-1.89-1.322-1.89h-58.356c-.798 0-1.322.885-1.322 1.89v75.72c0 1.005.524 1.89 1.322 1.89h58.356v-1h-58.356z" fill="#616161"/><path d="M590.504 410.197c-.965-.277-1.667-.618-2.107-1.022a1.954 1.954 0 0 1-.659-1.497c0-.672.269-1.228.806-1.667.537-.44 1.235-.66 2.095-.66.586 0 1.108.114 1.567.34.459.227.815.54 1.066.938.252.398.378.834.378 1.307h-1.13c0-.516-.165-.921-.493-1.216-.328-.295-.79-.443-1.388-.443-.555 0-.988.122-1.298.367-.31.244-.466.583-.466 1.016 0 .348.147.642.442.882.295.24.797.46 1.506.66.71.198 1.264.418 1.664.658.4.24.698.52.89.841.194.32.291.697.291 1.131 0 .691-.27 1.245-.809 1.661-.539.416-1.26.624-2.162.624a4.01 4.01 0 0 1-1.64-.337c-.508-.224-.9-.532-1.175-.923a2.252 2.252 0 0 1-.413-1.33h1.13c0 .516.191.923.572 1.222.38.299.89.448 1.526.448.594 0 1.05-.12 1.365-.363.317-.242.475-.572.475-.99 0-.418-.146-.741-.44-.97-.292-.228-.824-.454-1.593-.677zm6.992 0c-.965-.277-1.667-.618-2.107-1.022a1.954 1.954 0 0 1-.659-1.497c0-.672.269-1.228.806-1.667.537-.44 1.235-.66 2.095-.66.586 0 1.108.114 1.567.34.459.227.814.54 1.066.938.252.398.378.834.378 1.307h-1.13c0-.516-.165-.921-.493-1.216-.328-.295-.79-.443-1.388-.443-.555 0-.988.122-1.298.367-.31.244-.466.583-.466 1.016 0 .348.147.642.442.882.295.24.797.46 1.506.66.71.198 1.264.418 1.664.658.4.24.698.52.89.841.194.32.29.697.29 1.131 0 .691-.269 1.245-.808 1.661-.539.416-1.26.624-2.162.624a4.01 4.01 0 0 1-1.64-.337c-.508-.224-.9-.532-1.175-.923a2.252 2.252 0 0 1-.413-1.33h1.13c0 .516.191.923.572 1.222.38.299.89.448 1.526.448.594 0 1.049-.12 1.365-.363.317-.242.475-.572.475-.99 0-.418-.146-.741-.44-.97-.292-.228-.824-.454-1.593-.677zm10.373-3.802h-2.743V414h-1.119v-7.605h-2.736v-.926h6.598v.926zm4.22 7.605c-.062-.125-.113-.348-.152-.668-.504.523-1.106.785-1.805.785-.625 0-1.138-.177-1.538-.53-.4-.354-.6-.802-.6-1.345 0-.66.25-1.173.752-1.538s1.208-.548 2.118-.548h1.055v-.498c0-.379-.113-.68-.34-.905-.226-.225-.56-.337-1.002-.337-.386 0-.71.098-.972.293-.262.195-.393.432-.393.709h-1.09c0-.316.113-.622.337-.917a2.3 2.3 0 0 1 .914-.7 3.075 3.075 0 0 1 1.269-.258c.73 0 1.303.183 1.717.548.414.365.629.868.644 1.509v2.918c0 .582.074 1.044.223 1.388V414h-1.137zm-1.799-.826c.34 0 .662-.088.967-.264.305-.176.525-.404.662-.685v-1.301h-.85c-1.328 0-1.992.388-1.992 1.166 0 .34.114.605.34.797.227.191.518.287.873.287zm9.652-2.274c0 .97-.222 1.747-.668 2.335-.445.588-1.043.882-1.793.882-.8 0-1.42-.283-1.857-.85l-.053.733h-.996v-9h1.084v3.357c.438-.543 1.041-.814 1.81-.814.77 0 1.375.291 1.814.873.44.582.66 1.379.66 2.39v.094zm-1.084-.123c0-.738-.142-1.308-.427-1.71-.286-.403-.696-.604-1.23-.604-.716 0-1.23.332-1.542.996v2.742c.332.664.85.996 1.553.996.52 0 .924-.2 1.213-.603.289-.403.433-1.008.433-1.817zm3.5 3.223h-1.084v-9h1.084v9zm4.238.117c-.86 0-1.558-.282-2.097-.846-.54-.565-.81-1.32-.81-2.265v-.2c0-.628.121-1.19.361-1.684s.576-.88 1.008-1.16c.432-.28.9-.419 1.403-.419.825 0 1.465.271 1.922.814.457.543.686 1.32.686 2.332v.452h-4.295c.016.625.198 1.13.548 1.514.35.385.794.577 1.333.577.383 0 .707-.078.972-.234.266-.156.498-.363.698-.621l.662.516c-.531.816-1.328 1.224-2.39 1.224zm-.135-5.683c-.437 0-.804.159-1.101.477-.297.318-.48.765-.55 1.339h3.175v-.082c-.031-.55-.18-.978-.445-1.28-.266-.303-.625-.454-1.079-.454z" fill="#000"/><path d="M566.678 451.5h-58.356c-.452 0-.822-.625-.822-1.39v-75.72c0-.765.37-1.39.822-1.39h58.356c.452 0 .822.625.822 1.39v75.72c0 .765-.37 1.39-.822 1.39" fill="#FFF"/><path d="M508.322 451c-.106 0-.322-.365-.322-.89v-75.72c0-.525.216-.89.322-.89h58.356c.106 0 .322.365.322.89v75.72c0 .525-.216.89-.322.89v1c.798 0 1.322-.885 1.322-1.89v-75.72c0-1.005-.524-1.89-1.322-1.89h-58.356c-.798 0-1.322.885-1.322 1.89v75.72c0 1.005.524 1.89 1.322 1.89h58.356v-1h-58.356z" fill="#616161"/><path d="M520.004 410.197c-.965-.277-1.667-.618-2.107-1.022a1.954 1.954 0 0 1-.659-1.497c0-.672.269-1.228.806-1.667.537-.44 1.235-.66 2.095-.66.586 0 1.108.114 1.567.34.459.227.815.54 1.066.938.252.398.378.834.378 1.307h-1.13c0-.516-.165-.921-.493-1.216-.328-.295-.79-.443-1.388-.443-.555 0-.988.122-1.298.367-.31.244-.466.583-.466 1.016 0 .348.147.642.442.882.295.24.797.46 1.506.66.71.198 1.264.418 1.664.658.4.24.698.52.89.841.194.32.291.697.291 1.131 0 .691-.27 1.245-.809 1.661-.539.416-1.26.624-2.162.624a4.01 4.01 0 0 1-1.64-.337c-.508-.224-.9-.532-1.175-.923a2.252 2.252 0 0 1-.413-1.33h1.13c0 .516.191.923.572 1.222.38.299.89.448 1.526.448.594 0 1.05-.12 1.365-.363.317-.242.475-.572.475-.99 0-.418-.146-.741-.44-.97-.292-.228-.824-.454-1.593-.677zm6.992 0c-.965-.277-1.667-.618-2.107-1.022a1.954 1.954 0 0 1-.659-1.497c0-.672.269-1.228.806-1.667.537-.44 1.235-.66 2.095-.66.586 0 1.108.114 1.567.34.459.227.814.54 1.066.938.252.398.378.834.378 1.307h-1.13c0-.516-.165-.921-.493-1.216-.328-.295-.79-.443-1.388-.443-.555 0-.988.122-1.298.367-.31.244-.466.583-.466 1.016 0 .348.147.642.442.882.295.24.797.46 1.506.66.71.198 1.264.418 1.664.658.4.24.698.52.89.841.194.32.29.697.29 1.131 0 .691-.269 1.245-.808 1.661-.539.416-1.26.624-2.162.624a4.01 4.01 0 0 1-1.64-.337c-.508-.224-.9-.532-1.175-.923a2.252 2.252 0 0 1-.413-1.33h1.13c0 .516.191.923.572 1.222.38.299.89.448 1.526.448.594 0 1.049-.12 1.365-.363.317-.242.475-.572.475-.99 0-.418-.146-.741-.44-.97-.292-.228-.824-.454-1.593-.677zm10.373-3.802h-2.743V414h-1.119v-7.605h-2.736v-.926h6.598v.926zm4.22 7.605c-.062-.125-.113-.348-.152-.668-.504.523-1.106.785-1.805.785-.625 0-1.138-.177-1.538-.53-.4-.354-.6-.802-.6-1.345 0-.66.25-1.173.752-1.538s1.208-.548 2.118-.548h1.055v-.498c0-.379-.113-.68-.34-.905-.226-.225-.56-.337-1.002-.337-.386 0-.71.098-.972.293-.262.195-.393.432-.393.709h-1.09c0-.316.113-.622.337-.917a2.3 2.3 0 0 1 .914-.7 3.075 3.075 0 0 1 1.269-.258c.73 0 1.303.183 1.717.548.414.365.629.868.644 1.509v2.918c0 .582.074 1.044.223 1.388V414h-1.137zm-1.799-.826c.34 0 .662-.088.967-.264.305-.176.525-.404.662-.685v-1.301h-.85c-1.328 0-1.992.388-1.992 1.166 0 .34.114.605.34.797.227.191.518.287.873.287zm9.652-2.274c0 .97-.222 1.747-.668 2.335-.445.588-1.043.882-1.793.882-.8 0-1.42-.283-1.857-.85l-.053.733h-.996v-9h1.084v3.357c.438-.543 1.041-.814 1.81-.814.77 0 1.375.291 1.814.873.44.582.66 1.379.66 2.39v.094zm-1.084-.123c0-.738-.142-1.308-.427-1.71-.286-.403-.696-.604-1.23-.604-.716 0-1.23.332-1.542.996v2.742c.332.664.85.996 1.553.996.52 0 .924-.2 1.213-.603.289-.403.433-1.008.433-1.817zm3.5 3.223h-1.084v-9h1.084v9zm4.238.117c-.86 0-1.558-.282-2.097-.846-.54-.565-.81-1.32-.81-2.265v-.2c0-.628.121-1.19.361-1.684s.576-.88 1.008-1.16c.432-.28.9-.419 1.403-.419.825 0 1.465.271 1.922.814.457.543.686 1.32.686 2.332v.452h-4.295c.016.625.198 1.13.548 1.514.35.385.794.577 1.333.577.383 0 .707-.078.972-.234.266-.156.498-.363.698-.621l.662.516c-.531.816-1.328 1.224-2.39 1.224zm-.135-5.683c-.437 0-.804.159-1.101.477-.297.318-.48.765-.55 1.339h3.175v-.082c-.031-.55-.18-.978-.445-1.28-.266-.303-.625-.454-1.079-.454z" fill="#000"/><path d="M496.178 451.5h-58.356c-.452 0-.822-.625-.822-1.39v-75.72c0-.765.37-1.39.822-1.39h58.356c.452 0 .822.625.822 1.39v75.72c0 .765-.37 1.39-.822 1.39" fill="#FFF"/><path d="M437.822 451c-.106 0-.322-.365-.322-.89v-75.72c0-.525.216-.89.322-.89h58.356c.106 0 .322.365.322.89v75.72c0 .525-.216.89-.322.89v1c.798 0 1.322-.885 1.322-1.89v-75.72c0-1.005-.524-1.89-1.322-1.89h-58.356c-.798 0-1.322.885-1.322 1.89v75.72c0 1.005.524 1.89 1.322 1.89h58.356v-1h-58.356z" fill="#616161"/><path d="M449.504 410.197c-.965-.277-1.667-.618-2.107-1.022a1.954 1.954 0 0 1-.659-1.497c0-.672.269-1.228.806-1.667.537-.44 1.235-.66 2.095-.66.586 0 1.108.114 1.567.34.459.227.815.54 1.066.938.252.398.378.834.378 1.307h-1.13c0-.516-.165-.921-.493-1.216-.328-.295-.79-.443-1.388-.443-.555 0-.988.122-1.298.367-.31.244-.466.583-.466 1.016 0 .348.147.642.442.882.295.24.797.46 1.506.66.71.198 1.264.418 1.664.658.4.24.698.52.89.841.194.32.291.697.291 1.131 0 .691-.27 1.245-.809 1.661-.539.416-1.26.624-2.162.624a4.01 4.01 0 0 1-1.64-.337c-.508-.224-.9-.532-1.175-.923a2.252 2.252 0 0 1-.413-1.33h1.13c0 .516.191.923.572 1.222.38.299.89.448 1.526.448.594 0 1.05-.12 1.366-.363.316-.242.474-.572.474-.99 0-.418-.146-.741-.44-.97-.292-.228-.824-.454-1.593-.677zm6.992 0c-.965-.277-1.667-.618-2.107-1.022a1.954 1.954 0 0 1-.659-1.497c0-.672.269-1.228.806-1.667.537-.44 1.235-.66 2.095-.66.586 0 1.108.114 1.567.34.459.227.814.54 1.066.938.252.398.378.834.378 1.307h-1.13c0-.516-.165-.921-.493-1.216-.328-.295-.79-.443-1.388-.443-.555 0-.988.122-1.298.367-.31.244-.466.583-.466 1.016 0 .348.147.642.442.882.295.24.797.46 1.506.66.71.198 1.264.418 1.664.658.4.24.698.52.89.841.194.32.29.697.29 1.131 0 .691-.269 1.245-.808 1.661-.539.416-1.26.624-2.162.624a4.01 4.01 0 0 1-1.64-.337c-.508-.224-.9-.532-1.175-.923a2.252 2.252 0 0 1-.413-1.33h1.13c0 .516.191.923.572 1.222.38.299.89.448 1.526.448.594 0 1.049-.12 1.365-.363.317-.242.475-.572.475-.99 0-.418-.146-.741-.44-.97-.292-.228-.824-.454-1.593-.677zm10.373-3.802h-2.743V414h-1.119v-7.605h-2.736v-.926h6.598v.926zm4.22 7.605c-.062-.125-.113-.348-.152-.668-.504.523-1.106.785-1.805.785-.625 0-1.138-.177-1.538-.53-.4-.354-.6-.802-.6-1.345 0-.66.25-1.173.752-1.538s1.208-.548 2.118-.548h1.055v-.498c0-.379-.113-.68-.34-.905-.226-.225-.56-.337-1.002-.337-.386 0-.71.098-.972.293-.262.195-.393.432-.393.709h-1.09c0-.316.113-.622.337-.917a2.3 2.3 0 0 1 .914-.7 3.075 3.075 0 0 1 1.269-.258c.73 0 1.303.183 1.717.548.414.365.629.868.644 1.509v2.918c0 .582.074 1.044.223 1.388V414h-1.137zm-1.799-.826c.34 0 .662-.088.967-.264.305-.176.525-.404.662-.685v-1.301h-.85c-1.328 0-1.992.388-1.992 1.166 0 .34.114.605.34.797.227.191.518.287.873.287zm9.652-2.274c0 .97-.222 1.747-.668 2.335-.445.588-1.043.882-1.793.882-.8 0-1.42-.283-1.857-.85l-.053.733h-.996v-9h1.084v3.357c.438-.543 1.041-.814 1.81-.814.77 0 1.375.291 1.814.873.44.582.66 1.379.66 2.39v.094zm-1.084-.123c0-.738-.142-1.308-.427-1.71-.286-.403-.696-.604-1.23-.604-.716 0-1.23.332-1.542.996v2.742c.332.664.85.996 1.553.996.52 0 .924-.2 1.213-.603.289-.403.433-1.008.433-1.817zm3.5 3.223h-1.084v-9h1.084v9zm4.238.117c-.86 0-1.558-.282-2.097-.846-.54-.565-.81-1.32-.81-2.265v-.2c0-.628.121-1.19.361-1.684s.576-.88 1.008-1.16c.432-.28.9-.419 1.403-.419.825 0 1.465.271 1.922.814.457.543.686 1.32.686 2.332v.452h-4.295c.016.625.198 1.13.548 1.514.35.385.794.577 1.333.577.383 0 .707-.078.972-.234.266-.156.498-.363.698-.621l.662.516c-.531.816-1.328 1.224-2.39 1.224zm-.135-5.683c-.437 0-.804.159-1.101.477-.297.318-.48.765-.55 1.339h3.175v-.082c-.031-.55-.18-.978-.445-1.28-.266-.303-.625-.454-1.079-.454z" fill="#000"/><g fill="#616161"><path d="M607.5 335h-1v37h1zm-140 0h-1v37h1z"/><path d="M466.5 334.5v1h141v-1z"/><path d="M534.5 281.086h-1v90.83h1z"/><path d="M538.09 284.398l-.732.682-3.357-3.612-3.357 3.612-.733-.682L534 280z"/></g><path d="M425.178 451.5h-58.356c-.452 0-.822-.625-.822-1.39v-75.72c0-.765.37-1.39.822-1.39h58.356c.452 0 .822.625.822 1.39v75.72c0 .765-.37 1.39-.822 1.39" fill="#FFF"/><path d="M366.822 451c-.106 0-.322-.365-.322-.89v-75.72c0-.525.216-.89.322-.89h58.356c.106 0 .322.365.322.89v75.72c0 .525-.216.89-.322.89v1c.798 0 1.322-.885 1.322-1.89v-75.72c0-1.005-.524-1.89-1.322-1.89h-58.356c-.798 0-1.322.885-1.322 1.89v75.72c0 1.005.524 1.89 1.322 1.89h58.356v-1h-58.356z" fill="#616161"/><path d="M378.504 410.197c-.965-.277-1.667-.618-2.107-1.022a1.954 1.954 0 0 1-.659-1.497c0-.672.269-1.228.806-1.667.537-.44 1.235-.66 2.095-.66.586 0 1.108.114 1.567.34.459.227.815.54 1.066.938.252.398.378.834.378 1.307h-1.13c0-.516-.165-.921-.493-1.216-.328-.295-.79-.443-1.388-.443-.555 0-.988.122-1.298.367-.31.244-.466.583-.466 1.016 0 .348.147.642.442.882.295.24.797.46 1.506.66.71.198 1.264.418 1.664.658.4.24.698.52.89.841.194.32.291.697.291 1.131 0 .691-.27 1.245-.809 1.661-.539.416-1.26.624-2.162.624a4.01 4.01 0 0 1-1.64-.337c-.508-.224-.9-.532-1.175-.923a2.252 2.252 0 0 1-.413-1.33h1.13c0 .516.191.923.572 1.222.38.299.89.448 1.526.448.594 0 1.05-.12 1.366-.363.316-.242.474-.572.474-.99 0-.418-.146-.741-.44-.97-.292-.228-.824-.454-1.593-.677zm6.992 0c-.965-.277-1.667-.618-2.107-1.022a1.954 1.954 0 0 1-.659-1.497c0-.672.269-1.228.806-1.667.537-.44 1.235-.66 2.095-.66.586 0 1.108.114 1.567.34.459.227.814.54 1.066.938.252.398.378.834.378 1.307h-1.13c0-.516-.165-.921-.493-1.216-.328-.295-.79-.443-1.388-.443-.555 0-.988.122-1.298.367-.31.244-.466.583-.466 1.016 0 .348.147.642.442.882.295.24.797.46 1.506.66.71.198 1.264.418 1.664.658.4.24.698.52.89.841.194.32.29.697.29 1.131 0 .691-.269 1.245-.808 1.661-.539.416-1.26.624-2.162.624a4.01 4.01 0 0 1-1.64-.337c-.508-.224-.9-.532-1.175-.923a2.252 2.252 0 0 1-.413-1.33h1.13c0 .516.191.923.572 1.222.38.299.89.448 1.526.448.594 0 1.049-.12 1.365-.363.317-.242.475-.572.475-.99 0-.418-.146-.741-.44-.97-.292-.228-.824-.454-1.593-.677zm10.373-3.802h-2.743V414h-1.119v-7.605h-2.736v-.926h6.598v.926zm4.22 7.605c-.062-.125-.113-.348-.152-.668-.504.523-1.106.785-1.805.785-.625 0-1.138-.177-1.538-.53-.4-.354-.6-.802-.6-1.345 0-.66.25-1.173.752-1.538s1.208-.548 2.118-.548h1.055v-.498c0-.379-.113-.68-.34-.905-.226-.225-.56-.337-1.002-.337-.386 0-.71.098-.972.293-.262.195-.393.432-.393.709h-1.09c0-.316.113-.622.337-.917a2.3 2.3 0 0 1 .914-.7 3.075 3.075 0 0 1 1.269-.258c.73 0 1.303.183 1.717.548.414.365.629.868.644 1.509v2.918c0 .582.074 1.044.223 1.388V414h-1.137zm-1.799-.826c.34 0 .662-.088.967-.264.305-.176.525-.404.662-.685v-1.301h-.85c-1.328 0-1.992.388-1.992 1.166 0 .34.114.605.34.797.227.191.518.287.873.287zm9.652-2.274c0 .97-.222 1.747-.668 2.335-.445.588-1.043.882-1.793.882-.8 0-1.42-.283-1.857-.85l-.053.733h-.996v-9h1.084v3.357c.438-.543 1.041-.814 1.81-.814.77 0 1.375.291 1.814.873.44.582.66 1.379.66 2.39v.094zm-1.084-.123c0-.738-.142-1.308-.427-1.71-.286-.403-.696-.604-1.23-.604-.716 0-1.23.332-1.542.996v2.742c.332.664.85.996 1.553.996.52 0 .924-.2 1.213-.603.289-.403.433-1.008.433-1.817zm3.5 3.223h-1.084v-9h1.084v9zm4.238.117c-.86 0-1.558-.282-2.097-.846-.54-.565-.81-1.32-.81-2.265v-.2c0-.628.121-1.19.361-1.684s.576-.88 1.008-1.16c.432-.28.9-.419 1.403-.419.825 0 1.465.271 1.922.814.457.543.686 1.32.686 2.332v.452h-4.295c.016.625.198 1.13.548 1.514.35.385.794.577 1.333.577.383 0 .707-.078.972-.234.266-.156.498-.363.698-.621l.662.516c-.531.816-1.328 1.224-2.39 1.224zm-.135-5.683c-.437 0-.804.159-1.101.477-.297.318-.48.765-.55 1.339h3.175v-.082c-.031-.55-.18-.978-.445-1.28-.266-.303-.625-.454-1.079-.454z" fill="#000"/><path d="M354.678 451.5h-58.356c-.452 0-.822-.625-.822-1.39v-75.72c0-.765.37-1.39.822-1.39h58.356c.452 0 .822.625.822 1.39v75.72c0 .765-.37 1.39-.822 1.39" fill="#FFF"/><path d="M296.322 451c-.106 0-.322-.365-.322-.89v-75.72c0-.525.216-.89.322-.89h58.356c.106 0 .322.365.322.89v75.72c0 .525-.216.89-.322.89v1c.798 0 1.322-.885 1.322-1.89v-75.72c0-1.005-.524-1.89-1.322-1.89h-58.356c-.798 0-1.322.885-1.322 1.89v75.72c0 1.005.524 1.89 1.322 1.89h58.356v-1h-58.356z" fill="#616161"/><path d="M308.004 410.197c-.965-.277-1.667-.618-2.107-1.022a1.954 1.954 0 0 1-.659-1.497c0-.672.269-1.228.806-1.667.537-.44 1.235-.66 2.095-.66.586 0 1.108.114 1.567.34.459.227.815.54 1.066.938.252.398.378.834.378 1.307h-1.13c0-.516-.165-.921-.493-1.216-.328-.295-.79-.443-1.388-.443-.555 0-.988.122-1.298.367-.31.244-.466.583-.466 1.016 0 .348.147.642.442.882.295.24.797.46 1.506.66.71.198 1.264.418 1.664.658.4.24.698.52.89.841.194.32.291.697.291 1.131 0 .691-.27 1.245-.809 1.661-.539.416-1.26.624-2.162.624a4.01 4.01 0 0 1-1.64-.337c-.508-.224-.9-.532-1.175-.923a2.252 2.252 0 0 1-.413-1.33h1.13c0 .516.191.923.572 1.222.38.299.89.448 1.526.448.594 0 1.05-.12 1.366-.363.316-.242.474-.572.474-.99 0-.418-.146-.741-.44-.97-.292-.228-.824-.454-1.593-.677zm6.992 0c-.965-.277-1.667-.618-2.107-1.022a1.954 1.954 0 0 1-.659-1.497c0-.672.269-1.228.806-1.667.537-.44 1.235-.66 2.095-.66.586 0 1.108.114 1.567.34.459.227.814.54 1.066.938.252.398.378.834.378 1.307h-1.13c0-.516-.165-.921-.493-1.216-.328-.295-.79-.443-1.388-.443-.555 0-.988.122-1.298.367-.31.244-.466.583-.466 1.016 0 .348.147.642.442.882.295.24.797.46 1.506.66.71.198 1.264.418 1.664.658.4.24.698.52.89.841.194.32.29.697.29 1.131 0 .691-.269 1.245-.808 1.661-.539.416-1.26.624-2.162.624a4.01 4.01 0 0 1-1.64-.337c-.508-.224-.9-.532-1.175-.923a2.252 2.252 0 0 1-.413-1.33h1.13c0 .516.191.923.572 1.222.38.299.89.448 1.526.448.594 0 1.049-.12 1.365-.363.317-.242.475-.572.475-.99 0-.418-.146-.741-.44-.97-.292-.228-.824-.454-1.593-.677zm10.373-3.802h-2.743V414h-1.119v-7.605h-2.736v-.926h6.598v.926zm4.22 7.605c-.062-.125-.113-.348-.152-.668-.504.523-1.106.785-1.805.785-.625 0-1.138-.177-1.538-.53-.4-.354-.6-.802-.6-1.345 0-.66.25-1.173.752-1.538s1.208-.548 2.118-.548h1.055v-.498c0-.379-.113-.68-.34-.905-.226-.225-.56-.337-1.002-.337-.386 0-.71.098-.972.293-.262.195-.393.432-.393.709h-1.09c0-.316.113-.622.337-.917a2.3 2.3 0 0 1 .914-.7 3.075 3.075 0 0 1 1.269-.258c.73 0 1.303.183 1.717.548.414.365.629.868.644 1.509v2.918c0 .582.074 1.044.223 1.388V414h-1.137zm-1.799-.826c.34 0 .662-.088.967-.264.305-.176.525-.404.662-.685v-1.301h-.85c-1.328 0-1.992.388-1.992 1.166 0 .34.114.605.34.797.227.191.518.287.873.287zm9.652-2.274c0 .97-.222 1.747-.668 2.335-.445.588-1.043.882-1.793.882-.8 0-1.42-.283-1.857-.85l-.053.733h-.996v-9h1.084v3.357c.438-.543 1.041-.814 1.81-.814.77 0 1.375.291 1.814.873.44.582.66 1.379.66 2.39v.094zm-1.084-.123c0-.738-.142-1.308-.427-1.71-.286-.403-.696-.604-1.23-.604-.716 0-1.23.332-1.542.996v2.742c.332.664.85.996 1.553.996.52 0 .924-.2 1.213-.603.289-.403.433-1.008.433-1.817zm3.5 3.223h-1.084v-9h1.084v9zm4.238.117c-.86 0-1.558-.282-2.097-.846-.54-.565-.81-1.32-.81-2.265v-.2c0-.628.121-1.19.361-1.684s.576-.88 1.008-1.16c.432-.28.9-.419 1.403-.419.825 0 1.465.271 1.922.814.457.543.686 1.32.686 2.332v.452h-4.295c.016.625.198 1.13.548 1.514.35.385.794.577 1.333.577.383 0 .707-.078.972-.234.266-.156.498-.363.698-.621l.662.516c-.531.816-1.328 1.224-2.39 1.224zm-.135-5.683c-.437 0-.804.159-1.101.477-.297.318-.48.765-.55 1.339h3.175v-.082c-.031-.55-.18-.978-.445-1.28-.266-.303-.625-.454-1.079-.454z" fill="#000"/><path d="M284.178 451.5h-58.356c-.452 0-.822-.625-.822-1.39v-75.72c0-.765.37-1.39.822-1.39h58.356c.452 0 .822.625.822 1.39v75.72c0 .765-.37 1.39-.822 1.39" fill="#FFF"/><path d="M225.822 451c-.106 0-.322-.365-.322-.89v-75.72c0-.525.216-.89.322-.89h58.356c.106 0 .322.365.322.89v75.72c0 .525-.216.89-.322.89v1c.798 0 1.322-.885 1.322-1.89v-75.72c0-1.005-.524-1.89-1.322-1.89h-58.356c-.798 0-1.322.885-1.322 1.89v75.72c0 1.005.524 1.89 1.322 1.89h58.356v-1h-58.356z" fill="#616161"/><path d="M237.504 410.197c-.965-.277-1.667-.618-2.107-1.022a1.954 1.954 0 0 1-.659-1.497c0-.672.269-1.228.806-1.667.537-.44 1.235-.66 2.095-.66.586 0 1.108.114 1.567.34.459.227.815.54 1.066.938.252.398.378.834.378 1.307h-1.13c0-.516-.165-.921-.493-1.216-.328-.295-.79-.443-1.388-.443-.555 0-.988.122-1.298.367-.31.244-.466.583-.466 1.016 0 .348.147.642.442.882.295.24.797.46 1.506.66.71.198 1.264.418 1.664.658.4.24.698.52.89.841.194.32.291.697.291 1.131 0 .691-.27 1.245-.809 1.661-.539.416-1.26.624-2.162.624a4.01 4.01 0 0 1-1.64-.337c-.508-.224-.9-.532-1.175-.923a2.252 2.252 0 0 1-.413-1.33h1.13c0 .516.191.923.572 1.222.38.299.89.448 1.526.448.594 0 1.05-.12 1.365-.363.317-.242.475-.572.475-.99 0-.418-.146-.741-.44-.97-.292-.228-.824-.454-1.593-.677zm6.992 0c-.965-.277-1.667-.618-2.107-1.022a1.954 1.954 0 0 1-.659-1.497c0-.672.269-1.228.806-1.667.537-.44 1.235-.66 2.095-.66.586 0 1.108.114 1.567.34.459.227.814.54 1.066.938.252.398.378.834.378 1.307h-1.13c0-.516-.165-.921-.493-1.216-.328-.295-.79-.443-1.388-.443-.555 0-.988.122-1.298.367-.31.244-.466.583-.466 1.016 0 .348.147.642.442.882.295.24.797.46 1.506.66.71.198 1.264.418 1.664.658.4.24.698.52.89.841.194.32.29.697.29 1.131 0 .691-.269 1.245-.808 1.661-.539.416-1.26.624-2.162.624a4.01 4.01 0 0 1-1.64-.337c-.508-.224-.9-.532-1.175-.923a2.252 2.252 0 0 1-.413-1.33h1.13c0 .516.191.923.572 1.222.38.299.89.448 1.526.448.594 0 1.049-.12 1.365-.363.317-.242.475-.572.475-.99 0-.418-.146-.741-.44-.97-.292-.228-.824-.454-1.593-.677zm10.373-3.802h-2.743V414h-1.119v-7.605h-2.736v-.926h6.598v.926zm4.22 7.605c-.062-.125-.113-.348-.152-.668-.504.523-1.106.785-1.805.785-.625 0-1.138-.177-1.538-.53-.4-.354-.6-.802-.6-1.345 0-.66.25-1.173.752-1.538s1.208-.548 2.118-.548h1.055v-.498c0-.379-.113-.68-.34-.905-.226-.225-.56-.337-1.002-.337-.386 0-.71.098-.972.293-.262.195-.393.432-.393.709h-1.09c0-.316.113-.622.337-.917a2.3 2.3 0 0 1 .914-.7 3.075 3.075 0 0 1 1.269-.258c.73 0 1.303.183 1.717.548.414.365.629.868.644 1.509v2.918c0 .582.074 1.044.223 1.388V414h-1.137zm-1.799-.826c.34 0 .662-.088.967-.264.305-.176.525-.404.662-.685v-1.301h-.85c-1.328 0-1.992.388-1.992 1.166 0 .34.114.605.34.797.227.191.518.287.873.287zm9.652-2.274c0 .97-.222 1.747-.668 2.335-.445.588-1.043.882-1.793.882-.8 0-1.42-.283-1.857-.85l-.053.733h-.996v-9h1.084v3.357c.438-.543 1.041-.814 1.81-.814.77 0 1.375.291 1.814.873.44.582.66 1.379.66 2.39v.094zm-1.084-.123c0-.738-.142-1.308-.427-1.71-.286-.403-.696-.604-1.23-.604-.716 0-1.23.332-1.542.996v2.742c.332.664.85.996 1.553.996.52 0 .924-.2 1.213-.603.289-.403.433-1.008.433-1.817zm3.5 3.223h-1.084v-9h1.084v9zm4.238.117c-.86 0-1.558-.282-2.097-.846-.54-.565-.81-1.32-.81-2.265v-.2c0-.628.121-1.19.361-1.684s.576-.88 1.008-1.16c.432-.28.9-.419 1.403-.419.825 0 1.465.271 1.922.814.457.543.686 1.32.686 2.332v.452h-4.295c.016.625.198 1.13.548 1.514.35.385.794.577 1.333.577.383 0 .707-.078.972-.234.266-.156.498-.363.698-.621l.662.516c-.531.816-1.328 1.224-2.39 1.224zm-.135-5.683c-.437 0-.804.159-1.101.477-.297.318-.48.765-.55 1.339h3.175v-.082c-.031-.55-.18-.978-.445-1.28-.266-.303-.625-.454-1.079-.454z" fill="#000"/><g fill="#616161"><path d="M395.5 335h-1v37h1zm-140 0h-1v37h1z"/><path d="M254.5 334.5v1h141v-1z"/><path d="M322.5 281.086h-1v90.83h1z"/><path d="M326.09 284.398l-.732.682-3.357-3.612-3.357 3.612-.733-.682L322 280z"/></g><g><path d="M214.178 451.5h-58.356c-.452 0-.822-.625-.822-1.39v-75.72c0-.765.37-1.39.822-1.39h58.356c.452 0 .822.625.822 1.39v75.72c0 .765-.37 1.39-.822 1.39" fill="#FFF"/><path d="M155.822 451c-.106 0-.322-.365-.322-.89v-75.72c0-.525.216-.89.322-.89h58.356c.106 0 .322.365.322.89v75.72c0 .525-.216.89-.322.89v1c.798 0 1.322-.885 1.322-1.89v-75.72c0-1.005-.524-1.89-1.322-1.89h-58.356c-.798 0-1.322.885-1.322 1.89v75.72c0 1.005.524 1.89 1.322 1.89h58.356v-1h-58.356z" fill="#616161"/><path d="M167.504 410.197c-.965-.277-1.667-.618-2.107-1.022a1.954 1.954 0 0 1-.659-1.497c0-.672.269-1.228.806-1.667.537-.44 1.235-.66 2.095-.66.586 0 1.108.114 1.567.34.459.227.815.54 1.066.938.252.398.378.834.378 1.307h-1.13c0-.516-.165-.921-.493-1.216-.328-.295-.79-.443-1.388-.443-.555 0-.988.122-1.298.367-.31.244-.466.583-.466 1.016 0 .348.147.642.442.882.295.24.797.46 1.506.66.71.198 1.264.418 1.664.658.4.24.698.52.89.841.194.32.291.697.291 1.131 0 .691-.27 1.245-.809 1.661-.539.416-1.26.624-2.162.624a4.01 4.01 0 0 1-1.64-.337c-.508-.224-.9-.532-1.175-.923a2.252 2.252 0 0 1-.413-1.33h1.13c0 .516.191.923.572 1.222.38.299.89.448 1.526.448.594 0 1.05-.12 1.365-.363.317-.242.475-.572.475-.99 0-.418-.146-.741-.44-.97-.292-.228-.824-.454-1.593-.677zm6.992 0c-.965-.277-1.667-.618-2.107-1.022a1.954 1.954 0 0 1-.659-1.497c0-.672.269-1.228.806-1.667.537-.44 1.235-.66 2.095-.66.586 0 1.108.114 1.567.34.459.227.814.54 1.066.938.252.398.378.834.378 1.307h-1.13c0-.516-.165-.921-.493-1.216-.328-.295-.79-.443-1.388-.443-.555 0-.988.122-1.298.367-.31.244-.466.583-.466 1.016 0 .348.147.642.442.882.295.24.797.46 1.506.66.71.198 1.264.418 1.664.658.4.24.698.52.89.841.194.32.29.697.29 1.131 0 .691-.269 1.245-.808 1.661-.539.416-1.26.624-2.162.624a4.01 4.01 0 0 1-1.64-.337c-.508-.224-.9-.532-1.175-.923a2.252 2.252 0 0 1-.413-1.33h1.13c0 .516.191.923.572 1.222.38.299.89.448 1.526.448.594 0 1.049-.12 1.365-.363.317-.242.475-.572.475-.99 0-.418-.146-.741-.44-.97-.292-.228-.824-.454-1.593-.677zm10.373-3.802h-2.743V414h-1.119v-7.605h-2.736v-.926h6.598v.926zm4.22 7.605c-.062-.125-.113-.348-.152-.668-.504.523-1.106.785-1.805.785-.625 0-1.138-.177-1.538-.53-.4-.354-.6-.802-.6-1.345 0-.66.25-1.173.752-1.538s1.208-.548 2.118-.548h1.055v-.498c0-.379-.113-.68-.34-.905-.226-.225-.56-.337-1.002-.337-.386 0-.71.098-.972.293-.262.195-.393.432-.393.709h-1.09c0-.316.113-.622.337-.917a2.3 2.3 0 0 1 .914-.7 3.075 3.075 0 0 1 1.269-.258c.73 0 1.303.183 1.717.548.414.365.629.868.644 1.509v2.918c0 .582.074 1.044.223 1.388V414h-1.137zm-1.799-.826c.34 0 .662-.088.967-.264.305-.176.525-.404.662-.685v-1.301h-.85c-1.328 0-1.992.388-1.992 1.166 0 .34.114.605.34.797.227.191.518.287.873.287zm9.652-2.274c0 .97-.222 1.747-.668 2.335-.445.588-1.043.882-1.793.882-.8 0-1.42-.283-1.857-.85l-.053.733h-.996v-9h1.084v3.357c.438-.543 1.041-.814 1.81-.814.77 0 1.375.291 1.814.873.44.582.66 1.379.66 2.39v.094zm-1.084-.123c0-.738-.142-1.308-.427-1.71-.286-.403-.696-.604-1.23-.604-.716 0-1.23.332-1.542.996v2.742c.332.664.85.996 1.553.996.52 0 .924-.2 1.213-.603.289-.403.433-1.008.433-1.817zm3.5 3.223h-1.084v-9h1.084v9zm4.238.117c-.86 0-1.558-.282-2.097-.846-.54-.565-.81-1.32-.81-2.265v-.2c0-.628.121-1.19.361-1.684s.576-.88 1.008-1.16c.432-.28.9-.419 1.403-.419.825 0 1.465.271 1.922.814.457.543.686 1.32.686 2.332v.452h-4.295c.016.625.198 1.13.548 1.514.35.385.794.577 1.333.577.383 0 .707-.078.972-.234.266-.156.498-.363.698-.621l.662.516c-.531.816-1.328 1.224-2.39 1.224zm-.135-5.683c-.437 0-.804.159-1.101.477-.297.318-.48.765-.55 1.339h3.175v-.082c-.031-.55-.18-.978-.445-1.28-.266-.303-.625-.454-1.079-.454z" fill="#000"/><path d="M143.678 451.5H85.322c-.452 0-.822-.625-.822-1.39v-75.72c0-.765.37-1.39.822-1.39h58.356c.452 0 .822.625.822 1.39v75.72c0 .765-.37 1.39-.822 1.39" fill="#FFF"/><path d="M85.322 451c-.106 0-.322-.365-.322-.89v-75.72c0-.525.216-.89.322-.89h58.356c.106 0 .322.365.322.89v75.72c0 .525-.216.89-.322.89v1c.798 0 1.322-.885 1.322-1.89v-75.72c0-1.005-.524-1.89-1.322-1.89H85.322c-.798 0-1.322.885-1.322 1.89v75.72c0 1.005.524 1.89 1.322 1.89h58.356v-1H85.322z" fill="#616161"/><path d="M97.004 410.197c-.965-.277-1.667-.618-2.107-1.022a1.954 1.954 0 0 1-.659-1.497c0-.672.269-1.228.806-1.667.537-.44 1.235-.66 2.095-.66.586 0 1.108.114 1.567.34.459.227.815.54 1.066.938.252.398.378.834.378 1.307h-1.13c0-.516-.165-.921-.493-1.216-.328-.295-.79-.443-1.388-.443-.555 0-.988.122-1.298.367-.31.244-.466.583-.466 1.016 0 .348.147.642.442.882.295.24.797.46 1.506.66.71.198 1.264.418 1.664.658.4.24.698.52.89.841.194.32.291.697.291 1.131 0 .691-.27 1.245-.809 1.661-.539.416-1.26.624-2.162.624a4.01 4.01 0 0 1-1.64-.337c-.508-.224-.9-.532-1.175-.923a2.252 2.252 0 0 1-.413-1.33h1.13c0 .516.191.923.572 1.222.38.299.89.448 1.526.448.594 0 1.05-.12 1.366-.363.316-.242.474-.572.474-.99 0-.418-.146-.741-.44-.97-.292-.228-.824-.454-1.593-.677zm6.992 0c-.965-.277-1.667-.618-2.107-1.022a1.954 1.954 0 0 1-.659-1.497c0-.672.269-1.228.806-1.667.537-.44 1.235-.66 2.095-.66.586 0 1.108.114 1.567.34.459.227.814.54 1.066.938.252.398.378.834.378 1.307h-1.13c0-.516-.165-.921-.493-1.216-.328-.295-.79-.443-1.388-.443-.555 0-.988.122-1.298.367-.31.244-.466.583-.466 1.016 0 .348.147.642.442.882.295.24.797.46 1.506.66.71.198 1.264.418 1.664.658.4.24.698.52.89.841.194.32.29.697.29 1.131 0 .691-.269 1.245-.808 1.661-.539.416-1.26.624-2.162.624a4.01 4.01 0 0 1-1.64-.337c-.508-.224-.9-.532-1.175-.923a2.252 2.252 0 0 1-.413-1.33h1.13c0 .516.191.923.572 1.222.38.299.89.448 1.526.448.594 0 1.049-.12 1.365-.363.317-.242.475-.572.475-.99 0-.418-.146-.741-.44-.97-.292-.228-.824-.454-1.593-.677zm10.373-3.802h-2.743V414h-1.119v-7.605h-2.736v-.926h6.598v.926zm4.22 7.605c-.062-.125-.113-.348-.152-.668-.504.523-1.106.785-1.805.785-.625 0-1.138-.177-1.538-.53-.4-.354-.6-.802-.6-1.345 0-.66.25-1.173.752-1.538s1.208-.548 2.118-.548h1.055v-.498c0-.379-.113-.68-.34-.905-.226-.225-.56-.337-1.002-.337-.386 0-.71.098-.972.293-.262.195-.393.432-.393.709h-1.09c0-.316.113-.622.337-.917a2.3 2.3 0 0 1 .914-.7 3.075 3.075 0 0 1 1.269-.258c.73 0 1.303.183 1.717.548.414.365.629.868.644 1.509v2.918c0 .582.074 1.044.223 1.388V414h-1.137zm-1.799-.826c.34 0 .662-.088.967-.264.305-.176.525-.404.662-.685v-1.301h-.85c-1.328 0-1.992.388-1.992 1.166 0 .34.114.605.34.797.227.191.518.287.873.287zm9.652-2.274c0 .97-.222 1.747-.668 2.335-.445.588-1.043.882-1.793.882-.8 0-1.42-.283-1.857-.85l-.053.733h-.996v-9h1.084v3.357c.438-.543 1.041-.814 1.81-.814.77 0 1.375.291 1.814.873.44.582.66 1.379.66 2.39v.094zm-1.084-.123c0-.738-.142-1.308-.427-1.71-.286-.403-.696-.604-1.23-.604-.716 0-1.23.332-1.542.996v2.742c.332.664.85.996 1.553.996.52 0 .924-.2 1.213-.603.289-.403.433-1.008.433-1.817zm3.5 3.223h-1.084v-9h1.084v9zm4.238.117c-.86 0-1.558-.282-2.097-.846-.54-.565-.81-1.32-.81-2.265v-.2c0-.628.121-1.19.361-1.684s.576-.88 1.008-1.16c.432-.28.9-.419 1.403-.419.825 0 1.465.271 1.922.814.457.543.686 1.32.686 2.332v.452h-4.295c.016.625.198 1.13.548 1.514.35.385.794.577 1.333.577.383 0 .707-.078.972-.234.266-.156.498-.363.698-.621l.662.516c-.531.816-1.328 1.224-2.39 1.224zm-.135-5.683c-.437 0-.804.159-1.101.477-.297.318-.48.765-.55 1.339h3.175v-.082c-.031-.55-.18-.978-.445-1.28-.266-.303-.625-.454-1.079-.454z" fill="#000"/><g><path d="M73.178 451.5H14.822c-.452 0-.822-.625-.822-1.39v-75.72c0-.765.37-1.39.822-1.39h58.356c.452 0 .822.625.822 1.39v75.72c0 .765-.37 1.39-.822 1.39" fill="#FFF"/><path d="M14.822 451c-.106 0-.322-.365-.322-.89v-75.72c0-.525.216-.89.322-.89h58.356c.106 0 .322.365.322.89v75.72c0 .525-.216.89-.322.89v1c.798 0 1.322-.885 1.322-1.89v-75.72c0-1.005-.524-1.89-1.322-1.89H14.822c-.798 0-1.322.885-1.322 1.89v75.72c0 1.005.524 1.89 1.322 1.89h58.356v-1H14.822z" fill="#616161"/><path d="M26.504 410.197c-.965-.277-1.667-.618-2.107-1.022a1.954 1.954 0 0 1-.659-1.497c0-.672.269-1.228.806-1.667.537-.44 1.235-.66 2.095-.66.586 0 1.108.114 1.567.34.459.227.815.54 1.066.938.252.398.378.834.378 1.307h-1.13c0-.516-.165-.921-.493-1.216-.328-.295-.79-.443-1.388-.443-.555 0-.988.122-1.298.367-.31.244-.466.583-.466 1.016 0 .348.147.642.442.882.295.24.797.46 1.506.66.71.198 1.264.418 1.664.658.4.24.698.52.89.841.194.32.291.697.291 1.131 0 .691-.27 1.245-.809 1.661-.539.416-1.26.624-2.162.624a4.01 4.01 0 0 1-1.64-.337c-.508-.224-.9-.532-1.175-.923a2.252 2.252 0 0 1-.413-1.33h1.13c0 .516.191.923.572 1.222.38.299.89.448 1.526.448.594 0 1.05-.12 1.365-.363.317-.242.475-.572.475-.99 0-.418-.146-.741-.44-.97-.292-.228-.824-.454-1.593-.677zm6.992 0c-.965-.277-1.667-.618-2.107-1.022a1.954 1.954 0 0 1-.659-1.497c0-.672.269-1.228.806-1.667.537-.44 1.235-.66 2.095-.66.586 0 1.108.114 1.567.34.459.227.814.54 1.066.938.252.398.378.834.378 1.307h-1.13c0-.516-.165-.921-.493-1.216-.328-.295-.79-.443-1.388-.443-.555 0-.988.122-1.298.367-.31.244-.466.583-.466 1.016 0 .348.147.642.442.882.295.24.797.46 1.506.66.71.198 1.264.418 1.664.658.4.24.698.52.89.841.194.32.29.697.29 1.131 0 .691-.269 1.245-.808 1.661-.539.416-1.26.624-2.162.624a4.01 4.01 0 0 1-1.64-.337c-.508-.224-.9-.532-1.175-.923a2.252 2.252 0 0 1-.413-1.33h1.13c0 .516.191.923.572 1.222.38.299.89.448 1.526.448.594 0 1.049-.12 1.365-.363.317-.242.475-.572.475-.99 0-.418-.146-.741-.44-.97-.292-.228-.824-.454-1.593-.677zm10.373-3.802h-2.743V414h-1.119v-7.605h-2.736v-.926h6.598v.926zm4.22 7.605c-.062-.125-.113-.348-.152-.668-.504.523-1.106.785-1.805.785-.625 0-1.138-.177-1.538-.53-.4-.354-.6-.802-.6-1.345 0-.66.25-1.173.752-1.538s1.208-.548 2.118-.548h1.055v-.498c0-.379-.113-.68-.34-.905-.226-.225-.56-.337-1.002-.337-.386 0-.71.098-.972.293-.262.195-.393.432-.393.709h-1.09c0-.316.113-.622.337-.917a2.3 2.3 0 0 1 .914-.7 3.075 3.075 0 0 1 1.269-.258c.73 0 1.303.183 1.717.548.414.365.629.868.644 1.509v2.918c0 .582.074 1.044.223 1.388V414h-1.137zm-1.799-.826c.34 0 .662-.088.967-.264.305-.176.525-.404.662-.685v-1.301h-.85c-1.328 0-1.992.388-1.992 1.166 0 .34.114.605.34.797.227.191.518.287.873.287zm9.652-2.274c0 .97-.222 1.747-.668 2.335-.445.588-1.043.882-1.793.882-.8 0-1.42-.283-1.857-.85l-.053.733h-.996v-9h1.084v3.357c.438-.543 1.041-.814 1.81-.814.77 0 1.375.291 1.814.873.44.582.66 1.379.66 2.39v.094zm-1.084-.123c0-.738-.142-1.308-.427-1.71-.286-.403-.696-.604-1.23-.604-.716 0-1.23.332-1.542.996v2.742c.332.664.85.996 1.553.996.52 0 .924-.2 1.213-.603.289-.403.433-1.008.433-1.817zm3.5 3.223h-1.084v-9h1.084v9zm4.238.117c-.86 0-1.558-.282-2.097-.846-.54-.565-.81-1.32-.81-2.265v-.2c0-.628.121-1.19.361-1.684s.576-.88 1.008-1.16c.432-.28.9-.419 1.403-.419.825 0 1.465.271 1.922.814.457.543.686 1.32.686 2.332v.452h-4.295c.016.625.198 1.13.548 1.514.35.385.794.577 1.333.577.383 0 .707-.078.972-.234.266-.156.498-.363.698-.621l.662.516c-.531.816-1.328 1.224-2.39 1.224zm-.135-5.683c-.437 0-.804.159-1.101.477-.297.318-.48.765-.55 1.339h3.175v-.082c-.031-.55-.18-.978-.445-1.28-.266-.303-.625-.454-1.079-.454z" fill="#000"/></g></g><g fill="#616161"><path d="M184.5 335h-1v37h1zm-140 0h-1v37h1z"/><path d="M43.5 334.5v1h141v-1z"/><path d="M111.5 281.086h-1v90.83h1z"/><path d="M115.09 284.398l-.732.682-3.357-3.612-3.357 3.612-.733-.682L111 280z"/></g><path d="M277.66 300.519c-.097.827-.402 1.465-.916 1.914-.513.45-1.196.674-2.049.674-.924 0-1.664-.33-2.22-.993-.557-.663-.836-1.549-.836-2.659v-.752c0-.727.13-1.366.39-1.917.26-.552.627-.975 1.103-1.27.477-.296 1.028-.444 1.655-.444.83 0 1.496.232 1.998.696.501.464.793 1.105.875 1.925h-1.036c-.09-.623-.284-1.074-.583-1.353-.3-.28-.717-.42-1.254-.42-.66 0-1.176.244-1.55.731-.374.487-.561 1.18-.561 2.079v.757c0 .849.177 1.524.532 2.025.354.502.85.752 1.487.752.573 0 1.013-.13 1.319-.39.306-.259.51-.71.61-1.355h1.036zm2.331 2.481h-.993v-8.25h.993V303zm1.327-2.96c0-.569.112-1.08.336-1.536.223-.454.535-.805.934-1.052.4-.247.855-.37 1.367-.37.791 0 1.431.273 1.92.82.489.549.733 1.277.733 2.187v.07c0 .565-.108 1.073-.325 1.522-.216.45-.526.8-.929 1.05a2.569 2.569 0 0 1-1.388.376c-.788 0-1.426-.274-1.915-.821-.489-.548-.733-1.273-.733-2.176v-.07zm.999.119c0 .644.15 1.162.448 1.552.3.39.7.585 1.2.585.506 0 .907-.197 1.204-.593.297-.396.446-.95.446-1.662 0-.638-.152-1.154-.454-1.55a1.443 1.443 0 0 0-1.206-.594c-.49 0-.886.196-1.187.586-.3.39-.451.949-.451 1.676zm9.125 2.266c-.386.455-.954.682-1.702.682-.62 0-1.091-.18-1.416-.54-.324-.36-.487-.892-.491-1.597v-3.782h.994v3.755c0 .88.358 1.321 1.074 1.321.759 0 1.264-.283 1.515-.848v-4.228h.993V303h-.945l-.022-.575zm2.235-2.38c0-.89.211-1.608.634-2.15.422-.543.975-.814 1.66-.814.68 0 1.218.233 1.616.698v-3.029h.994V303h-.914l-.048-.623c-.397.487-.95.73-1.66.73-.673 0-1.221-.275-1.646-.827-.424-.551-.636-1.27-.636-2.159v-.075zm.993.114c0 .659.136 1.174.409 1.547.272.372.648.558 1.128.558.63 0 1.09-.283 1.38-.848v-2.67c-.297-.548-.754-.822-1.37-.822-.487 0-.866.188-1.138.564-.273.376-.409.933-.409 1.67zm8.331 2.841v-7.82h2.557c.848 0 1.487.175 1.914.526.428.351.642.87.642 1.558 0 .365-.104.688-.311.97a2.02 2.02 0 0 1-.849.652c.423.118.757.343 1.002.674s.368.726.368 1.184c0 .702-.228 1.253-.682 1.654-.455.401-1.098.602-1.929.602h-2.712zm1.031-3.658v2.815h1.703c.48 0 .858-.125 1.136-.374.277-.248.416-.591.416-1.028 0-.942-.512-1.413-1.536-1.413h-1.719zm0-.827h1.558c.451 0 .812-.113 1.082-.338.27-.226.406-.532.406-.919 0-.43-.126-.742-.376-.937-.251-.195-.632-.293-1.144-.293h-1.526v2.487zm6.74 4.485h-.993v-5.812h.994V303zm-1.073-7.353c0-.161.049-.297.147-.408.099-.111.245-.167.438-.167.194 0 .34.056.44.167.1.11.151.247.151.408a.57.57 0 0 1-.15.403c-.1.107-.247.16-.44.16-.194 0-.34-.053-.439-.16a.573.573 0 0 1-.147-.403zm2.427 4.399c0-.906.21-1.627.629-2.162.419-.535.974-.803 1.665-.803.709 0 1.262.25 1.66.752l.048-.645h.908v5.672c0 .752-.223 1.345-.67 1.778-.445.433-1.044.65-1.796.65-.419 0-.829-.09-1.23-.268-.4-.18-.707-.425-.918-.736l.515-.596c.427.526.948.79 1.563.79.484 0 .86-.137 1.131-.41.27-.271.406-.654.406-1.149v-.5c-.398.46-.94.688-1.628.688-.68 0-1.23-.274-1.651-.821-.421-.548-.632-1.295-.632-2.24zm1 .113c0 .655.134 1.17.402 1.544.269.374.645.561 1.128.561.627 0 1.087-.285 1.38-.854v-2.653c-.304-.555-.76-.833-1.369-.833-.483 0-.861.188-1.133.564-.272.376-.409.933-.409 1.67zm6.756-4.378v1.407h1.085v.769h-1.085v3.604c0 .232.049.407.145.523.097.117.262.175.494.175.115 0 .273-.022.473-.065V303a2.88 2.88 0 0 1-.763.107c-.444 0-.778-.134-1.004-.402-.226-.269-.338-.65-.338-1.144v-3.604h-1.058v-.769h1.058v-1.407h.993zm5.833 7.219c-.057-.115-.104-.319-.14-.612-.461.48-1.013.72-1.654.72-.573 0-1.042-.163-1.41-.487a1.573 1.573 0 0 1-.55-1.232c0-.605.23-1.075.69-1.41.46-.335 1.107-.502 1.942-.502h.967v-.457c0-.347-.104-.624-.312-.83-.208-.206-.514-.309-.918-.309-.355 0-.652.09-.892.269-.24.179-.36.396-.36.65h-.999c0-.29.103-.57.309-.84.206-.271.485-.485.838-.643.353-.157.74-.236 1.163-.236.67 0 1.194.167 1.573.502.38.335.577.796.591 1.383v2.675c0 .534.068.958.204 1.273V303h-1.042zm-1.649-.757c.312 0 .607-.08.887-.242.279-.161.481-.37.607-.628v-1.193h-.78c-1.217 0-1.825.356-1.825 1.069 0 .312.103.555.311.73.208.176.475.264.8.264zm8.965-2.084c0 .888-.204 1.601-.613 2.14-.408.539-.956.808-1.643.808-.734 0-1.302-.26-1.703-.778l-.048.671h-.913v-8.25h.993v3.078c.402-.498.955-.747 1.66-.747.706 0 1.26.267 1.663.8.402.534.604 1.264.604 2.192v.086zm-.994-.113c0-.677-.13-1.2-.392-1.568-.261-.37-.637-.554-1.128-.554-.655 0-1.126.305-1.413.913v2.514c.305.609.78.913 1.424.913.476 0 .847-.184 1.112-.553.265-.369.397-.924.397-1.665zm3.325 2.954h-.994v-8.25h.994V303zm4.001.107c-.787 0-1.428-.258-1.923-.776-.494-.517-.74-1.21-.74-2.076v-.182c0-.577.11-1.091.33-1.544a2.58 2.58 0 0 1 .923-1.064 2.323 2.323 0 0 1 1.287-.384c.755 0 1.343.249 1.761.747.42.497.629 1.21.629 2.137v.414h-3.937c.014.573.182 1.036.502 1.388.32.353.728.53 1.222.53.35 0 .648-.072.892-.215a2.24 2.24 0 0 0 .639-.57l.607.473c-.487.748-1.218 1.122-2.192 1.122zm-.123-5.21c-.401 0-.738.146-1.01.438-.272.292-.44.701-.505 1.228h2.911v-.076c-.028-.505-.164-.896-.408-1.173-.243-.278-.573-.417-.988-.417zm8.593 4.4c.355 0 .665-.108.93-.323.265-.215.411-.483.44-.806h.94c-.018.333-.132.65-.344.951-.21.3-.493.54-.846.72a2.44 2.44 0 0 1-1.12.268c-.79 0-1.42-.264-1.887-.792-.468-.528-.701-1.25-.701-2.167v-.167c0-.565.103-1.068.311-1.509.208-.44.506-.782.894-1.026.389-.243.848-.365 1.378-.365.652 0 1.193.195 1.625.586.431.39.661.896.69 1.52h-.94a1.37 1.37 0 0 0-.427-.927 1.328 1.328 0 0 0-.948-.363c-.505 0-.896.182-1.173.546-.278.363-.417.889-.417 1.576v.188c0 .67.138 1.185.414 1.547.276.362.67.542 1.181.542zm4.507.703h-.994v-8.25h.994V303zm5.178-.575c-.387.455-.955.682-1.703.682-.62 0-1.091-.18-1.415-.54-.324-.36-.488-.892-.492-1.597v-3.782h.994v3.755c0 .88.358 1.321 1.074 1.321.76 0 1.264-.283 1.515-.848v-4.228h.993V303h-.945l-.021-.575zm5.86-.967a.731.731 0 0 0-.304-.625c-.202-.149-.555-.277-1.058-.384-.503-.108-.902-.237-1.198-.387-.295-.15-.514-.33-.655-.537a1.285 1.285 0 0 1-.212-.741c0-.477.201-.88.604-1.209.403-.33.917-.494 1.544-.494.659 0 1.193.17 1.603.51.41.34.615.776.615 1.305h-.999c0-.272-.115-.506-.346-.703-.231-.197-.522-.296-.873-.296-.362 0-.644.08-.849.237a.744.744 0 0 0-.306.617c0 .24.095.421.285.543.19.122.533.238 1.029.35.496.11.897.243 1.205.397.308.153.537.339.685.555.149.217.223.481.223.793 0 .519-.208.935-.623 1.248-.415.314-.954.47-1.617.47-.465 0-.877-.082-1.235-.247a2.01 2.01 0 0 1-.84-.69 1.663 1.663 0 0 1-.304-.959h.994c.018.333.15.598.4.793.249.195.577.292.985.292.376 0 .678-.076.905-.228.228-.152.341-.355.341-.61zm3.636-5.677v1.407h1.085v.769h-1.085v3.604c0 .232.048.407.145.523.096.117.261.175.494.175.114 0 .272-.022.472-.065V303a2.88 2.88 0 0 1-.762.107c-.444 0-.779-.134-1.005-.402-.225-.269-.338-.65-.338-1.144v-3.604h-1.058v-.769h1.058v-1.407h.994zm4.656 7.326c-.787 0-1.428-.258-1.922-.776-.495-.517-.742-1.21-.742-2.076v-.182c0-.577.11-1.091.33-1.544.22-.453.529-.808.924-1.064a2.323 2.323 0 0 1 1.287-.384c.755 0 1.343.249 1.762.747.419.497.628 1.21.628 2.137v.414H370c.014.573.182 1.036.502 1.388.32.353.728.53 1.222.53.351 0 .648-.072.892-.215a2.24 2.24 0 0 0 .639-.57l.607.473c-.487.748-1.218 1.122-2.192 1.122zm-.123-5.21c-.401 0-.738.146-1.01.438-.272.292-.44.701-.505 1.228h2.911v-.076c-.028-.505-.164-.896-.408-1.173-.243-.278-.573-.417-.988-.417zm6.349.183a2.978 2.978 0 0 0-.49-.038c-.651 0-1.093.278-1.326.833V303h-.994v-5.812h.967l.016.672c.326-.52.788-.779 1.386-.779.193 0 .34.025.44.075v.924z" fill="#757575"/><path d="M269.695 108.232h-3.58V112h-1.125v-8.531h5.285v.926h-4.16v2.918h3.58v.92zm4.67-1.6a3.248 3.248 0 0 0-.533-.04c-.71 0-1.193.303-1.447.908v4.5H271.3v-6.34h1.054l.018.733c.356-.567.86-.85 1.512-.85.21 0 .37.027.48.082v1.008zm.592 2.14c0-.622.122-1.18.366-1.676a2.732 2.732 0 0 1 1.02-1.149c.435-.27.932-.404 1.491-.404.863 0 1.562.299 2.095.896.533.598.8 1.393.8 2.385v.076c0 .618-.119 1.171-.355 1.662-.236.49-.574.872-1.014 1.145a2.81 2.81 0 0 1-1.514.41c-.86 0-1.556-.299-2.09-.896-.532-.598-.799-1.389-.799-2.373v-.077zm1.09.128c0 .704.163 1.268.49 1.694.325.426.762.638 1.309.638.55 0 .988-.215 1.312-.647.324-.432.487-1.036.487-1.814 0-.695-.166-1.258-.496-1.69a1.574 1.574 0 0 0-1.315-.647c-.535 0-.967.212-1.295.638-.328.426-.492 1.035-.492 1.828zm7.066-3.24l.035.797c.485-.61 1.118-.914 1.899-.914 1.34 0 2.015.756 2.027 2.268V112h-1.084v-4.195c-.004-.457-.108-.795-.313-1.014-.205-.219-.525-.328-.958-.328-.352 0-.66.094-.926.281a1.91 1.91 0 0 0-.621.738V112h-1.084v-6.34h1.025zm7.067-1.535v1.535h1.183v.838h-1.183v3.932c0 .254.052.444.158.571.105.127.285.19.539.19.125 0 .297-.023.516-.07V112a3.143 3.143 0 0 1-.832.117c-.485 0-.85-.146-1.096-.44-.246-.292-.37-.708-.37-1.247v-3.932h-1.154v-.838h1.155v-1.535h1.084zm4.705 4.693h-2.86v-.884h2.86v.884zm3.685 3.3c-.86 0-1.558-.283-2.097-.847-.54-.565-.809-1.32-.809-2.265v-.2c0-.628.12-1.19.36-1.684s.577-.88 1.008-1.16c.432-.28.9-.419 1.404-.419.824 0 1.464.271 1.921.814.457.543.686 1.32.686 2.332v.452h-4.295c.016.625.198 1.13.548 1.514.35.385.794.577 1.333.577.383 0 .707-.078.973-.234.265-.156.498-.363.697-.621l.662.516c-.531.816-1.328 1.224-2.39 1.224zm-.134-5.684c-.438 0-.805.159-1.102.477-.297.318-.48.765-.55 1.339h3.175v-.082c-.031-.55-.18-.978-.445-1.28-.266-.303-.625-.454-1.078-.454zm4.886-.774l.035.797c.485-.61 1.118-.914 1.899-.914 1.34 0 2.015.756 2.027 2.268V112H306.2v-4.195c-.004-.457-.108-.795-.313-1.014-.205-.219-.525-.328-.958-.328-.352 0-.66.094-.926.281a1.91 1.91 0 0 0-.621.738V112h-1.084v-6.34h1.025zm5.332 3.117c0-.972.23-1.755.692-2.346.46-.592 1.064-.888 1.81-.888.742 0 1.33.254 1.764.762V103h1.084v9h-.996l-.053-.68c-.434.532-1.037.797-1.81.797-.735 0-1.333-.3-1.796-.902-.463-.602-.695-1.387-.695-2.356v-.082zm1.084.123c0 .72.149 1.282.446 1.688.296.406.707.61 1.23.61.688 0 1.19-.31 1.506-.927v-2.912c-.324-.597-.822-.896-1.494-.896-.531 0-.946.205-1.242.615-.297.41-.446 1.018-.446 1.822zm12.61 1.418c0-.293-.11-.52-.331-.682-.221-.162-.606-.302-1.155-.42-.549-.116-.984-.257-1.306-.421-.323-.164-.56-.36-.715-.586a1.402 1.402 0 0 1-.232-.809c0-.52.22-.959.66-1.318.439-.36 1-.539 1.684-.539.719 0 1.302.186 1.75.557.446.37.67.845.67 1.423h-1.09c0-.296-.126-.552-.378-.767-.252-.215-.57-.322-.952-.322-.394 0-.703.086-.926.257a.812.812 0 0 0-.334.674c0 .262.104.46.31.592.208.133.582.26 1.123.38.541.122.98.267 1.315.434.336.168.585.37.747.607.163.236.244.524.244.864 0 .567-.227 1.02-.68 1.362-.453.342-1.041.513-1.764.513-.508 0-.957-.09-1.347-.27a2.18 2.18 0 0 1-.917-.752 1.815 1.815 0 0 1-.331-1.046h1.084c.02.363.165.651.436.864.272.213.63.32 1.075.32.41 0 .74-.084.988-.25.248-.166.372-.387.372-.665zm5.127 1.8c-.86 0-1.559-.283-2.098-.847-.54-.565-.809-1.32-.809-2.265v-.2c0-.628.12-1.19.36-1.684s.577-.88 1.009-1.16c.431-.28.899-.419 1.403-.419.824 0 1.465.271 1.922.814.457.543.685 1.32.685 2.332v.452h-4.295c.016.625.199 1.13.548 1.514.35.385.794.577 1.333.577.383 0 .707-.078.973-.234.265-.156.498-.363.697-.621l.662.516c-.531.816-1.328 1.224-2.39 1.224zm-.135-5.684c-.438 0-.805.159-1.102.477-.297.318-.48.765-.55 1.339h3.175v-.082c-.031-.55-.18-.978-.445-1.28-.266-.303-.625-.454-1.078-.454zm6.926.199a3.248 3.248 0 0 0-.534-.041c-.71 0-1.193.303-1.447.908v4.5h-1.084v-6.34h1.055l.017.733c.356-.567.86-.85 1.512-.85.211 0 .371.027.48.082v1.008zm3.193 3.896l1.57-4.869h1.108l-2.274 6.34h-.826l-2.297-6.34h1.108l1.611 4.87zm6.275 1.588c-.859 0-1.558-.282-2.097-.846-.54-.565-.809-1.32-.809-2.265v-.2c0-.628.12-1.19.36-1.684s.577-.88 1.008-1.16c.432-.28.9-.419 1.404-.419.824 0 1.464.271 1.921.814.458.543.686 1.32.686 2.332v.452h-4.295c.016.625.198 1.13.548 1.514.35.385.794.577 1.333.577.383 0 .707-.078.973-.234.265-.156.498-.363.697-.621l.662.516c-.531.816-1.328 1.224-2.39 1.224zm-.134-5.683c-.438 0-.805.159-1.102.477-.297.318-.48.765-.55 1.339h3.175v-.082c-.031-.55-.18-.978-.445-1.28-.266-.303-.625-.454-1.078-.454zm6.925.199a3.248 3.248 0 0 0-.533-.041c-.71 0-1.193.303-1.447.908v4.5h-1.084v-6.34h1.055l.017.733c.356-.567.86-.85 1.512-.85.21 0 .371.027.48.082v1.008zm9.323 2.267c0 .965-.221 1.743-.662 2.332-.442.59-1.04.885-1.793.885-.77 0-1.375-.244-1.817-.732v3.052h-1.084v-8.777h.99l.053.703c.442-.547 1.055-.82 1.84-.82.762 0 1.364.287 1.808.861.443.575.665 1.373.665 2.397v.1zm-1.084-.123c0-.715-.153-1.279-.457-1.693-.305-.414-.723-.621-1.254-.621-.657 0-1.149.29-1.477.873v3.03c.324.577.82.866 1.488.866.52 0 .933-.206 1.24-.618.306-.412.46-1.024.46-1.837zm2.173-.006c0-.62.123-1.18.367-1.675a2.732 2.732 0 0 1 1.02-1.149c.435-.27.932-.404 1.49-.404.864 0 1.562.299 2.095.896.533.598.8 1.393.8 2.385v.076c0 .618-.118 1.171-.355 1.662-.236.49-.574.872-1.013 1.145-.44.273-.945.41-1.515.41-.86 0-1.555-.299-2.089-.896-.533-.598-.8-1.389-.8-2.373v-.077zm1.09.13c0 .703.163 1.267.49 1.693.326.426.762.638 1.31.638.55 0 .987-.215 1.312-.647.324-.432.486-1.036.486-1.814 0-.695-.165-1.258-.495-1.69a1.574 1.574 0 0 0-1.316-.647c-.535 0-.966.212-1.294.638-.329.426-.493 1.035-.493 1.828zm5.754-.13c0-.62.122-1.18.366-1.675a2.732 2.732 0 0 1 1.02-1.149c.436-.27.933-.404 1.491-.404.863 0 1.562.299 2.095.896.533.598.8 1.393.8 2.385v.076c0 .618-.118 1.171-.355 1.662-.236.49-.574.872-1.013 1.145-.44.273-.945.41-1.515.41-.86 0-1.556-.299-2.089-.896-.533-.598-.8-1.389-.8-2.373v-.077zm1.09.13c0 .703.163 1.267.49 1.693.326.426.762.638 1.309.638.55 0 .988-.215 1.312-.647.325-.432.487-1.036.487-1.814 0-.695-.165-1.258-.495-1.69a1.574 1.574 0 0 0-1.316-.647c-.535 0-.967.212-1.295.638-.328.426-.492 1.035-.492 1.828zM376.09 112h-1.084v-9h1.084v9z" fill="#000"/><g><g fill="#616161"><path d="M111.5 54.084h-1v25.831h1z"/><path d="M115.09 76.602l-.732-.682L111 79.532l-3.357-3.612-.733.682L111 81zm0-19.204l-.732.682L111 54.468l-3.357 3.612-.733-.682L111 53z"/></g><path d="M24.48 48.422c-.014-.007.02.03.02.151V1.427c0 .12-.034.158-.02.151.1-.047.259-.078.434-.078H196.72c.175 0 .334.031.434.078.014.007-.02-.03-.02-.151v47.146c0-.12.034-.158.02-.151-.1.047-.259.078-.434.078H24.914c-.175 0-.334-.031-.434-.078zM196.721 49.5c.746 0 1.414-.312 1.414-.927V1.427c0-.615-.668-.927-1.414-.927H24.914c-.746 0-1.414.312-1.414.927v47.146c0 .615.668.927 1.414.927H196.72z" fill="#616161"/><path d="M102.266 26.293c-.106.902-.439 1.599-1 2.089-.56.49-1.305.735-2.235.735-1.008 0-1.815-.361-2.423-1.084-.607-.722-.91-1.69-.91-2.9v-.82c0-.793.14-1.49.424-2.092.283-.602.685-1.064 1.204-1.386.52-.322 1.121-.483 1.805-.483.906 0 1.633.252 2.18.758.546.506.865 1.206.955 2.1h-1.131c-.098-.679-.31-1.17-.636-1.476-.326-.304-.782-.457-1.368-.457-.719 0-1.282.266-1.69.797-.409.531-.613 1.287-.613 2.268v.826c0 .926.193 1.662.58 2.209.387.547.928.82 1.623.82.625 0 1.105-.141 1.439-.425.334-.283.555-.776.665-1.479h1.13zM104.809 29h-1.084v-9h1.084v9zm2.912 0h-1.084v-6.34h1.084V29zm-1.172-8.021a.65.65 0 0 1 .161-.446c.107-.12.267-.181.478-.181.21 0 .37.06.48.181a.64.64 0 0 1 .164.446.62.62 0 0 1-.164.439c-.11.117-.27.176-.48.176-.211 0-.37-.059-.478-.176a.626.626 0 0 1-.161-.44zm5.537 8.138c-.86 0-1.559-.282-2.098-.846-.539-.565-.808-1.32-.808-2.265v-.2c0-.628.12-1.19.36-1.684s.576-.88 1.008-1.16c.431-.28.9-.419 1.403-.419.824 0 1.465.271 1.922.814.457.543.686 1.32.686 2.332v.452h-4.295c.015.625.198 1.13.548 1.514.35.385.793.577 1.333.577.382 0 .707-.078.972-.234.266-.156.498-.363.697-.621l.663.516c-.532.816-1.329 1.224-2.391 1.224zm-.135-5.683c-.437 0-.805.159-1.101.477-.297.318-.48.765-.551 1.339h3.176v-.082c-.032-.55-.18-.978-.446-1.28-.265-.303-.625-.454-1.078-.454zm4.887-.774l.035.797c.484-.61 1.117-.914 1.898-.914 1.34 0 2.016.756 2.028 2.268V29h-1.084v-4.195c-.004-.457-.109-.795-.314-1.014-.205-.219-.524-.328-.958-.328-.351 0-.66.094-.925.281a1.91 1.91 0 0 0-.622.738V29h-1.084v-6.34h1.026zm7.066-1.535v1.535h1.184v.838h-1.184v3.932c0 .254.053.444.159.571.105.127.285.19.539.19.125 0 .296-.023.515-.07V29a3.143 3.143 0 0 1-.832.117c-.484 0-.85-.146-1.096-.44-.246-.292-.369-.708-.369-1.247v-3.932h-1.154v-.838h1.154v-1.535h1.084z" fill="#000"/><path d="M235.48 48.422c-.014-.007.02.03.02.151V1.427c0 .12-.034.158-.02.151.1-.047.259-.078.434-.078H407.72c.175 0 .334.031.434.078.014.007-.02-.03-.02-.151v47.146c0-.12.034-.158.02-.151-.1.047-.259.078-.434.078H235.914c-.175 0-.334-.031-.434-.078zM407.721 49.5c.746 0 1.414-.312 1.414-.927V1.427c0-.615-.668-.927-1.414-.927H235.914c-.746 0-1.414.312-1.414.927v47.146c0 .615.668.927 1.414.927H407.72z" fill="#616161"/><path d="M314.266 26.293c-.106.902-.439 1.599-1 2.089-.56.49-1.305.735-2.235.735-1.008 0-1.815-.361-2.423-1.084-.607-.722-.91-1.69-.91-2.9v-.82c0-.793.14-1.49.424-2.092.283-.602.685-1.064 1.204-1.386.52-.322 1.121-.483 1.805-.483.906 0 1.633.252 2.18.758.546.506.865 1.206.955 2.1h-1.131c-.098-.679-.31-1.17-.636-1.476-.326-.304-.782-.457-1.368-.457-.719 0-1.282.266-1.69.797-.409.531-.613 1.287-.613 2.268v.826c0 .926.193 1.662.58 2.209.387.547.928.82 1.623.82.625 0 1.105-.141 1.439-.425.334-.283.555-.776.665-1.479h1.13zM316.809 29h-1.084v-9h1.084v9zm2.912 0h-1.084v-6.34h1.084V29zm-1.172-8.021a.65.65 0 0 1 .161-.446c.107-.12.267-.181.478-.181.21 0 .37.06.48.181a.64.64 0 0 1 .164.446.62.62 0 0 1-.164.439c-.11.117-.27.176-.48.176-.211 0-.37-.059-.478-.176a.626.626 0 0 1-.161-.44zm5.537 8.138c-.86 0-1.559-.282-2.098-.846-.539-.565-.808-1.32-.808-2.265v-.2c0-.628.12-1.19.36-1.684s.576-.88 1.008-1.16c.431-.28.9-.419 1.403-.419.824 0 1.465.271 1.922.814.457.543.686 1.32.686 2.332v.452h-4.295c.015.625.198 1.13.548 1.514.35.385.793.577 1.333.577.382 0 .707-.078.972-.234.266-.156.498-.363.697-.621l.663.516c-.532.816-1.329 1.224-2.391 1.224zm-.135-5.683c-.437 0-.805.159-1.101.477-.297.318-.48.765-.551 1.339h3.176v-.082c-.032-.55-.18-.978-.446-1.28-.265-.303-.625-.454-1.078-.454zm4.887-.774l.035.797c.484-.61 1.117-.914 1.898-.914 1.34 0 2.016.756 2.028 2.268V29h-1.084v-4.195c-.004-.457-.109-.795-.314-1.014-.205-.219-.524-.328-.958-.328-.351 0-.66.094-.925.281a1.91 1.91 0 0 0-.622.738V29h-1.084v-6.34h1.026zm7.066-1.535v1.535h1.184v.838h-1.184v3.932c0 .254.053.444.159.571.105.127.285.19.539.19.125 0 .296-.023.515-.07V29a3.143 3.143 0 0 1-.832.117c-.484 0-.85-.146-1.096-.44-.246-.292-.369-.708-.369-1.247v-3.932h-1.154v-.838h1.154v-1.535h1.084z" fill="#000"/><g fill="#616161"><path d="M538.5 54.084h-1v25.831h1z"/><path d="M542.09 76.602l-.732-.682L538 79.532l-3.357-3.612-.733.682L538 81zm0-19.204l-.732.682L538 54.468l-3.357 3.612-.733-.682L538 53z"/></g><path d="M451.48 48.422c-.014-.007.02.03.02.151V1.427c0 .12-.034.158-.02.151.1-.047.259-.078.434-.078H623.72c.175 0 .334.031.434.078.014.007-.02-.03-.02-.151v47.146c0-.12.034-.158.02-.151-.1.047-.259.078-.434.078H451.914c-.175 0-.334-.031-.434-.078zM623.721 49.5c.746 0 1.414-.312 1.414-.927V1.427c0-.615-.668-.927-1.414-.927H451.914c-.746 0-1.414.312-1.414.927v47.146c0 .615.668.927 1.414.927H623.72z" fill="#616161"/><path d="M529.266 26.293c-.106.902-.439 1.599-1 2.089-.56.49-1.305.735-2.235.735-1.008 0-1.815-.361-2.423-1.084-.607-.722-.91-1.69-.91-2.9v-.82c0-.793.14-1.49.424-2.092.283-.602.685-1.064 1.204-1.386.52-.322 1.121-.483 1.805-.483.906 0 1.633.252 2.18.758.546.506.865 1.206.955 2.1h-1.131c-.098-.679-.31-1.17-.636-1.476-.326-.304-.782-.457-1.368-.457-.719 0-1.282.266-1.69.797-.409.531-.613 1.287-.613 2.268v.826c0 .926.193 1.662.58 2.209.387.547.928.82 1.623.82.625 0 1.105-.141 1.439-.425.334-.283.555-.776.665-1.479h1.13zM531.809 29h-1.084v-9h1.084v9zm2.912 0h-1.084v-6.34h1.084V29zm-1.172-8.021a.65.65 0 0 1 .161-.446c.107-.12.267-.181.477-.181.211 0 .372.06.481.181a.64.64 0 0 1 .164.446.62.62 0 0 1-.164.439c-.11.117-.27.176-.48.176-.211 0-.37-.059-.478-.176a.626.626 0 0 1-.161-.44zm5.537 8.138c-.86 0-1.559-.282-2.098-.846-.539-.565-.808-1.32-.808-2.265v-.2c0-.628.12-1.19.36-1.684s.576-.88 1.008-1.16c.431-.28.9-.419 1.403-.419.824 0 1.465.271 1.922.814.457.543.686 1.32.686 2.332v.452h-4.295c.015.625.198 1.13.548 1.514.35.385.793.577 1.333.577.382 0 .707-.078.972-.234.266-.156.498-.363.697-.621l.663.516c-.532.816-1.329 1.224-2.391 1.224zm-.135-5.683c-.437 0-.805.159-1.101.477-.297.318-.48.765-.551 1.339h3.176v-.082c-.032-.55-.18-.978-.446-1.28-.265-.303-.625-.454-1.078-.454zm4.887-.774l.035.797c.484-.61 1.117-.914 1.898-.914 1.34 0 2.016.756 2.028 2.268V29h-1.084v-4.195c-.004-.457-.109-.795-.314-1.014-.205-.219-.524-.328-.958-.328-.351 0-.66.094-.925.281a1.91 1.91 0 0 0-.622.738V29h-1.083v-6.34h1.025zm7.066-1.535v1.535h1.184v.838h-1.184v3.932c0 .254.053.444.159.571.105.127.285.19.539.19.125 0 .296-.023.515-.07V29a3.143 3.143 0 0 1-.832.117c-.484 0-.85-.146-1.096-.44-.246-.292-.369-.708-.369-1.247v-3.932h-1.154v-.838h1.154v-1.535h1.084z" fill="#000"/></g><g fill="#616161"><path d="M323.5 54.084h-1v25.831h1z"/><path d="M327.09 76.602l-.732-.682L323 79.532l-3.357-3.612-.733.682L323 81zm0-19.204l-.732.682L323 54.468l-3.357 3.612-.733-.682L323 53z"/></g><path d="M636.245 509h-195.49c-1.515 0-2.755-.382-2.755-.85v-46.3c0-.468 1.24-.85 2.755-.85h195.49c1.515 0 2.755.382 2.755.85v46.3c0 .468-1.24.85-2.755.85" fill="#B3E5FC"/><path d="M440.755 508.5c-.69 0-1.335-.085-1.798-.227-.32-.1-.457-.198-.457-.123v-46.3c0 .075.136-.024.457-.123.463-.142 1.108-.227 1.798-.227h195.49c.69 0 1.335.085 1.798.227.32.1.457.198.457.123v46.3c0-.075-.136.024-.457.123-.463.142-1.108.227-1.798.227v1c1.803 0 3.255-.448 3.255-1.35v-46.3c0-.902-1.452-1.35-3.255-1.35h-195.49c-1.803 0-3.255.448-3.255 1.35v46.3c0 .902 1.452 1.35 3.255 1.35h195.49v-1h-195.49z" fill="#FFF"/><path d="M511.504 484.197c-.965-.277-1.667-.618-2.107-1.022a1.954 1.954 0 0 1-.659-1.497c0-.672.269-1.228.806-1.667.537-.44 1.235-.66 2.095-.66.586 0 1.108.114 1.567.34.459.227.815.54 1.066.938.252.398.378.834.378 1.307h-1.13c0-.516-.165-.921-.493-1.216-.328-.295-.79-.443-1.388-.443-.555 0-.988.122-1.298.367-.31.244-.466.583-.466 1.016 0 .348.147.642.442.882.295.24.797.46 1.506.66.71.198 1.264.418 1.664.658.4.24.698.52.89.841.194.32.291.697.291 1.131 0 .691-.27 1.245-.809 1.661-.539.416-1.26.624-2.162.624a4.01 4.01 0 0 1-1.64-.337c-.508-.224-.9-.532-1.175-.923a2.252 2.252 0 0 1-.413-1.33h1.13c0 .516.191.923.572 1.222.38.299.89.448 1.526.448.594 0 1.05-.12 1.365-.363.317-.242.475-.572.475-.99 0-.418-.146-.741-.44-.97-.292-.228-.824-.454-1.593-.677zm5.52-1.77c.48-.59 1.105-.884 1.874-.884 1.34 0 2.016.756 2.028 2.268V488h-1.084v-4.195c-.004-.457-.109-.795-.314-1.014-.205-.219-.524-.328-.958-.328-.351 0-.66.094-.925.281a1.91 1.91 0 0 0-.622.738V488h-1.084v-9h1.084v3.428zm9.439 5.573c-.063-.125-.113-.348-.152-.668-.504.523-1.106.785-1.805.785-.625 0-1.138-.177-1.538-.53-.4-.354-.6-.802-.6-1.345 0-.66.25-1.173.752-1.538s1.208-.548 2.118-.548h1.055v-.498c0-.379-.113-.68-.34-.905-.226-.225-.56-.337-1.002-.337-.387 0-.71.098-.972.293-.262.195-.393.432-.393.709h-1.09c0-.316.112-.622.337-.917a2.3 2.3 0 0 1 .914-.7 3.075 3.075 0 0 1 1.269-.258c.73 0 1.302.183 1.716.548.414.365.63.868.645 1.509v2.918c0 .582.074 1.044.223 1.388V488h-1.137zm-1.799-.826c.34 0 .662-.088.967-.264.305-.176.525-.404.662-.685v-1.301h-.85c-1.328 0-1.992.388-1.992 1.166 0 .34.113.605.34.797.227.191.518.287.873.287zm7.477-4.541a3.248 3.248 0 0 0-.534-.041c-.71 0-1.193.303-1.447.908v4.5h-1.084v-6.34h1.055l.017.733c.356-.567.86-.85 1.512-.85.211 0 .371.027.48.082v1.008zm3.515 5.484c-.86 0-1.558-.282-2.097-.846-.54-.565-.809-1.32-.809-2.265v-.2c0-.628.12-1.19.36-1.684s.577-.88 1.008-1.16c.432-.28.9-.419 1.403-.419.825 0 1.465.271 1.922.814.457.543.686 1.32.686 2.332v.452h-4.295c.016.625.198 1.13.548 1.514.35.385.794.577 1.333.577.383 0 .707-.078.972-.234.266-.156.499-.363.698-.621l.662.516c-.531.816-1.328 1.224-2.39 1.224zm-.135-5.683c-.437 0-.804.159-1.101.477-.297.318-.48.765-.55 1.339h3.175v-.082c-.031-.55-.18-.978-.445-1.28-.266-.303-.625-.454-1.079-.454zm3.598 2.343c0-.972.23-1.755.692-2.346.46-.592 1.064-.888 1.81-.888.742 0 1.33.254 1.764.762V479h1.084v9h-.996l-.053-.68c-.434.532-1.037.797-1.81.797-.735 0-1.334-.3-1.797-.902-.462-.602-.694-1.387-.694-2.356v-.082zm1.084.123c0 .72.149 1.282.445 1.688.297.406.707.61 1.23.61.688 0 1.19-.31 1.507-.927v-2.912c-.324-.597-.822-.896-1.494-.896-.532 0-.946.205-1.243.615-.296.41-.445 1.018-.445 1.822zm10.219 2.18h4.043v.92h-5.174v-8.531h1.13v7.611zm4.869-2.309c0-.62.122-1.18.366-1.675a2.732 2.732 0 0 1 1.02-1.149c.435-.27.932-.404 1.491-.404.863 0 1.561.299 2.095.896.533.598.8 1.393.8 2.385v.076c0 .618-.119 1.171-.355 1.662-.236.49-.574.872-1.014 1.145a2.81 2.81 0 0 1-1.514.41c-.86 0-1.556-.299-2.09-.896-.532-.598-.799-1.389-.799-2.373v-.077zm1.09.13c0 .703.163 1.267.49 1.693.325.426.762.638 1.309.638.55 0 .988-.215 1.312-.647.324-.432.487-1.036.487-1.814 0-.695-.166-1.258-.496-1.69a1.574 1.574 0 0 0-1.315-.647c-.535 0-.967.212-1.295.638-.328.426-.492 1.035-.492 1.828zm5.783-.124c0-.988.229-1.774.686-2.358.457-.584 1.062-.876 1.816-.876.773 0 1.377.273 1.81.82l.053-.703h.99v6.188c0 .82-.243 1.466-.729 1.94-.486.472-1.14.708-1.96.708a3.26 3.26 0 0 1-1.342-.293c-.437-.195-.771-.463-1.002-.803l.563-.65c.465.574 1.033.861 1.705.861.527 0 .938-.148 1.233-.445.295-.297.443-.715.443-1.254v-.545c-.434.5-1.026.75-1.776.75-.742 0-1.342-.299-1.801-.896-.46-.598-.689-1.412-.689-2.444zm1.09.123c0 .715.146 1.277.44 1.685.292.408.702.612 1.23.612.683 0 1.185-.31 1.506-.931v-2.895c-.332-.605-.83-.908-1.494-.908-.528 0-.94.205-1.237.615-.297.41-.445 1.018-.445 1.822z" fill="#000"/></g></svg>