<?xml version="1.0" standalone="no"?><!DOCTYPE svg PUBLIC "-//W3C//DTD SVG 1.1//EN" "http://www.w3.org/Graphics/SVG/1.1/DTD/svg11.dtd"><svg t="1698417738212" class="icon" viewBox="0 0 1024 1024" version="1.1" xmlns="http://www.w3.org/2000/svg" p-id="7845" xmlns:xlink="http://www.w3.org/1999/xlink" width="200" height="200"><path d="M197.888 60.245333h500.352a42.666667 42.666667 0 0 1 30.293333 12.629334l135.509334 136.362666a42.666667 42.666667 0 0 1 12.373333 30.08V917.333333a42.666667 42.666667 0 0 1-42.666667 42.666667H197.930667a42.666667 42.666667 0 0 1-42.666667-42.666667V102.912a42.666667 42.666667 0 0 1 42.666667-42.666667z" fill="#FFFFFF" p-id="7846"></path><path d="M685.781333 85.333333H170.666667v853.333334h682.666666V255.829333h-103.552a64 64 0 0 1-64-64V85.333333z m42.666667 10.666667v95.829333a21.333333 21.333333 0 0 0 21.333333 21.333334H844.8L728.448 96zM170.666667 42.666667h547.157333a42.666667 42.666667 0 0 1 30.250667 12.586666l135.509333 136.405334a42.666667 42.666667 0 0 1 12.416 30.08V938.666667a42.666667 42.666667 0 0 1-42.666667 42.666666H170.666667a42.666667 42.666667 0 0 1-42.666667-42.666666V85.333333a42.666667 42.666667 0 0 1 42.666667-42.666666z" fill="#5D6D7E" p-id="7847"></path><path d="M682.666667 426.666667h-42.666667V384H384v170.666667h42.666667v42.666666H384a42.666667 42.666667 0 0 1-42.666667-42.666666V384a42.666667 42.666667 0 0 1 42.666667-42.666667h256a42.666667 42.666667 0 0 1 42.666667 42.666667v42.666667z" fill="#2FAF9A" p-id="7848"></path><path d="M469.333333 426.666667h256a42.666667 42.666667 0 0 1 42.666667 42.666666v128h-341.333333v-128a42.666667 42.666667 0 0 1 42.666666-42.666666z" fill="#EF633F" p-id="7849"></path><path d="M128 469.333333v85.333334H42.666667l85.333333-85.333334z m768 0l85.333333 85.333334h-85.333333v-85.333334z" fill="#1582B8" p-id="7850"></path><path d="M597.333333 341.333333h-42.666666V298.666667H298.666667v170.666666h42.666666v42.666667H298.666667a42.666667 42.666667 0 0 1-42.666667-42.666667V298.666667a42.666667 42.666667 0 0 1 42.666667-42.666667h256a42.666667 42.666667 0 0 1 42.666666 42.666667v42.666666zM42.666667 554.666667h938.666666v341.333333H42.666667v-341.333333z m148.181333 265.130666h40.106667v-74.922666h26.112c18.133333 0 32-0.938667 41.557333-2.816 7.04-1.536 13.994667-4.693333 20.778667-9.386667 6.826667-4.778667 12.458667-11.306667 16.896-19.626667 4.394667-8.277333 6.613333-18.517333 6.613333-30.72 0-15.786667-3.84-28.672-11.52-38.656a52.053333 52.053333 0 0 0-28.586667-19.413333c-7.381333-2.005333-23.253333-2.986667-47.658666-2.986667H190.848v198.528z m40.106667-164.949333h19.328c14.464 0 24.064 0.426667 28.842666 1.365333a27.733333 27.733333 0 0 1 16.128 8.789334c4.266667 4.693333 6.4 10.666667 6.4 17.877333a26.666667 26.666667 0 0 1-4.565333 15.445333 26.325333 26.325333 0 0 1-12.544 9.728c-5.333333 2.090667-15.872 3.114667-31.658667 3.114667h-21.973333v-56.32z m237.226666 91.946667h45.909334v25.173333c-6.058667 4.693333-13.312 8.704-21.76 11.989333a69.034667 69.034667 0 0 1-25.216 4.949334c-16.981333 0-30.72-5.888-41.173334-17.664-10.496-11.776-15.701333-29.44-15.701333-53.034667 0-21.845333 5.12-38.314667 15.488-49.408 10.325333-11.093333 24.277333-16.64 41.770667-16.64 11.52 0 21.205333 2.816 28.928 8.448 7.68 5.632 12.970667 13.312 15.786666 23.04l39.765334-7.424a70.016 70.016 0 0 0-26.709334-42.837333c-13.866667-10.325333-33.109333-15.530667-57.770666-15.530667-18.944 0-34.816 3.328-47.530667 9.898667-16.682667 8.576-29.397333 20.906667-38.058667 36.992a114.261333 114.261333 0 0 0-13.013333 55.082666c0 19.072 3.882667 36.693333 11.648 52.906667 7.765333 16.213333 19.370667 28.672 34.816 37.376 15.445333 8.704 33.536 13.056 54.314667 13.056 16.341333 0 32.469333-3.072 48.384-9.258667 15.957333-6.186667 28.117333-13.354667 36.522666-21.461333v-79.104h-86.4v33.450667z m122.154667 72.96h40.106667v-198.485334h-40.106667v198.528z m68.096-64.554667c2.602667 22.186667 10.666667 39.082667 24.106667 50.688 13.44 11.605333 32.725333 17.408 57.813333 17.408 17.237333 0 31.658667-2.389333 43.221333-7.253333a58.453333 58.453333 0 0 0 36.266667-54.101334c0-12.544-2.645333-23.04-7.893333-31.573333a55.765333 55.765333 0 0 0-21.930667-20.224c-9.386667-4.906667-23.808-9.685333-43.306667-14.250667-19.498667-4.608-31.744-9.045333-36.821333-13.269333a15.232 15.232 0 0 1-5.973333-12.074667c0-5.12 2.133333-9.258667 6.4-12.330666 6.570667-4.778667 15.701333-7.168 27.306666-7.168 11.306667 0 19.797333 2.218667 25.429334 6.698666 5.632 4.48 9.301333 11.818667 11.050666 22.016l40.064-1.749333c-0.64-18.261333-7.253333-32.853333-19.84-43.776-12.586667-10.922667-31.36-16.384-56.277333-16.384-15.232 0-28.245333 2.304-39.04 6.912a53.845333 53.845333 0 0 0-24.789333 20.138667 51.029333 51.029333 0 0 0-8.618667 28.373333c0 15.701333 6.101333 29.013333 18.304 39.936 8.661333 7.765333 23.722667 14.293333 45.226667 19.626667 16.682667 4.138667 27.392 7.04 32.085333 8.661333 6.826667 2.432 11.690667 5.290667 14.421333 8.618667 2.773333 3.285333 4.138667 7.253333 4.138667 11.946666 0 7.338667-3.285333 13.738667-9.813333 19.2-6.570667 5.461333-16.298667 8.192-29.184 8.192-12.202667 0-21.888-3.072-29.056-9.216-7.168-6.144-11.946667-15.786667-14.293334-28.842666l-38.997333 3.797333z" fill="#3B97D3" p-id="7851"></path></svg>