<?xml version="1.0" encoding="UTF-8" standalone="no"?>
<svg
   version="1.1"
   viewBox="565 443 747 221"
   width="747"
   height="221"
   id="svg1306905"
   xmlns="http://www.w3.org/2000/svg"
   xmlns:svg="http://www.w3.org/2000/svg"
   xmlns:dc="http://purl.org/dc/elements/1.1/">
  <defs
     id="defs1306688">
    <clipPath
       id="inner_stroke_clip_path">
      <path
         d="M 565 443 L 693.2 443 L 693.2 499 L 565 499 Z"
         id="path1306601" />
    </clipPath>
    <clipPath
       id="inner_stroke_clip_path_2">
      <path
         d="M 692.2 443 L 948 443 L 948 499 L 692.2 499 Z"
         id="path1306604" />
    </clipPath>
    <clipPath
       id="inner_stroke_clip_path_3">
      <path
         d="M 946.6 443 L 1202 443 L 1202 499 L 946.6 499 Z"
         id="path1306609" />
    </clipPath>
    <clipPath
       id="inner_stroke_clip_path_4">
      <path
         d="M 565 498 L 693.2 498 L 693.2 554 L 565 554 Z"
         id="path1306612" />
    </clipPath>
    <clipPath
       id="inner_stroke_clip_path_5">
      <path
         d="M 692.2 498 L 820.4 498 L 820.4 554 L 692.2 554 Z"
         id="path1306615" />
    </clipPath>
    <clipPath
       id="inner_stroke_clip_path_6">
      <path
         d="M 819.4 498 L 947.6 498 L 947.6 554 L 819.4 554 Z"
         id="path1306620" />
    </clipPath>
    <clipPath
       id="inner_stroke_clip_path_7">
      <path
         d="M 946.6 498 L 1074.8 498 L 1074.8 554 L 946.6 554 Z"
         id="path1306623" />
    </clipPath>
    <clipPath
       id="inner_stroke_clip_path_8">
      <path
         d="M 1073.8 498 L 1202 498 L 1202 554 L 1073.8 554 Z"
         id="path1306626" />
    </clipPath>
    <clipPath
       id="inner_stroke_clip_path_9">
      <path
         d="M 565 553 L 693.2 553 L 693.2 609 L 565 609 Z"
         id="path1306629" />
    </clipPath>
    <clipPath
       id="inner_stroke_clip_path_10">
      <path
         d="M 692.2 553 L 820.4 553 L 820.4 609 L 692.2 609 Z"
         id="path1306634" />
    </clipPath>
    <clipPath
       id="inner_stroke_clip_path_11">
      <path
         d="M 819.4 553 L 947.6 553 L 947.6 609 L 819.4 609 Z"
         id="path1306637" />
    </clipPath>
    <clipPath
       id="inner_stroke_clip_path_12">
      <path
         d="M 946.6 553 L 1074.8 553 L 1074.8 609 L 946.6 609 Z"
         id="path1306640" />
    </clipPath>
    <clipPath
       id="inner_stroke_clip_path_13">
      <path
         d="M 1073.8 553 L 1202 553 L 1202 609 L 1073.8 609 Z"
         id="path1306643" />
    </clipPath>
    <clipPath
       id="inner_stroke_clip_path_14">
      <path
         d="M 565 607.5 L 693.2 607.5 L 693.2 663.5 L 565 663.5 Z"
         id="path1306646" />
    </clipPath>
    <clipPath
       id="inner_stroke_clip_path_15">
      <path
         d="M 692.2 607.5 L 820.4 607.5 L 820.4 663.5 L 692.2 663.5 Z"
         id="path1306649" />
    </clipPath>
    <clipPath
       id="inner_stroke_clip_path_16">
      <path
         d="M 819.4 607.5 L 947.6 607.5 L 947.6 663.5 L 819.4 663.5 Z"
         id="path1306652" />
    </clipPath>
    <clipPath
       id="inner_stroke_clip_path_17">
      <path
         d="M 946.6 607.5 L 1074.8 607.5 L 1074.8 663.5 L 946.6 663.5 Z"
         id="path1306655" />
    </clipPath>
    <clipPath
       id="inner_stroke_clip_path_18">
      <path
         d="M 1073.8 607.5 L 1202 607.5 L 1202 663.5 L 1073.8 663.5 Z"
         id="path1306658" />
    </clipPath>
    <clipPath
       id="inner_stroke_clip_path_19">
      <path
         d="M 838.5 619.8125 L 928.5 619.8125 L 928.5 651.1875 L 838.5 651.1875 Z"
         id="path1306661" />
    </clipPath>
    <clipPath
       id="inner_stroke_clip_path_20">
      <path
         d="M 711.3 565.3125 L 801.3 565.3125 L 801.3 596.6875 L 711.3 596.6875 Z"
         id="path1306664" />
    </clipPath>
    <clipPath
       id="inner_stroke_clip_path_21">
      <path
         d="M 965.7 619.8125 L 1055.7 619.8125 L 1055.7 651.1875 L 965.7 651.1875 Z"
         id="path1306667" />
    </clipPath>
    <clipPath
       id="inner_stroke_clip_path_22">
      <path
         d="M 838.5 565.3125 L 928.5 565.3125 L 928.5 596.6875 L 838.5 596.6875 Z"
         id="path1306670" />
    </clipPath>
    <clipPath
       id="inner_stroke_clip_path_23">
      <path
         d="M 711.3 619.8125 L 801.3 619.8125 L 801.3 651.1875 L 711.3 651.1875 Z"
         id="path1306673" />
    </clipPath>
    <clipPath
       id="inner_stroke_clip_path_24">
      <path
         d="M 1092.9 565.3125 L 1182.9 565.3125 L 1182.9 596.6875 L 1092.9 596.6875 Z"
         id="path1306676" />
    </clipPath>
    <clipPath
       id="inner_stroke_clip_path_25">
      <path
         d="M 1222 534.86874 L 1312 534.86874 L 1312 566.24374 L 1222 566.24374 Z"
         id="path1306679" />
    </clipPath>
    <clipPath
       id="inner_stroke_clip_path_26">
      <path
         d="M 1222 565.35626 L 1312 565.35626 L 1312 596.73126 L 1222 596.73126 Z"
         id="path1306682" />
    </clipPath>
    <clipPath
       id="inner_stroke_clip_path_27">
      <path
         d="M 1222 595.75626 L 1312 595.75626 L 1312 627.13126 L 1222 627.13126 Z"
         id="path1306685" />
    </clipPath>
  </defs>
  <metadata
     id="metadata1306690"> Produced by OmniGraffle 7.10.1 
    <dc:date>2021-04-20 05:30:12 +0000</dc:date>
</metadata>
  <g
     id="Diagram_Cloud_Bigtable_3-D_storage_model"
     fill="none"
     stroke-opacity="1"
     stroke="none"
     fill-opacity="1"
     stroke-dasharray="none">
    <title
       id="title1306692">Diagram_Cloud Bigtable 3-D storage model</title>
    <path
       id="rect1306694"
       style="fill:#ffffff"
       d="m 565,443 h 747 V 664 H 565 Z" />
    <g
       id="Diagram_Cloud_Bigtable_3-D_storage_model: Layer 1">
      <title
         id="title1306696">Layer 1</title>
      <g
         id="Group_330">
        <g
           id="Graphic_151">
          <path
             id="rect1306698"
             style="fill:#e2f6ff"
             d="m 565,443 h 128.2 v 56 H 565 Z" />
          <path
             id="rect1306700"
             clip-path="url(#inner_stroke_clip_path)"
             style="stroke:#dfdfdf;stroke-width:2;stroke-linecap:round;stroke-linejoin:round"
             d="m 565,443 h 128.2 v 56 H 565 Z" />
        </g>
        <g
           id="Graphic_150">
          <path
             id="rect1306703"
             style="fill:#e2f6ff"
             d="m 692.20001,443 h 255.80002 v 56 H 692.20001 Z" />
          <path
             id="rect1306705"
             clip-path="url(#inner_stroke_clip_path_2)"
             style="stroke:#dfdfdf;stroke-width:2;stroke-linecap:round;stroke-linejoin:round"
             d="m 692.20001,443 h 255.80002 v 56 H 692.20001 Z" />
          <g
             aria-label="Column family 1"
             transform="translate(776.3774,463.5)"
             id="text1306709"
             style="fill:#212121">
            <path
               d="M 5.9003906,8.2226563 H 7.3769531 Q 7.265625,9.4648438 6.4335937,10.291016 q -0.8261718,0.826172 -2.3964843,0.826172 -1.5761719,0 -2.5078125,-1.095704 Q 0.59765625,8.9257813 0.59765625,7.0800781 V 6.3886719 q 0,-1.8398438 0.94921875,-2.9355469 0.9492188,-1.1015625 2.5605469,-1.1015625 1.5292968,0 2.3378906,0.8320313 0.8085937,0.8261718 0.9375,2.1035156 H 5.90625 Q 5.8125,4.4726562 5.4140625,4.0097656 5.0214844,3.546875 4.1074219,3.546875 q -1.0078125,0 -1.5117188,0.7382812 -0.4980468,0.7324219 -0.5039062,2.0625 v 0.7324219 q 0,1.2773438 0.4511719,2.0625 Q 3,9.921875 4.0371094,9.921875 q 0.9550781,0 1.3535156,-0.4394531 0.4042969,-0.4394531 0.5097656,-1.2597656 z"
               style="font-weight:500;font-size:12px;font-family:Roboto"
               id="path1306914" />
            <path
               d="m 8.3027344,7.7714844 q 0,-1.3769532 0.7792969,-2.3027344 0.7792968,-0.9257813 2.1621097,-0.9257813 1.376953,0 2.15039,0.9023438 0.779297,0.9023437 0.802735,2.25 v 0.1992187 q 0,1.3828126 -0.779297,2.3027348 -0.773438,0.919922 -2.16211,0.919922 -1.3945309,0 -2.1738277,-0.919922 Q 8.3027344,9.2773438 8.3027344,7.8945312 Z m 1.4179687,0.1230468 q 0,0.8554688 0.3632809,1.4707032 0.369141,0.609375 1.171875,0.609375 0.785157,0 1.148438,-0.609375 Q 12.773438,8.75 12.773438,7.8945312 V 7.7714844 q 0,-0.8378907 -0.369141,-1.4589844 -0.363281,-0.6269531 -1.160156,-0.6269531 -0.791016,0 -1.160157,0.6269531 -0.3632809,0.6210937 -0.3632809,1.4589844 z"
               style="font-weight:500;font-size:12px;font-family:Roboto"
               id="path1306916" />
            <path
               d="m 16.910156,2 v 9 H 15.486328 V 2 Z"
               style="font-weight:500;font-size:12px;font-family:Roboto"
               id="path1306918" />
            <path
               d="m 22.341797,11 -0.03516,-0.621094 q -0.621094,0.738282 -1.78125,0.738282 -0.925782,0 -1.50586,-0.544922 -0.580078,-0.544922 -0.585937,-1.7929691 V 4.6601562 h 1.423828 v 4.1074219 q 0,0.6855469 0.298828,0.9375 0.304687,0.2460938 0.708984,0.2460938 1.019532,0 1.394532,-0.7324219 V 4.6601562 h 1.423828 V 11 Z"
               style="font-weight:500;font-size:12px;font-family:Roboto"
               id="path1306920" />
            <path
               d="m 27.773437,5.703125 q -0.861328,0 -1.21875,0.703125 V 11 H 25.136719 V 4.6601562 h 1.335937 l 0.04102,0.6621094 q 0.673828,-0.7792969 1.833984,-0.7792969 1.259766,0 1.734375,0.9667969 0.697266,-0.9667969 1.951172,-0.9667969 0.966797,0 1.523438,0.5390625 0.55664,0.5390625 0.5625,1.78125 V 11 H 32.695312 V 6.8867187 q 0,-0.703125 -0.310546,-0.9433593 -0.304688,-0.2402344 -0.832032,-0.2402344 -0.486328,0 -0.796875,0.2636719 -0.304687,0.2636718 -0.421875,0.6855468 V 11 H 28.910156 V 6.8984375 q 0,-0.6679688 -0.304687,-0.9316406 Q 28.300781,5.703125 27.773437,5.703125 Z"
               style="font-weight:500;font-size:12px;font-family:Roboto"
               id="path1306922" />
            <path
               d="m 38.267578,5.703125 q -0.849609,0 -1.277344,0.7734375 V 11 H 35.566406 V 4.6601562 h 1.341797 l 0.04687,0.7265625 q 0.697266,-0.84375 1.833984,-0.84375 0.914063,0 1.464844,0.5273438 0.550781,0.5273437 0.556641,1.7988281 V 11 H 39.386719 V 6.8867187 q 0,-0.65625 -0.28711,-0.9199218 Q 38.818359,5.703125 38.267578,5.703125 Z"
               style="font-weight:500;font-size:12px;font-family:Roboto"
               id="path1306924" />
            <path
               d="M 48.457031,5.7089844 H 47.173828 V 11 H 45.744141 V 5.7089844 H 44.777344 V 4.6601562 h 0.966797 V 4.0566406 q 0,-1.0605468 0.597656,-1.6171875 0.597656,-0.5625 1.628906,-0.5625 0.392578,0 0.802734,0.1054688 l -0.03516,1.1132812 q -0.246094,-0.046875 -0.550781,-0.046875 -1.001953,0 -1.013672,0.984375 v 0.6269531 h 1.283203 z"
               style="font-weight:500;font-size:12px;font-family:Roboto"
               id="path1306926" />
            <path
               d="m 53.291016,11 q -0.105469,-0.216797 -0.164063,-0.597656 -0.673828,0.714844 -1.669922,0.714844 -0.949219,0 -1.552734,-0.544922 -0.603516,-0.544922 -0.603516,-1.353516 0,-1.0136719 0.75586,-1.5527344 0.755859,-0.5390625 2.126953,-0.5390625 h 0.896484 V 6.7109375 q 0,-0.4980469 -0.28125,-0.7910156 -0.275391,-0.2988282 -0.832031,-0.2988282 -0.509766,0 -0.814453,0.2519532 Q 50.853516,6.125 50.853516,6.4882812 h -1.417969 q 0,-0.75 0.703125,-1.3476562 0.708984,-0.5976563 1.910156,-0.5976563 1.066406,0 1.757813,0.5449219 0.697265,0.5449219 0.697265,1.6347656 v 2.8125001 q 0,0.8554687 0.240235,1.3652347 V 11 Z M 51.726562,9.9746094 q 0.492188,0 0.84961,-0.234375 Q 52.933594,9.5 53.080078,9.2128906 V 8.0175781 h -0.867187 q -1.494141,0.035156 -1.494141,1.0605469 0,0.3808594 0.257812,0.6386719 0.257813,0.2578125 0.75,0.2578125 z"
               style="font-weight:500;font-size:12px;font-family:Roboto"
               id="path1306928" />
            <path
               d="m 58.634766,5.703125 q -0.861329,0 -1.21875,0.703125 V 11 H 55.998047 V 4.6601562 h 1.335937 L 57.375,5.3222656 q 0.673828,-0.7792969 1.833984,-0.7792969 1.259766,0 1.734375,0.9667969 0.697266,-0.9667969 1.951172,-0.9667969 0.966797,0 1.523438,0.5390625 0.55664,0.5390625 0.5625,1.78125 V 11 H 63.556641 V 6.8867187 q 0,-0.703125 -0.310547,-0.9433593 -0.304688,-0.2402344 -0.832032,-0.2402344 -0.486328,0 -0.796875,0.2636719 Q 61.3125,6.2304687 61.195312,6.6523437 V 11 H 59.771484 V 6.8984375 q 0,-0.6679688 -0.304687,-0.9316406 Q 59.162109,5.703125 58.634766,5.703125 Z"
               style="font-weight:500;font-size:12px;font-family:Roboto"
               id="path1306930" />
            <path
               d="m 66.445312,3.0078125 q 0,-0.328125 0.210938,-0.5390625 0.216797,-0.2167969 0.597656,-0.2167969 0.38086,0 0.591797,0.2167969 0.216797,0.2109375 0.216797,0.5390625 0,0.328125 -0.216797,0.5449219 -0.210937,0.2109375 -0.591797,0.2109375 -0.380859,0 -0.597656,-0.2109375 -0.210938,-0.2167969 -0.210938,-0.5449219 z m 1.511719,1.6523437 V 11 H 66.533203 V 4.6601562 Z"
               style="font-weight:500;font-size:12px;font-family:Roboto"
               id="path1306932" />
            <path
               d="m 71.027344,2 v 9 H 69.603516 V 2 Z"
               style="font-weight:500;font-size:12px;font-family:Roboto"
               id="path1306934" />
            <path
               d="m 75.087891,11.960938 q -0.128907,0.345703 -0.351563,0.714843 -0.222656,0.369141 -0.615234,0.626953 -0.386719,0.257813 -0.996094,0.257813 -0.287109,0 -0.685547,-0.09961 v -1.101563 l 0.269531,0.01758 q 0.527344,0 0.802735,-0.193359 0.27539,-0.1875 0.433593,-0.66211 l 0.205079,-0.550781 -2.226563,-6.3105468 h 1.541016 l 1.341797,4.3066407 1.289062,-4.3066407 h 1.517578 z"
               style="font-weight:500;font-size:12px;font-family:Roboto"
               id="path1306936" />
            <path
               d="M 85.183594,2.4394531 V 11 H 83.759766 V 4.1445312 L 81.667969,4.859375 V 3.6582031 l 3.333984,-1.21875 z"
               style="font-weight:500;font-size:12px;font-family:Roboto"
               id="path1306938" />
          </g>
        </g>
        <g
           id="Graphic_149">
          <path
             id="rect1306712"
             style="fill:#e2f6ff"
             d="M 946.59998,443 H 1202 v 56 H 946.59998 Z" />
          <path
             id="rect1306714"
             clip-path="url(#inner_stroke_clip_path_3)"
             style="stroke:#dfdfdf;stroke-width:2;stroke-linecap:round;stroke-linejoin:round"
             d="M 946.59998,443 H 1202 v 56 H 946.59998 Z" />
          <g
             aria-label="Column family 2"
             transform="translate(1030.5773,463.5)"
             id="text1306718"
             style="fill:#212121">
            <path
               d="M 5.9003906,8.2226563 H 7.3769531 Q 7.265625,9.4648438 6.4335937,10.291016 q -0.8261718,0.826172 -2.3964843,0.826172 -1.5761719,0 -2.5078125,-1.095704 Q 0.59765625,8.9257813 0.59765625,7.0800781 V 6.3886719 q 0,-1.8398438 0.94921875,-2.9355469 0.9492188,-1.1015625 2.5605469,-1.1015625 1.5292968,0 2.3378906,0.8320313 0.8085937,0.8261718 0.9375,2.1035156 H 5.90625 Q 5.8125,4.4726562 5.4140625,4.0097656 5.0214844,3.546875 4.1074219,3.546875 q -1.0078125,0 -1.5117188,0.7382812 -0.4980468,0.7324219 -0.5039062,2.0625 v 0.7324219 q 0,1.2773438 0.4511719,2.0625 Q 3,9.921875 4.0371094,9.921875 q 0.9550781,0 1.3535156,-0.4394531 0.4042969,-0.4394531 0.5097656,-1.2597656 z"
               style="font-weight:500;font-size:12px;font-family:Roboto"
               id="path1306943" />
            <path
               d="m 8.3027344,7.7714844 q 0,-1.3769532 0.7792969,-2.3027344 0.7792968,-0.9257813 2.1621097,-0.9257813 1.376953,0 2.15039,0.9023438 0.779297,0.9023437 0.802735,2.25 v 0.1992187 q 0,1.3828126 -0.779297,2.3027348 -0.773438,0.919922 -2.16211,0.919922 -1.3945309,0 -2.1738277,-0.919922 Q 8.3027344,9.2773438 8.3027344,7.8945312 Z m 1.4179687,0.1230468 q 0,0.8554688 0.3632809,1.4707032 0.369141,0.609375 1.171875,0.609375 0.785157,0 1.148438,-0.609375 Q 12.773438,8.75 12.773438,7.8945312 V 7.7714844 q 0,-0.8378907 -0.369141,-1.4589844 -0.363281,-0.6269531 -1.160156,-0.6269531 -0.791016,0 -1.160157,0.6269531 -0.3632809,0.6210937 -0.3632809,1.4589844 z"
               style="font-weight:500;font-size:12px;font-family:Roboto"
               id="path1306945" />
            <path
               d="m 16.910156,2 v 9 H 15.486328 V 2 Z"
               style="font-weight:500;font-size:12px;font-family:Roboto"
               id="path1306947" />
            <path
               d="m 22.341797,11 -0.03516,-0.621094 q -0.621094,0.738282 -1.78125,0.738282 -0.925782,0 -1.50586,-0.544922 -0.580078,-0.544922 -0.585937,-1.7929691 V 4.6601562 h 1.423828 v 4.1074219 q 0,0.6855469 0.298828,0.9375 0.304687,0.2460938 0.708984,0.2460938 1.019532,0 1.394532,-0.7324219 V 4.6601562 h 1.423828 V 11 Z"
               style="font-weight:500;font-size:12px;font-family:Roboto"
               id="path1306949" />
            <path
               d="m 27.773437,5.703125 q -0.861328,0 -1.21875,0.703125 V 11 H 25.136719 V 4.6601562 h 1.335937 l 0.04102,0.6621094 q 0.673828,-0.7792969 1.833984,-0.7792969 1.259766,0 1.734375,0.9667969 0.697266,-0.9667969 1.951172,-0.9667969 0.966797,0 1.523438,0.5390625 0.55664,0.5390625 0.5625,1.78125 V 11 H 32.695312 V 6.8867187 q 0,-0.703125 -0.310546,-0.9433593 -0.304688,-0.2402344 -0.832032,-0.2402344 -0.486328,0 -0.796875,0.2636719 -0.304687,0.2636718 -0.421875,0.6855468 V 11 H 28.910156 V 6.8984375 q 0,-0.6679688 -0.304687,-0.9316406 Q 28.300781,5.703125 27.773437,5.703125 Z"
               style="font-weight:500;font-size:12px;font-family:Roboto"
               id="path1306951" />
            <path
               d="m 38.267578,5.703125 q -0.849609,0 -1.277344,0.7734375 V 11 H 35.566406 V 4.6601562 h 1.341797 l 0.04687,0.7265625 q 0.697266,-0.84375 1.833984,-0.84375 0.914063,0 1.464844,0.5273438 0.550781,0.5273437 0.556641,1.7988281 V 11 H 39.386719 V 6.8867187 q 0,-0.65625 -0.28711,-0.9199218 Q 38.818359,5.703125 38.267578,5.703125 Z"
               style="font-weight:500;font-size:12px;font-family:Roboto"
               id="path1306953" />
            <path
               d="M 48.457031,5.7089844 H 47.173828 V 11 H 45.744141 V 5.7089844 H 44.777344 V 4.6601562 h 0.966797 V 4.0566406 q 0,-1.0605468 0.597656,-1.6171875 0.597656,-0.5625 1.628906,-0.5625 0.392578,0 0.802734,0.1054688 l -0.03516,1.1132812 q -0.246094,-0.046875 -0.550781,-0.046875 -1.001953,0 -1.013672,0.984375 v 0.6269531 h 1.283203 z"
               style="font-weight:500;font-size:12px;font-family:Roboto"
               id="path1306955" />
            <path
               d="m 53.291016,11 q -0.105469,-0.216797 -0.164063,-0.597656 -0.673828,0.714844 -1.669922,0.714844 -0.949219,0 -1.552734,-0.544922 -0.603516,-0.544922 -0.603516,-1.353516 0,-1.0136719 0.75586,-1.5527344 0.755859,-0.5390625 2.126953,-0.5390625 h 0.896484 V 6.7109375 q 0,-0.4980469 -0.28125,-0.7910156 -0.275391,-0.2988282 -0.832031,-0.2988282 -0.509766,0 -0.814453,0.2519532 Q 50.853516,6.125 50.853516,6.4882812 h -1.417969 q 0,-0.75 0.703125,-1.3476562 0.708984,-0.5976563 1.910156,-0.5976563 1.066406,0 1.757813,0.5449219 0.697265,0.5449219 0.697265,1.6347656 v 2.8125001 q 0,0.8554687 0.240235,1.3652347 V 11 Z M 51.726562,9.9746094 q 0.492188,0 0.84961,-0.234375 Q 52.933594,9.5 53.080078,9.2128906 V 8.0175781 h -0.867187 q -1.494141,0.035156 -1.494141,1.0605469 0,0.3808594 0.257812,0.6386719 0.257813,0.2578125 0.75,0.2578125 z"
               style="font-weight:500;font-size:12px;font-family:Roboto"
               id="path1306957" />
            <path
               d="m 58.634766,5.703125 q -0.861329,0 -1.21875,0.703125 V 11 H 55.998047 V 4.6601562 h 1.335937 L 57.375,5.3222656 q 0.673828,-0.7792969 1.833984,-0.7792969 1.259766,0 1.734375,0.9667969 0.697266,-0.9667969 1.951172,-0.9667969 0.966797,0 1.523438,0.5390625 0.55664,0.5390625 0.5625,1.78125 V 11 H 63.556641 V 6.8867187 q 0,-0.703125 -0.310547,-0.9433593 -0.304688,-0.2402344 -0.832032,-0.2402344 -0.486328,0 -0.796875,0.2636719 Q 61.3125,6.2304687 61.195312,6.6523437 V 11 H 59.771484 V 6.8984375 q 0,-0.6679688 -0.304687,-0.9316406 Q 59.162109,5.703125 58.634766,5.703125 Z"
               style="font-weight:500;font-size:12px;font-family:Roboto"
               id="path1306959" />
            <path
               d="m 66.445312,3.0078125 q 0,-0.328125 0.210938,-0.5390625 0.216797,-0.2167969 0.597656,-0.2167969 0.38086,0 0.591797,0.2167969 0.216797,0.2109375 0.216797,0.5390625 0,0.328125 -0.216797,0.5449219 -0.210937,0.2109375 -0.591797,0.2109375 -0.380859,0 -0.597656,-0.2109375 -0.210938,-0.2167969 -0.210938,-0.5449219 z m 1.511719,1.6523437 V 11 H 66.533203 V 4.6601562 Z"
               style="font-weight:500;font-size:12px;font-family:Roboto"
               id="path1306961" />
            <path
               d="m 71.027344,2 v 9 H 69.603516 V 2 Z"
               style="font-weight:500;font-size:12px;font-family:Roboto"
               id="path1306963" />
            <path
               d="m 75.087891,11.960938 q -0.128907,0.345703 -0.351563,0.714843 -0.222656,0.369141 -0.615234,0.626953 -0.386719,0.257813 -0.996094,0.257813 -0.287109,0 -0.685547,-0.09961 v -1.101563 l 0.269531,0.01758 q 0.527344,0 0.802735,-0.193359 0.27539,-0.1875 0.433593,-0.66211 l 0.205079,-0.550781 -2.226563,-6.3105468 h 1.541016 l 1.341797,4.3066407 1.289062,-4.3066407 h 1.517578 z"
               style="font-weight:500;font-size:12px;font-family:Roboto"
               id="path1306965" />
            <path
               d="M 87.064453,9.8574219 V 11 H 81.322266 V 10.015625 L 84.099609,6.9921875 Q 84.802734,6.2128906 85.054687,5.75 q 0.251954,-0.46875 0.251954,-0.9023438 0,-0.5859375 -0.333985,-0.9667968 -0.328125,-0.3867188 -0.9375,-0.3867188 -0.726562,0 -1.089844,0.4453125 -0.363281,0.4394531 -0.363281,1.125 h -1.423828 q 0,-1.1191406 0.755859,-1.9160156 0.75586,-0.796875 2.138672,-0.796875 1.277344,0 1.97461,0.6386719 0.703125,0.6386719 0.703125,1.7050781 0,0.7851562 -0.480469,1.546875 -0.474609,0.7558594 -1.236328,1.5644531 l -1.916016,2.0507813 z"
               style="font-weight:500;font-size:12px;font-family:Roboto"
               id="path1306967" />
          </g>
        </g>
        <g
           id="Group_143">
          <g
             id="Graphic_148">
            <path
               id="rect1306721"
               style="fill:#e2f6ff"
               d="m 565,498 h 128.2 v 56 H 565 Z" />
            <path
               id="rect1306723"
               clip-path="url(#inner_stroke_clip_path_4)"
               style="stroke:#dfdfdf;stroke-width:2;stroke-linecap:round;stroke-linejoin:round"
               d="m 565,498 h 128.2 v 56 H 565 Z" />
          </g>
          <g
             id="Graphic_147">
            <path
               id="rect1306726"
               style="fill:#e2f6ff"
               d="m 692.20001,498 h 128.2 v 56 h -128.2 z" />
            <path
               id="rect1306728"
               clip-path="url(#inner_stroke_clip_path_5)"
               style="stroke:#dfdfdf;stroke-width:2;stroke-linecap:round;stroke-linejoin:round"
               d="m 692.20001,498 h 128.2 v 56 h -128.2 z" />
            <g
               aria-label="Column 1"
               transform="translate(731.383,518.5)"
               id="text1306732"
               style="fill:#212121">
              <path
                 d="m 5.5488281,8.2285156 1.40625,-0.017578 q -0.1992187,1.3710938 -1.2011719,2.1562505 -1.0019531,0.779296 -2.3671874,0.75 -1.125,-0.02344 -1.7695313,-0.621094 Q 0.97851563,9.8925781 0.75,8.9785156 0.52734375,8.0585938 0.65039062,7.0800781 L 0.75,6.3886719 Q 0.90820313,5.328125 1.4121094,4.3964844 1.9160156,3.4648438 2.7539063,2.8964844 3.5976563,2.328125 4.7636719,2.3515625 6.1113281,2.375 6.8085937,3.1894531 7.5117187,4.0039062 7.5644531,5.2929687 H 6.1289062 Q 6.1054687,4.5488281 5.8066406,4.0625 5.5136719,3.5703125 4.6933594,3.5410156 3.8964844,3.5175781 3.3808594,3.9453125 2.8710938,4.3730469 2.5839844,5.0527344 2.3027344,5.7324219 2.1914063,6.5351562 2.0800781,7.3378906 2.0625,7.6425781 q -0.011719,0.2988281 0.00586,0.65625 0.029297,0.65625 0.3339844,1.1308594 0.3046875,0.46875 1.0546875,0.4980469 Q 4.3300781,9.9570313 4.8339844,9.5 5.34375,9.0371094 5.5488281,8.2285156 Z"
                 style="font-style:italic;font-weight:500;font-size:12px;font-family:Roboto"
                 id="path1306974" />
              <path
                 d="M 7.9863281,7.9296875 8.0039063,7.8066406 Q 8.0976563,6.9335937 8.5078125,6.1835937 8.9238281,5.4277344 9.6210938,4.9765625 10.318359,4.5195312 11.261719,4.5429687 q 0.902344,0.017578 1.470703,0.4804688 0.574219,0.4570312 0.820312,1.1835937 0.246094,0.7265625 0.169922,1.5527344 -0.146484,1.5117188 -1.054687,2.4550784 -0.908203,0.9375 -2.220703,0.902344 Q 9.5507813,11.099609 8.9765625,10.648438 8.4082031,10.197266 8.1621094,9.4765625 7.9160156,8.7558594 7.9863281,7.9296875 Z M 9.3867188,7.8066406 9.375,7.9355469 q -0.046875,0.4277344 0.017578,0.9023437 0.064453,0.46875 0.3222657,0.796875 0.2578125,0.328125 0.8027342,0.3457032 0.580078,0.017578 0.955078,-0.3046875 0.375,-0.3222657 0.580078,-0.8144532 0.205079,-0.4921875 0.263672,-0.9785156 l 0.01172,-0.1230469 Q 12.375,7.3320312 12.310547,6.8574219 12.251953,6.3769531 11.994141,6.0371094 11.736328,5.6972656 11.191406,5.6796875 10.611328,5.6621094 10.230469,5.9960937 9.8554688,6.3242187 9.6503906,6.8222656 9.4453125,7.3203125 9.3867188,7.8066406 Z"
                 style="font-style:italic;font-weight:500;font-size:12px;font-family:Roboto"
                 id="path1306976" />
              <path
                 d="m 17.361328,2 -1.564453,9 h -1.388672 l 1.564453,-9 z"
                 style="font-style:italic;font-weight:500;font-size:12px;font-family:Roboto"
                 id="path1306978" />
              <path
                 d="m 21.070312,11 0.123047,-0.626953 q -0.714843,0.767578 -1.804687,0.744141 -1.025391,-0.01758 -1.41211,-0.720704 Q 17.589844,9.6875 17.683594,8.7558594 l 0.685547,-4.0957032 h 1.388671 l -0.691406,4.1132813 q -0.04687,0.4394531 0.08789,0.796875 0.134765,0.3574219 0.644531,0.3808594 0.919922,0.029297 1.482422,-0.7265625 l 0.796875,-4.5644532 h 1.388672 L 22.371094,11 Z"
                 style="font-style:italic;font-weight:500;font-size:12px;font-family:Roboto"
                 id="path1306980" />
              <path
                 d="m 27.257812,5.6972656 q -0.773437,-0.011719 -1.30664,0.6972656 L 25.148437,11 h -1.382812 l 1.095703,-6.3398438 1.294922,-0.00586 -0.123047,0.6738281 q 0.779297,-0.8085938 1.880859,-0.7851563 0.503907,0.011719 0.925782,0.2402344 0.427734,0.2226563 0.597656,0.7265625 0.873047,-0.9902344 2.021484,-0.9667969 1.042969,0.017578 1.423828,0.7148438 0.386719,0.6914062 0.28711,1.6347656 L 32.484375,11 H 31.095703 L 31.787109,6.8808594 Q 31.845703,6.359375 31.664062,6.03125 31.488281,5.703125 30.919922,5.6972656 30.041016,5.6738281 29.560547,6.6464844 L 29.542969,6.7753906 28.816406,11 h -1.394531 l 0.691406,-4.1074219 q 0.05859,-0.5039062 -0.123047,-0.84375 -0.175781,-0.3398437 -0.732422,-0.3515625 z"
                 style="font-style:italic;font-weight:500;font-size:12px;font-family:Roboto"
                 id="path1306982" />
              <path
                 d="M 37.447266,5.6972656 Q 36.679687,5.6738281 36.064453,6.4707031 L 35.273437,11 h -1.388671 l 1.095703,-6.3398438 1.30664,-0.00586 -0.134765,0.7382812 Q 36.9375,4.53125 38.021484,4.5429687 q 1.03125,0.017578 1.382813,0.7265625 0.351562,0.7089844 0.257812,1.6289063 L 38.976562,11 H 37.587891 L 38.279297,6.8808594 Q 38.337891,6.3769531 38.167969,6.0429687 38.003906,5.7089844 37.447266,5.6972656 Z"
                 style="font-style:italic;font-weight:500;font-size:12px;font-family:Roboto"
                 id="path1306984" />
              <path
                 d="M 48.445312,2.4394531 46.998047,11 h -1.388672 l 1.183594,-6.8261719 -2.15625,0.7148438 0.222656,-1.2597656 3.375,-1.1894532 z"
                 style="font-style:italic;font-weight:500;font-size:12px;font-family:Roboto"
                 id="path1306986" />
            </g>
          </g>
          <g
             id="Graphic_146">
            <path
               id="rect1306735"
               style="fill:#e2f6ff"
               d="m 819.40002,498 h 128.2 v 56 h -128.2 z" />
            <path
               id="rect1306737"
               clip-path="url(#inner_stroke_clip_path_6)"
               style="stroke:#dfdfdf;stroke-width:2;stroke-linecap:round;stroke-linejoin:round"
               d="m 819.40002,498 h 128.2 v 56 h -128.2 z" />
            <g
               aria-label="Column 2"
               transform="translate(858.583,518.5)"
               id="text1306741"
               style="fill:#212121">
              <path
                 d="m 5.5488281,8.2285156 1.40625,-0.017578 q -0.1992187,1.3710938 -1.2011719,2.1562505 -1.0019531,0.779296 -2.3671874,0.75 -1.125,-0.02344 -1.7695313,-0.621094 Q 0.97851563,9.8925781 0.75,8.9785156 0.52734375,8.0585938 0.65039062,7.0800781 L 0.75,6.3886719 Q 0.90820313,5.328125 1.4121094,4.3964844 1.9160156,3.4648438 2.7539063,2.8964844 3.5976563,2.328125 4.7636719,2.3515625 6.1113281,2.375 6.8085937,3.1894531 7.5117187,4.0039062 7.5644531,5.2929687 H 6.1289062 Q 6.1054687,4.5488281 5.8066406,4.0625 5.5136719,3.5703125 4.6933594,3.5410156 3.8964844,3.5175781 3.3808594,3.9453125 2.8710938,4.3730469 2.5839844,5.0527344 2.3027344,5.7324219 2.1914063,6.5351562 2.0800781,7.3378906 2.0625,7.6425781 q -0.011719,0.2988281 0.00586,0.65625 0.029297,0.65625 0.3339844,1.1308594 0.3046875,0.46875 1.0546875,0.4980469 Q 4.3300781,9.9570313 4.8339844,9.5 5.34375,9.0371094 5.5488281,8.2285156 Z"
                 style="font-style:italic;font-weight:500;font-size:12px;font-family:Roboto"
                 id="path1306991" />
              <path
                 d="M 7.9863281,7.9296875 8.0039063,7.8066406 Q 8.0976563,6.9335937 8.5078125,6.1835937 8.9238281,5.4277344 9.6210938,4.9765625 10.318359,4.5195312 11.261719,4.5429687 q 0.902344,0.017578 1.470703,0.4804688 0.574219,0.4570312 0.820312,1.1835937 0.246094,0.7265625 0.169922,1.5527344 -0.146484,1.5117188 -1.054687,2.4550784 -0.908203,0.9375 -2.220703,0.902344 Q 9.5507813,11.099609 8.9765625,10.648438 8.4082031,10.197266 8.1621094,9.4765625 7.9160156,8.7558594 7.9863281,7.9296875 Z M 9.3867188,7.8066406 9.375,7.9355469 q -0.046875,0.4277344 0.017578,0.9023437 0.064453,0.46875 0.3222657,0.796875 0.2578125,0.328125 0.8027342,0.3457032 0.580078,0.017578 0.955078,-0.3046875 0.375,-0.3222657 0.580078,-0.8144532 0.205079,-0.4921875 0.263672,-0.9785156 l 0.01172,-0.1230469 Q 12.375,7.3320312 12.310547,6.8574219 12.251953,6.3769531 11.994141,6.0371094 11.736328,5.6972656 11.191406,5.6796875 10.611328,5.6621094 10.230469,5.9960937 9.8554688,6.3242187 9.6503906,6.8222656 9.4453125,7.3203125 9.3867188,7.8066406 Z"
                 style="font-style:italic;font-weight:500;font-size:12px;font-family:Roboto"
                 id="path1306993" />
              <path
                 d="m 17.361328,2 -1.564453,9 h -1.388672 l 1.564453,-9 z"
                 style="font-style:italic;font-weight:500;font-size:12px;font-family:Roboto"
                 id="path1306995" />
              <path
                 d="m 21.070312,11 0.123047,-0.626953 q -0.714843,0.767578 -1.804687,0.744141 -1.025391,-0.01758 -1.41211,-0.720704 Q 17.589844,9.6875 17.683594,8.7558594 l 0.685547,-4.0957032 h 1.388671 l -0.691406,4.1132813 q -0.04687,0.4394531 0.08789,0.796875 0.134765,0.3574219 0.644531,0.3808594 0.919922,0.029297 1.482422,-0.7265625 l 0.796875,-4.5644532 h 1.388672 L 22.371094,11 Z"
                 style="font-style:italic;font-weight:500;font-size:12px;font-family:Roboto"
                 id="path1306997" />
              <path
                 d="m 27.257812,5.6972656 q -0.773437,-0.011719 -1.30664,0.6972656 L 25.148437,11 h -1.382812 l 1.095703,-6.3398438 1.294922,-0.00586 -0.123047,0.6738281 q 0.779297,-0.8085938 1.880859,-0.7851563 0.503907,0.011719 0.925782,0.2402344 0.427734,0.2226563 0.597656,0.7265625 0.873047,-0.9902344 2.021484,-0.9667969 1.042969,0.017578 1.423828,0.7148438 0.386719,0.6914062 0.28711,1.6347656 L 32.484375,11 H 31.095703 L 31.787109,6.8808594 Q 31.845703,6.359375 31.664062,6.03125 31.488281,5.703125 30.919922,5.6972656 30.041016,5.6738281 29.560547,6.6464844 L 29.542969,6.7753906 28.816406,11 h -1.394531 l 0.691406,-4.1074219 q 0.05859,-0.5039062 -0.123047,-0.84375 -0.175781,-0.3398437 -0.732422,-0.3515625 z"
                 style="font-style:italic;font-weight:500;font-size:12px;font-family:Roboto"
                 id="path1306999" />
              <path
                 d="M 37.447266,5.6972656 Q 36.679687,5.6738281 36.064453,6.4707031 L 35.273437,11 h -1.388671 l 1.095703,-6.3398438 1.30664,-0.00586 -0.134765,0.7382812 Q 36.9375,4.53125 38.021484,4.5429687 q 1.03125,0.017578 1.382813,0.7265625 0.351562,0.7089844 0.257812,1.6289063 L 38.976562,11 H 37.587891 L 38.279297,6.8808594 Q 38.337891,6.3769531 38.167969,6.0429687 38.003906,5.7089844 37.447266,5.6972656 Z"
                 style="font-style:italic;font-weight:500;font-size:12px;font-family:Roboto"
                 id="path1307001" />
              <path
                 d="M 49.066406,9.8574219 48.884766,11 H 43.306641 L 43.470703,9.9570313 46.576172,6.9863281 Q 47.027344,6.546875 47.525391,6.0019531 48.023437,5.4570312 48.111328,4.7949219 48.175781,4.2792969 47.929687,3.8925781 47.689453,3.5 47.126953,3.4824219 46.40625,3.4648438 45.990234,3.9335938 45.580078,4.3964844 45.492187,5.0585937 l -1.376953,0.011719 q 0.09375,-1.2363281 0.984375,-1.9863281 0.890625,-0.7558594 2.109375,-0.7324219 1.03711,0.017578 1.728516,0.6152344 0.691406,0.5917969 0.603516,1.6875 -0.08203,0.9726562 -0.761719,1.7578125 -0.673828,0.7792968 -1.359375,1.4238281 l -2.150391,2.0214844 z"
                 style="font-style:italic;font-weight:500;font-size:12px;font-family:Roboto"
                 id="path1307003" />
            </g>
          </g>
          <g
             id="Graphic_145">
            <path
               id="rect1306744"
               style="fill:#e2f6ff"
               d="M 946.59998,498 H 1074.8 v 56 H 946.59998 Z" />
            <path
               id="rect1306746"
               clip-path="url(#inner_stroke_clip_path_7)"
               style="stroke:#dfdfdf;stroke-width:2;stroke-linecap:round;stroke-linejoin:round"
               d="M 946.59998,498 H 1074.8 v 56 H 946.59998 Z" />
            <g
               aria-label="Column 1"
               transform="translate(985.783,518.5)"
               id="text1306750"
               style="fill:#212121">
              <path
                 d="m 5.5488281,8.2285156 1.40625,-0.017578 q -0.1992187,1.3710938 -1.2011719,2.1562505 -1.0019531,0.779296 -2.3671874,0.75 -1.125,-0.02344 -1.7695313,-0.621094 Q 0.97851563,9.8925781 0.75,8.9785156 0.52734375,8.0585938 0.65039062,7.0800781 L 0.75,6.3886719 Q 0.90820313,5.328125 1.4121094,4.3964844 1.9160156,3.4648438 2.7539063,2.8964844 3.5976563,2.328125 4.7636719,2.3515625 6.1113281,2.375 6.8085937,3.1894531 7.5117187,4.0039062 7.5644531,5.2929687 H 6.1289062 Q 6.1054687,4.5488281 5.8066406,4.0625 5.5136719,3.5703125 4.6933594,3.5410156 3.8964844,3.5175781 3.3808594,3.9453125 2.8710938,4.3730469 2.5839844,5.0527344 2.3027344,5.7324219 2.1914063,6.5351562 2.0800781,7.3378906 2.0625,7.6425781 q -0.011719,0.2988281 0.00586,0.65625 0.029297,0.65625 0.3339844,1.1308594 0.3046875,0.46875 1.0546875,0.4980469 Q 4.3300781,9.9570313 4.8339844,9.5 5.34375,9.0371094 5.5488281,8.2285156 Z"
                 style="font-style:italic;font-weight:500;font-size:12px;font-family:Roboto"
                 id="path1307008" />
              <path
                 d="M 7.9863281,7.9296875 8.0039063,7.8066406 Q 8.0976563,6.9335937 8.5078125,6.1835937 8.9238281,5.4277344 9.6210938,4.9765625 10.318359,4.5195312 11.261719,4.5429687 q 0.902344,0.017578 1.470703,0.4804688 0.574219,0.4570312 0.820312,1.1835937 0.246094,0.7265625 0.169922,1.5527344 -0.146484,1.5117188 -1.054687,2.4550784 -0.908203,0.9375 -2.220703,0.902344 Q 9.5507813,11.099609 8.9765625,10.648438 8.4082031,10.197266 8.1621094,9.4765625 7.9160156,8.7558594 7.9863281,7.9296875 Z M 9.3867188,7.8066406 9.375,7.9355469 q -0.046875,0.4277344 0.017578,0.9023437 0.064453,0.46875 0.3222657,0.796875 0.2578125,0.328125 0.8027342,0.3457032 0.580078,0.017578 0.955078,-0.3046875 0.375,-0.3222657 0.580078,-0.8144532 0.205079,-0.4921875 0.263672,-0.9785156 l 0.01172,-0.1230469 Q 12.375,7.3320312 12.310547,6.8574219 12.251953,6.3769531 11.994141,6.0371094 11.736328,5.6972656 11.191406,5.6796875 10.611328,5.6621094 10.230469,5.9960937 9.8554688,6.3242187 9.6503906,6.8222656 9.4453125,7.3203125 9.3867188,7.8066406 Z"
                 style="font-style:italic;font-weight:500;font-size:12px;font-family:Roboto"
                 id="path1307010" />
              <path
                 d="m 17.361328,2 -1.564453,9 h -1.388672 l 1.564453,-9 z"
                 style="font-style:italic;font-weight:500;font-size:12px;font-family:Roboto"
                 id="path1307012" />
              <path
                 d="m 21.070312,11 0.123047,-0.626953 q -0.714843,0.767578 -1.804687,0.744141 -1.025391,-0.01758 -1.41211,-0.720704 Q 17.589844,9.6875 17.683594,8.7558594 l 0.685547,-4.0957032 h 1.388671 l -0.691406,4.1132813 q -0.04687,0.4394531 0.08789,0.796875 0.134765,0.3574219 0.644531,0.3808594 0.919922,0.029297 1.482422,-0.7265625 l 0.796875,-4.5644532 h 1.388672 L 22.371094,11 Z"
                 style="font-style:italic;font-weight:500;font-size:12px;font-family:Roboto"
                 id="path1307014" />
              <path
                 d="m 27.257812,5.6972656 q -0.773437,-0.011719 -1.30664,0.6972656 L 25.148437,11 h -1.382812 l 1.095703,-6.3398438 1.294922,-0.00586 -0.123047,0.6738281 q 0.779297,-0.8085938 1.880859,-0.7851563 0.503907,0.011719 0.925782,0.2402344 0.427734,0.2226563 0.597656,0.7265625 0.873047,-0.9902344 2.021484,-0.9667969 1.042969,0.017578 1.423828,0.7148438 0.386719,0.6914062 0.28711,1.6347656 L 32.484375,11 H 31.095703 L 31.787109,6.8808594 Q 31.845703,6.359375 31.664062,6.03125 31.488281,5.703125 30.919922,5.6972656 30.041016,5.6738281 29.560547,6.6464844 L 29.542969,6.7753906 28.816406,11 h -1.394531 l 0.691406,-4.1074219 q 0.05859,-0.5039062 -0.123047,-0.84375 -0.175781,-0.3398437 -0.732422,-0.3515625 z"
                 style="font-style:italic;font-weight:500;font-size:12px;font-family:Roboto"
                 id="path1307016" />
              <path
                 d="M 37.447266,5.6972656 Q 36.679687,5.6738281 36.064453,6.4707031 L 35.273437,11 h -1.388671 l 1.095703,-6.3398438 1.30664,-0.00586 -0.134765,0.7382812 Q 36.9375,4.53125 38.021484,4.5429687 q 1.03125,0.017578 1.382813,0.7265625 0.351562,0.7089844 0.257812,1.6289063 L 38.976562,11 H 37.587891 L 38.279297,6.8808594 Q 38.337891,6.3769531 38.167969,6.0429687 38.003906,5.7089844 37.447266,5.6972656 Z"
                 style="font-style:italic;font-weight:500;font-size:12px;font-family:Roboto"
                 id="path1307018" />
              <path
                 d="M 48.445312,2.4394531 46.998047,11 h -1.388672 l 1.183594,-6.8261719 -2.15625,0.7148438 0.222656,-1.2597656 3.375,-1.1894532 z"
                 style="font-style:italic;font-weight:500;font-size:12px;font-family:Roboto"
                 id="path1307020" />
            </g>
          </g>
          <g
             id="Graphic_144">
            <path
               id="rect1306753"
               style="fill:#e2f6ff"
               d="M 1073.8,498 H 1202 v 56 h -128.2 z" />
            <path
               id="rect1306755"
               clip-path="url(#inner_stroke_clip_path_8)"
               style="stroke:#dfdfdf;stroke-width:2;stroke-linecap:round;stroke-linejoin:round"
               d="M 1073.8,498 H 1202 v 56 h -128.2 z" />
            <g
               aria-label="Column 2"
               transform="translate(1112.983,518.5)"
               id="text1306759"
               style="fill:#212121">
              <path
                 d="m 5.5488281,8.2285156 1.40625,-0.017578 q -0.1992187,1.3710938 -1.2011719,2.1562505 -1.0019531,0.779296 -2.3671874,0.75 -1.125,-0.02344 -1.7695313,-0.621094 Q 0.97851563,9.8925781 0.75,8.9785156 0.52734375,8.0585938 0.65039062,7.0800781 L 0.75,6.3886719 Q 0.90820313,5.328125 1.4121094,4.3964844 1.9160156,3.4648438 2.7539063,2.8964844 3.5976563,2.328125 4.7636719,2.3515625 6.1113281,2.375 6.8085937,3.1894531 7.5117187,4.0039062 7.5644531,5.2929687 H 6.1289062 Q 6.1054687,4.5488281 5.8066406,4.0625 5.5136719,3.5703125 4.6933594,3.5410156 3.8964844,3.5175781 3.3808594,3.9453125 2.8710938,4.3730469 2.5839844,5.0527344 2.3027344,5.7324219 2.1914063,6.5351562 2.0800781,7.3378906 2.0625,7.6425781 q -0.011719,0.2988281 0.00586,0.65625 0.029297,0.65625 0.3339844,1.1308594 0.3046875,0.46875 1.0546875,0.4980469 Q 4.3300781,9.9570313 4.8339844,9.5 5.34375,9.0371094 5.5488281,8.2285156 Z"
                 style="font-style:italic;font-weight:500;font-size:12px;font-family:Roboto"
                 id="path1307025" />
              <path
                 d="M 7.9863281,7.9296875 8.0039063,7.8066406 Q 8.0976563,6.9335937 8.5078125,6.1835937 8.9238281,5.4277344 9.6210938,4.9765625 10.318359,4.5195312 11.261719,4.5429687 q 0.902344,0.017578 1.470703,0.4804688 0.574219,0.4570312 0.820312,1.1835937 0.246094,0.7265625 0.169922,1.5527344 -0.146484,1.5117188 -1.054687,2.4550784 -0.908203,0.9375 -2.220703,0.902344 Q 9.5507813,11.099609 8.9765625,10.648438 8.4082031,10.197266 8.1621094,9.4765625 7.9160156,8.7558594 7.9863281,7.9296875 Z M 9.3867188,7.8066406 9.375,7.9355469 q -0.046875,0.4277344 0.017578,0.9023437 0.064453,0.46875 0.3222657,0.796875 0.2578125,0.328125 0.8027342,0.3457032 0.580078,0.017578 0.955078,-0.3046875 0.375,-0.3222657 0.580078,-0.8144532 0.205079,-0.4921875 0.263672,-0.9785156 l 0.01172,-0.1230469 Q 12.375,7.3320312 12.310547,6.8574219 12.251953,6.3769531 11.994141,6.0371094 11.736328,5.6972656 11.191406,5.6796875 10.611328,5.6621094 10.230469,5.9960937 9.8554688,6.3242187 9.6503906,6.8222656 9.4453125,7.3203125 9.3867188,7.8066406 Z"
                 style="font-style:italic;font-weight:500;font-size:12px;font-family:Roboto"
                 id="path1307027" />
              <path
                 d="m 17.361328,2 -1.564453,9 h -1.388672 l 1.564453,-9 z"
                 style="font-style:italic;font-weight:500;font-size:12px;font-family:Roboto"
                 id="path1307029" />
              <path
                 d="m 21.070312,11 0.123047,-0.626953 q -0.714843,0.767578 -1.804687,0.744141 -1.025391,-0.01758 -1.41211,-0.720704 Q 17.589844,9.6875 17.683594,8.7558594 l 0.685547,-4.0957032 h 1.388671 l -0.691406,4.1132813 q -0.04687,0.4394531 0.08789,0.796875 0.134765,0.3574219 0.644531,0.3808594 0.919922,0.029297 1.482422,-0.7265625 l 0.796875,-4.5644532 h 1.388672 L 22.371094,11 Z"
                 style="font-style:italic;font-weight:500;font-size:12px;font-family:Roboto"
                 id="path1307031" />
              <path
                 d="m 27.257812,5.6972656 q -0.773437,-0.011719 -1.30664,0.6972656 L 25.148437,11 h -1.382812 l 1.095703,-6.3398438 1.294922,-0.00586 -0.123047,0.6738281 q 0.779297,-0.8085938 1.880859,-0.7851563 0.503907,0.011719 0.925782,0.2402344 0.427734,0.2226563 0.597656,0.7265625 0.873047,-0.9902344 2.021484,-0.9667969 1.042969,0.017578 1.423828,0.7148438 0.386719,0.6914062 0.28711,1.6347656 L 32.484375,11 H 31.095703 L 31.787109,6.8808594 Q 31.845703,6.359375 31.664062,6.03125 31.488281,5.703125 30.919922,5.6972656 30.041016,5.6738281 29.560547,6.6464844 L 29.542969,6.7753906 28.816406,11 h -1.394531 l 0.691406,-4.1074219 q 0.05859,-0.5039062 -0.123047,-0.84375 -0.175781,-0.3398437 -0.732422,-0.3515625 z"
                 style="font-style:italic;font-weight:500;font-size:12px;font-family:Roboto"
                 id="path1307033" />
              <path
                 d="M 37.447266,5.6972656 Q 36.679687,5.6738281 36.064453,6.4707031 L 35.273437,11 h -1.388671 l 1.095703,-6.3398438 1.30664,-0.00586 -0.134765,0.7382812 Q 36.9375,4.53125 38.021484,4.5429687 q 1.03125,0.017578 1.382813,0.7265625 0.351562,0.7089844 0.257812,1.6289063 L 38.976562,11 H 37.587891 L 38.279297,6.8808594 Q 38.337891,6.3769531 38.167969,6.0429687 38.003906,5.7089844 37.447266,5.6972656 Z"
                 style="font-style:italic;font-weight:500;font-size:12px;font-family:Roboto"
                 id="path1307035" />
              <path
                 d="M 49.066406,9.8574219 48.884766,11 H 43.306641 L 43.470703,9.9570313 46.576172,6.9863281 Q 47.027344,6.546875 47.525391,6.0019531 48.023437,5.4570312 48.111328,4.7949219 48.175781,4.2792969 47.929687,3.8925781 47.689453,3.5 47.126953,3.4824219 46.40625,3.4648438 45.990234,3.9335938 45.580078,4.3964844 45.492187,5.0585937 l -1.376953,0.011719 q 0.09375,-1.2363281 0.984375,-1.9863281 0.890625,-0.7558594 2.109375,-0.7324219 1.03711,0.017578 1.728516,0.6152344 0.691406,0.5917969 0.603516,1.6875 -0.08203,0.9726562 -0.761719,1.7578125 -0.673828,0.7792968 -1.359375,1.4238281 l -2.150391,2.0214844 z"
                 style="font-style:italic;font-weight:500;font-size:12px;font-family:Roboto"
                 id="path1307037" />
            </g>
          </g>
        </g>
        <g
           id="Graphic_142">
          <path
             id="rect1306763"
             style="fill:#ffffff"
             d="m 565,553 h 128.2 v 56 H 565 Z" />
          <path
             id="rect1306765"
             clip-path="url(#inner_stroke_clip_path_9)"
             style="stroke:#dfdfdf;stroke-width:2;stroke-linecap:round;stroke-linejoin:round"
             d="m 565,553 h 128.2 v 56 H 565 Z" />
          <g
             aria-label="Row key 1"
             transform="translate(602.1586,573.5)"
             id="text1306769"
             style="fill:#212121">
            <path
               d="M 5.9765625,11 4.125,7.5429687 H 2.1210938 V 11 H 0.99023438 V 2.46875 H 3.8144531 q 1.4355469,0 2.2089844,0.65625 0.7792969,0.65625 0.7792969,1.9042969 0,0.796875 -0.4335938,1.3945312 Q 5.9414062,7.015625 5.1796875,7.3085937 L 7.1835937,10.929688 V 11 Z M 2.1210938,3.3945313 v 3.2285156 h 1.7285156 q 0.9082031,0 1.3652343,-0.4628907 0.4628907,-0.46875 0.4628907,-1.1308593 0,-0.7382813 -0.4453125,-1.1835938 Q 4.7929687,3.3945313 3.8144531,3.3945313 Z"
               style="font-size:12px;font-family:Roboto"
               id="path1307042" />
            <path
               d="m 7.9335937,7.765625 q 0,-1.3769531 0.7734376,-2.296875 0.7734375,-0.9257813 2.1035157,-0.9257813 1.330078,0 2.103516,0.9082032 0.773437,0.9023437 0.791015,2.2558593 v 0.1933594 q 0,1.3769532 -0.779297,2.2968754 -0.773437,0.919922 -2.103515,0.919922 -1.3359379,0 -2.1152347,-0.919922 Q 7.9335937,9.2773438 7.9335937,7.9003906 Z m 1.0839844,0.1347656 q 0,0.9433594 0.4453125,1.6347657 0.4511719,0.6914067 1.3593754,0.6914067 0.884765,0 1.335937,-0.679688 0.451172,-0.6855469 0.457031,-1.6289063 V 7.765625 q 0,-0.9316406 -0.451171,-1.6289063 -0.451172,-0.703125 -1.353516,-0.703125 -0.8964845,0 -1.3476564,0.703125 Q 9.0175781,6.8339844 9.0175781,7.765625 Z"
               style="font-size:12px;font-family:Roboto"
               id="path1307044" />
            <path
               d="M 22.974609,4.6601562 21.134766,11 H 20.255859 L 18.714844,6.2011719 17.214844,11 H 16.330078 L 14.490234,4.6601562 h 1.083985 l 1.248047,4.7343751 1.476562,-4.7343751 h 0.873047 l 1.5,4.8339844 1.224609,-4.8339844 z"
               style="font-size:12px;font-family:Roboto"
               id="path1307046" />
            <path
               d="M 31.03125,11 28.833984,8.0585938 28.148437,8.7675781 V 11 H 27.058594 V 2 h 1.089843 v 5.4375 l 0.580079,-0.6914063 1.96875,-2.0859375 h 1.324218 L 29.548828,7.3027344 32.308594,11 Z"
               style="font-size:12px;font-family:Roboto"
               id="path1307048" />
            <path
               d="m 38.039062,9.8925781 q -0.310546,0.4687499 -0.878906,0.8496099 -0.568359,0.375 -1.505859,0.375 -1.324219,0 -2.121094,-0.861329 Q 32.742187,9.3945313 32.742187,8.0527344 V 7.8066406 q 0,-1.0371094 0.392579,-1.7636719 0.398437,-0.7324218 1.03125,-1.1132812 0.632812,-0.3867188 1.347656,-0.3867188 1.359375,0 1.980469,0.890625 0.626953,0.8847657 0.626953,2.2148438 v 0.4863281 h -4.289063 q 0.02344,0.8730469 0.515625,1.4882813 0.498047,0.6093751 1.365235,0.6093751 0.574218,0 0.972656,-0.2343751 0.398437,-0.234375 0.697265,-0.6269531 z m -2.52539,-4.4589844 q -0.644531,0 -1.089844,0.46875 Q 33.978516,6.3710937 33.867187,7.25 h 3.169922 V 7.1679687 Q 36.996094,6.5351562 36.667969,5.984375 36.345703,5.4335937 35.513672,5.4335937 Z"
               style="font-size:12px;font-family:Roboto"
               id="path1307050" />
            <path
               d="m 41.472656,11.978516 q -0.5625,1.488281 -1.699219,1.576172 l -0.18164,0.0059 q -0.345703,0 -0.609375,-0.09375 l -0.0059,-0.878906 0.292969,0.02344 q 0.550781,0 0.861328,-0.228515 0.310547,-0.222657 0.509766,-0.808594 L 40.875,10.929688 38.613281,4.6601562 h 1.183594 L 41.384766,9.40625 42.855469,4.6601562 h 1.160156 z"
               style="font-size:12px;font-family:Roboto"
               id="path1307052" />
            <path
               d="M 51.410156,2.421875 V 11 H 50.326172 V 3.7753906 l -2.185547,0.796875 V 3.59375 l 3.099609,-1.171875 z"
               style="font-size:12px;font-family:Roboto"
               id="path1307054" />
          </g>
        </g>
        <g
           id="Graphic_141">
          <path
             id="rect1306772"
             style="fill:#ffffff"
             d="m 692.20001,553 h 128.2 v 56 h -128.2 z" />
          <path
             id="rect1306774"
             clip-path="url(#inner_stroke_clip_path_10)"
             style="stroke:#dfdfdf;stroke-width:2;stroke-linecap:round;stroke-linejoin:round"
             d="m 692.20001,553 h 128.2 v 56 h -128.2 z" />
        </g>
        <g
           id="Graphic_140">
          <path
             id="rect1306777"
             style="fill:#ffffff"
             d="m 819.40002,553 h 128.2 v 56 h -128.2 z" />
          <path
             id="rect1306779"
             clip-path="url(#inner_stroke_clip_path_11)"
             style="stroke:#dfdfdf;stroke-width:2;stroke-linecap:round;stroke-linejoin:round"
             d="m 819.40002,553 h 128.2 v 56 h -128.2 z" />
          <g
             aria-label="Cell"
             transform="translate(873.4951,573.5)"
             id="text1306783"
             style="fill:#212121">
            <path
               d="m 6.140625,8.2871094 h 1.125 Q 7.1367187,9.5 6.3515625,10.308594 5.5664062,11.117188 4.03125,11.117188 q -1.4882812,0 -2.4023438,-1.060547 Q 0.72070312,8.9902344 0.703125,7.2265625 V 6.3125 q 0,-1.7929688 0.9199219,-2.8769531 0.9257812,-1.0839844 2.5078125,-1.0839844 1.4472656,0 2.2265625,0.796875 0.7792968,0.796875 0.9082031,2.0566406 h -1.125 Q 6.0117187,4.3144531 5.5664062,3.7988281 5.1210937,3.2773438 4.1308594,3.2773438 3,3.2773438 2.4140625,4.109375 1.828125,4.9414062 1.828125,6.3007812 v 0.8613282 q 0,1.2597656 0.5332031,2.1503906 0.5332032,0.884766 1.6699219,0.884766 1.078125,0 1.5175781,-0.5039066 0.4453125,-0.5039063 0.5917969,-1.40625 z"
               style="font-size:12px;font-family:Roboto"
               id="path1307061" />
            <path
               d="m 13.652344,9.8925781 q -0.310547,0.4687499 -0.878906,0.8496099 -0.56836,0.375 -1.50586,0.375 -1.3242186,0 -2.1210936,-0.861329 Q 8.3554688,9.3945313 8.3554688,8.0527344 V 7.8066406 q 0,-1.0371094 0.3925781,-1.7636719 0.3984375,-0.7324218 1.03125,-1.1132812 0.6328121,-0.3867188 1.3476561,-0.3867188 1.359375,0 1.980469,0.890625 0.626953,0.8847657 0.626953,2.2148438 V 8.1347656 H 9.4453125 q 0.023437,0.8730469 0.515625,1.4882813 0.4980465,0.6093751 1.3652345,0.6093751 0.574219,0 0.972656,-0.2343751 0.398438,-0.234375 0.697266,-0.6269531 z M 11.126953,5.4335937 q -0.644531,0 -1.089844,0.46875 Q 9.5917969,6.3710937 9.4804688,7.25 H 12.650391 V 7.1679687 Q 12.609375,6.5351562 12.28125,5.984375 11.958984,5.4335937 11.126953,5.4335937 Z"
               style="font-size:12px;font-family:Roboto"
               id="path1307063" />
            <path
               d="m 16.177734,2 v 9 H 15.087891 V 2 Z"
               style="font-size:12px;font-family:Roboto"
               id="path1307065" />
            <path
               d="m 19.095703,2 v 9 H 18.005859 V 2 Z"
               style="font-size:12px;font-family:Roboto"
               id="path1307067" />
          </g>
        </g>
        <g
           id="Graphic_139">
          <path
             id="rect1306786"
             style="fill:#ffffff"
             d="M 946.59998,553 H 1074.8 v 56 H 946.59998 Z" />
          <path
             id="rect1306788"
             clip-path="url(#inner_stroke_clip_path_12)"
             style="stroke:#dfdfdf;stroke-width:2;stroke-linecap:round;stroke-linejoin:round"
             d="M 946.59998,553 H 1074.8 v 56 H 946.59998 Z" />
        </g>
        <g
           id="Graphic_138">
          <path
             id="rect1306791"
             style="fill:#ffffff"
             d="M 1073.8,553 H 1202 v 56 h -128.2 z" />
          <path
             id="rect1306793"
             clip-path="url(#inner_stroke_clip_path_13)"
             style="stroke:#dfdfdf;stroke-width:2;stroke-linecap:round;stroke-linejoin:round"
             d="M 1073.8,553 H 1202 v 56 h -128.2 z" />
        </g>
        <g
           id="Graphic_136">
          <path
             id="rect1306796"
             style="fill:#ffffff"
             d="m 565,607.5 h 128.2 v 56 H 565 Z" />
          <path
             id="rect1306798"
             clip-path="url(#inner_stroke_clip_path_14)"
             style="stroke:#dfdfdf;stroke-width:2;stroke-linecap:round;stroke-linejoin:round"
             d="m 565,607.5 h 128.2 v 56 H 565 Z" />
          <g
             aria-label="Row key 2"
             transform="translate(602.1586,628)"
             id="text1306802"
             style="fill:#212121">
            <path
               d="M 5.9765625,11 4.125,7.5429687 H 2.1210938 V 11 H 0.99023438 V 2.46875 H 3.8144531 q 1.4355469,0 2.2089844,0.65625 0.7792969,0.65625 0.7792969,1.9042969 0,0.796875 -0.4335938,1.3945312 Q 5.9414062,7.015625 5.1796875,7.3085937 L 7.1835937,10.929688 V 11 Z M 2.1210938,3.3945313 v 3.2285156 h 1.7285156 q 0.9082031,0 1.3652343,-0.4628907 0.4628907,-0.46875 0.4628907,-1.1308593 0,-0.7382813 -0.4453125,-1.1835938 Q 4.7929687,3.3945313 3.8144531,3.3945313 Z"
               style="font-size:12px;font-family:Roboto"
               id="path1307076" />
            <path
               d="m 7.9335937,7.765625 q 0,-1.3769531 0.7734376,-2.296875 0.7734375,-0.9257813 2.1035157,-0.9257813 1.330078,0 2.103516,0.9082032 0.773437,0.9023437 0.791015,2.2558593 v 0.1933594 q 0,1.3769532 -0.779297,2.2968754 -0.773437,0.919922 -2.103515,0.919922 -1.3359379,0 -2.1152347,-0.919922 Q 7.9335937,9.2773438 7.9335937,7.9003906 Z m 1.0839844,0.1347656 q 0,0.9433594 0.4453125,1.6347657 0.4511719,0.6914067 1.3593754,0.6914067 0.884765,0 1.335937,-0.679688 0.451172,-0.6855469 0.457031,-1.6289063 V 7.765625 q 0,-0.9316406 -0.451171,-1.6289063 -0.451172,-0.703125 -1.353516,-0.703125 -0.8964845,0 -1.3476564,0.703125 Q 9.0175781,6.8339844 9.0175781,7.765625 Z"
               style="font-size:12px;font-family:Roboto"
               id="path1307078" />
            <path
               d="M 22.974609,4.6601562 21.134766,11 H 20.255859 L 18.714844,6.2011719 17.214844,11 H 16.330078 L 14.490234,4.6601562 h 1.083985 l 1.248047,4.7343751 1.476562,-4.7343751 h 0.873047 l 1.5,4.8339844 1.224609,-4.8339844 z"
               style="font-size:12px;font-family:Roboto"
               id="path1307080" />
            <path
               d="M 31.03125,11 28.833984,8.0585938 28.148437,8.7675781 V 11 H 27.058594 V 2 h 1.089843 v 5.4375 l 0.580079,-0.6914063 1.96875,-2.0859375 h 1.324218 L 29.548828,7.3027344 32.308594,11 Z"
               style="font-size:12px;font-family:Roboto"
               id="path1307082" />
            <path
               d="m 38.039062,9.8925781 q -0.310546,0.4687499 -0.878906,0.8496099 -0.568359,0.375 -1.505859,0.375 -1.324219,0 -2.121094,-0.861329 Q 32.742187,9.3945313 32.742187,8.0527344 V 7.8066406 q 0,-1.0371094 0.392579,-1.7636719 0.398437,-0.7324218 1.03125,-1.1132812 0.632812,-0.3867188 1.347656,-0.3867188 1.359375,0 1.980469,0.890625 0.626953,0.8847657 0.626953,2.2148438 v 0.4863281 h -4.289063 q 0.02344,0.8730469 0.515625,1.4882813 0.498047,0.6093751 1.365235,0.6093751 0.574218,0 0.972656,-0.2343751 0.398437,-0.234375 0.697265,-0.6269531 z m -2.52539,-4.4589844 q -0.644531,0 -1.089844,0.46875 Q 33.978516,6.3710937 33.867187,7.25 h 3.169922 V 7.1679687 Q 36.996094,6.5351562 36.667969,5.984375 36.345703,5.4335937 35.513672,5.4335937 Z"
               style="font-size:12px;font-family:Roboto"
               id="path1307084" />
            <path
               d="m 41.472656,11.978516 q -0.5625,1.488281 -1.699219,1.576172 l -0.18164,0.0059 q -0.345703,0 -0.609375,-0.09375 l -0.0059,-0.878906 0.292969,0.02344 q 0.550781,0 0.861328,-0.228515 0.310547,-0.222657 0.509766,-0.808594 L 40.875,10.929688 38.613281,4.6601562 h 1.183594 L 41.384766,9.40625 42.855469,4.6601562 h 1.160156 z"
               style="font-size:12px;font-family:Roboto"
               id="path1307086" />
            <path
               d="M 53.4375,10.109375 V 11 h -5.583984 v -0.779297 l 2.894531,-3.2226561 q 0.714844,-0.8085938 0.960937,-1.2832032 0.251953,-0.4746093 0.251953,-0.9550781 0,-0.6269531 -0.392578,-1.0722656 -0.386718,-0.4453125 -1.095703,-0.4453125 -0.855469,0 -1.277344,0.4863281 -0.421875,0.4863281 -0.421875,1.2480469 h -1.083984 q 0,-1.078125 0.708984,-1.8515625 0.708985,-0.7734375 2.074219,-0.7734375 1.207031,0 1.886719,0.6269531 0.685547,0.6269532 0.685547,1.6523438 0,0.75 -0.462891,1.5117187 -0.46289,0.7558594 -1.136719,1.4882813 l -2.285156,2.4785156 z"
               style="font-size:12px;font-family:Roboto"
               id="path1307088" />
          </g>
        </g>
        <g
           id="Graphic_135">
          <path
             id="rect1306805"
             style="fill:#ffffff"
             d="m 692.20001,607.5 h 128.2 v 56 h -128.2 z" />
          <path
             id="rect1306807"
             clip-path="url(#inner_stroke_clip_path_15)"
             style="stroke:#dfdfdf;stroke-width:2;stroke-linecap:round;stroke-linejoin:round"
             d="m 692.20001,607.5 h 128.2 v 56 h -128.2 z" />
        </g>
        <g
           id="Graphic_134">
          <path
             id="rect1306810"
             style="fill:#ffffff"
             d="m 819.40002,607.5 h 128.2 v 56 h -128.2 z" />
          <path
             id="rect1306812"
             clip-path="url(#inner_stroke_clip_path_16)"
             style="stroke:#dfdfdf;stroke-width:2;stroke-linecap:round;stroke-linejoin:round"
             d="m 819.40002,607.5 h 128.2 v 56 h -128.2 z" />
        </g>
        <g
           id="Graphic_133">
          <path
             id="rect1306815"
             style="fill:#ffffff"
             d="M 946.59998,607.5 H 1074.8 v 56 H 946.59998 Z" />
          <path
             id="rect1306817"
             clip-path="url(#inner_stroke_clip_path_17)"
             style="stroke:#dfdfdf;stroke-width:2;stroke-linecap:round;stroke-linejoin:round"
             d="M 946.59998,607.5 H 1074.8 v 56 H 946.59998 Z" />
        </g>
        <g
           id="Graphic_132">
          <path
             id="rect1306820"
             style="fill:#ffffff"
             d="M 1073.8,607.5 H 1202 v 56 h -128.2 z" />
          <path
             id="rect1306822"
             clip-path="url(#inner_stroke_clip_path_18)"
             style="stroke:#dfdfdf;stroke-width:2;stroke-linecap:round;stroke-linejoin:round"
             d="M 1073.8,607.5 H 1202 v 56 h -128.2 z" />
        </g>
        <g
           id="Graphic_160">
          <path
             id="rect1306825"
             style="fill:#fdf8e0"
             d="m 838.5,619.8125 h 90 v 31.375 h -90 z" />
          <path
             id="rect1306827"
             clip-path="url(#inner_stroke_clip_path_19)"
             style="stroke:#dfdfdf;stroke-width:2;stroke-linecap:round;stroke-linejoin:round"
             d="m 838.5,619.8125 h 90 v 31.375 h -90 z" />
        </g>
        <g
           id="Graphic_177">
          <path
             id="rect1306830"
             style="fill:#fdf8e0"
             d="m 711.29999,565.3125 h 90 v 31.375 h -90 z" />
          <path
             id="rect1306832"
             clip-path="url(#inner_stroke_clip_path_20)"
             style="stroke:#dfdfdf;stroke-width:2;stroke-linecap:round;stroke-linejoin:round"
             d="m 711.29999,565.3125 h 90 v 31.375 h -90 z" />
        </g>
        <g
           id="Graphic_180">
          <path
             id="rect1306835"
             style="fill:#fdf8e0"
             d="M 965.70001,619.8125 H 1055.7 v 31.375 h -89.99999 z" />
          <path
             id="rect1306837"
             clip-path="url(#inner_stroke_clip_path_21)"
             style="stroke:#dfdfdf;stroke-width:2;stroke-linecap:round;stroke-linejoin:round"
             d="M 965.70001,619.8125 H 1055.7 v 31.375 h -89.99999 z" />
        </g>
        <g
           id="Graphic_184">
          <path
             id="rect1306840"
             style="fill:#fdf8e0"
             d="m 838.5,565.3125 h 90 v 31.375 h -90 z" />
          <path
             id="rect1306842"
             clip-path="url(#inner_stroke_clip_path_22)"
             style="stroke:#dfdfdf;stroke-width:2;stroke-linecap:round;stroke-linejoin:round"
             d="m 838.5,565.3125 h 90 v 31.375 h -90 z" />
        </g>
        <g
           id="Graphic_178">
          <path
             id="rect1306845"
             style="fill:#fdf8e0"
             d="m 711.29999,619.8125 h 90 v 31.375 h -90 z" />
          <path
             id="rect1306847"
             clip-path="url(#inner_stroke_clip_path_23)"
             style="stroke:#dfdfdf;stroke-width:2;stroke-linecap:round;stroke-linejoin:round"
             d="m 711.29999,619.8125 h 90 v 31.375 h -90 z" />
        </g>
        <g
           id="Group_326">
          <g
             id="Graphic_327">
            <path
               d="m 1221.3926,617.3162 c -0.1,0 -0.2,0 -0.3,-0.1 l -0.8,-0.6 c -0.2,-0.2 -0.3,-0.5 -0.1,-0.7 0.2,-0.2 0.5,-0.3 0.7,-0.1 l 0.8,0.6 c 0.2,0.2 0.3,0.5 0.1,0.7 -0.1,0.1 -0.3,0.2 -0.4,0.2 z m -3.1,-2.5 c -0.1,0 -0.2,0 -0.3,-0.1 l -0.8,-0.6 c -0.2,-0.2 -0.3,-0.5 -0.1,-0.7 0.2,-0.2 0.5,-0.3 0.7,-0.1 l 0.8,0.6 c 0.2,0.2 0.3,0.5 0.1,0.7 -0.1,0.2 -0.3,0.2 -0.4,0.2 z m -3.2,-2.4 c -0.1,0 -0.2,0 -0.3,-0.1 l -0.8,-0.6 c -0.2,-0.2 -0.3,-0.5 -0.1,-0.7 0.2,-0.2 0.5,-0.3 0.7,-0.1 l 0.8,0.6 c 0.2,0.2 0.3,0.5 0.1,0.7 -0.1,0.1 -0.2,0.2 -0.4,0.2 z m -3.1,-2.5 c -0.1,0 -0.2,0 -0.3,-0.1 l -0.8,-0.6 c -0.2,-0.2 -0.3,-0.5 -0.1,-0.7 0.2,-0.2 0.5,-0.3 0.7,-0.1 l 0.8,0.6 c 0.2,0.2 0.3,0.5 0.1,0.7 -0.1,0.1 -0.3,0.2 -0.4,0.2 z m -3.2,-2.5 c -0.1,0 -0.2,0 -0.3,-0.1 l -0.8,-0.6 c -0.2,-0.2 -0.3,-0.5 -0.1,-0.7 0.2,-0.2 0.5,-0.3 0.7,-0.1 l 0.8,0.6 c 0.2,0.2 0.3,0.5 0.1,0.7 -0.1,0.1 -0.2,0.2 -0.4,0.2 z m -3.1,-2.5 c -0.1,0 -0.2,0 -0.3,-0.1 l -0.8,-0.6 c -0.2,-0.2 -0.3,-0.5 -0.1,-0.7 0.2,-0.2 0.5,-0.3 0.7,-0.1 l 0.8,0.6 c 0.2,0.2 0.3,0.5 0.1,0.7 -0.1,0.2 -0.3,0.2 -0.4,0.2 z m -3.2,-2.4 c -0.1,0 -0.2,0 -0.3,-0.1 l -0.8,-0.7 c -0.2,-0.2 -0.3,-0.5 -0.1,-0.7 0.2,-0.2 0.5,-0.3 0.7,-0.1 l 0.8,0.6 c 0.2,0.2 0.3,0.5 0.1,0.7 -0.1,0.2 -0.2,0.3 -0.4,0.3 z m -3.1,-2.5 c -0.1,0 -0.2,0 -0.3,-0.1 l -0.8,-0.6 c -0.2,-0.2 -0.3,-0.5 -0.1,-0.7 0.2,-0.2 0.5,-0.3 0.7,-0.1 l 0.8,0.6 c 0.2,0.2 0.3,0.5 0.1,0.7 -0.1,0.1 -0.3,0.2 -0.4,0.2 z m -3.1,-2.5 c -0.1,0 -0.2,0 -0.3,-0.1 l -0.8,-0.6 c -0.2,-0.2 -0.3,-0.5 -0.1,-0.7 0.2,-0.2 0.5,-0.3 0.7,-0.1 l 0.8,0.6 c 0.2,0.2 0.3,0.5 0.1,0.7 -0.1,0.1 -0.3,0.2 -0.4,0.2 z m -3.2,-2.5 c -0.1,0 -0.2,0 -0.3,-0.1 l -0.8,-0.6 c -0.2,-0.2 -0.2,-0.5 -0.1,-0.7 0.2,-0.2 0.5,-0.3 0.7,-0.1 l 0.8,0.6 c 0.2,0.2 0.3,0.5 0.1,0.7 -0.1,0.2 -0.2,0.2 -0.4,0.2 z m -3.1,-2.4 c -0.1,0 -0.2,0 -0.3,-0.1 l -0.8,-0.7 c -0.2,-0.1 -0.3,-0.4 -0.1,-0.7 0.2,-0.2 0.5,-0.3 0.7,-0.1 l 0.8,0.6 c 0.2,0.2 0.2,0.6 0.1,0.8 -0.1,0.1 -0.3,0.2 -0.4,0.2 z m -3.2,-2.5 c -0.1,0 -0.2,0 -0.3,-0.1 l -0.8,-0.6 c -0.2,-0.2 -0.2,-0.5 0,-0.7 0.1,-0.3 0.4,-0.3 0.7,-0.1 l 0.8,0.6 c 0.2,0.2 0.2,0.5 0,0.7 -0.1,0.1 -0.2,0.2 -0.4,0.2 z m -3.1,-2.5 c -0.1,0 -0.2,0 -0.3,-0.1 l -0.8,-0.6 c -0.2,-0.2 -0.3,-0.5 -0.1,-0.7 0.2,-0.2 0.5,-0.3 0.7,-0.1 l 0.8,0.6 c 0.2,0.2 0.3,0.5 0.1,0.7 -0.1,0.2 -0.3,0.2 -0.4,0.2 z"
               fill="#616161"
               id="path1306850" />
          </g>
        </g>
        <g
           id="Group_328">
          <g
             id="Graphic_329">
            <path
               d="m 1182.8926,575.801 c 0.1,0 0.2,0 0.3,-0.1 l 0.8,-0.6 c 0.2,-0.2 0.3,-0.5 0.1,-0.7 -0.2,-0.2 -0.5,-0.3 -0.7,-0.1 l -0.8,0.6 c -0.2,0.2 -0.3,0.5 -0.1,0.7 0.1,0.1 0.3,0.2 0.4,0.2 z m 3.1,-2.5 c 0.1,0 0.2,0 0.3,-0.1 l 0.8,-0.6 c 0.2,-0.2 0.3,-0.5 0.1,-0.7 -0.2,-0.2 -0.5,-0.3 -0.7,-0.1 l -0.8,0.6 c -0.2,0.2 -0.3,0.5 -0.1,0.7 0.1,0.2 0.3,0.2 0.4,0.2 z m 3.2,-2.4 c 0.1,0 0.2,0 0.3,-0.1 l 0.8,-0.6 c 0.2,-0.2 0.3,-0.5 0.1,-0.7 -0.2,-0.2 -0.5,-0.3 -0.7,-0.1 l -0.8,0.6 c -0.2,0.2 -0.3,0.5 -0.1,0.7 0.1,0.1 0.2,0.2 0.4,0.2 z m 3.1,-2.5 c 0.1,0 0.2,0 0.3,-0.1 l 0.8,-0.6 c 0.2,-0.2 0.3,-0.5 0.1,-0.7 -0.2,-0.2 -0.5,-0.3 -0.7,-0.1 l -0.8,0.6 c -0.2,0.2 -0.3,0.5 -0.1,0.7 0.1,0.1 0.3,0.2 0.4,0.2 z m 3.2,-2.5 c 0.1,0 0.2,0 0.3,-0.1 l 0.8,-0.6 c 0.2,-0.2 0.3,-0.5 0.1,-0.7 -0.2,-0.2 -0.5,-0.3 -0.7,-0.1 l -0.8,0.6 c -0.2,0.2 -0.3,0.5 -0.1,0.7 0.1,0.1 0.2,0.2 0.4,0.2 z m 3.1,-2.5 c 0.1,0 0.2,0 0.3,-0.1 l 0.8,-0.6 c 0.2,-0.2 0.3,-0.5 0.1,-0.7 -0.2,-0.2 -0.5,-0.3 -0.7,-0.1 l -0.8,0.6 c -0.2,0.2 -0.3,0.5 -0.1,0.7 0.1,0.2 0.3,0.2 0.4,0.2 z m 3.2,-2.4 c 0.1,0 0.2,0 0.3,-0.1 l 0.8,-0.7 c 0.2,-0.2 0.3,-0.5 0.1,-0.7 -0.2,-0.2 -0.5,-0.3 -0.7,-0.1 l -0.8,0.6 c -0.2,0.2 -0.3,0.5 -0.1,0.7 0.1,0.2 0.2,0.3 0.4,0.3 z m 3.1,-2.5 c 0.1,0 0.2,0 0.3,-0.1 l 0.8,-0.6 c 0.2,-0.2 0.3,-0.5 0.1,-0.7 -0.2,-0.2 -0.5,-0.3 -0.7,-0.1 l -0.8,0.6 c -0.2,0.2 -0.3,0.5 -0.1,0.7 0.1,0.1 0.3,0.2 0.4,0.2 z m 3.1,-2.5 c 0.1,0 0.2,0 0.3,-0.1 l 0.8,-0.6 c 0.2,-0.2 0.3,-0.5 0.1,-0.7 -0.2,-0.2 -0.5,-0.3 -0.7,-0.1 l -0.8,0.6 c -0.2,0.2 -0.3,0.5 -0.1,0.7 0.1,0.1 0.3,0.2 0.4,0.2 z m 3.2,-2.5 c 0.1,0 0.2,0 0.3,-0.1 l 0.8,-0.6 c 0.2,-0.2 0.2,-0.5 0.1,-0.7 -0.2,-0.2 -0.5,-0.3 -0.7,-0.1 l -0.8,0.6 c -0.2,0.2 -0.3,0.5 -0.1,0.7 0.1,0.2 0.2,0.2 0.4,0.2 z m 3.1,-2.4 c 0.1,0 0.2,0 0.3,-0.1 l 0.8,-0.7 c 0.2,-0.1 0.3,-0.4 0.1,-0.7 -0.2,-0.2 -0.5,-0.3 -0.7,-0.1 l -0.8,0.6 c -0.2,0.2 -0.2,0.6 -0.1,0.8 0.1,0.1 0.3,0.2 0.4,0.2 z m 3.2,-2.5 c 0.1,0 0.2,0 0.3,-0.1 l 0.8,-0.6 c 0.2,-0.2 0.2,-0.5 0,-0.7 -0.1,-0.3 -0.4,-0.3 -0.7,-0.1 l -0.8,0.6 c -0.2,0.2 -0.2,0.5 0,0.7 0.1,0.1 0.2,0.2 0.4,0.2 z m 3.1,-2.5 c 0.1,0 0.2,0 0.3,-0.1 l 0.8,-0.6 c 0.2,-0.2 0.3,-0.5 0.1,-0.7 -0.2,-0.2 -0.5,-0.3 -0.7,-0.1 l -0.8,0.6 c -0.2,0.2 -0.3,0.5 -0.1,0.7 0.1,0.2 0.3,0.2 0.4,0.2 z"
               fill="#616161"
               id="path1306854" />
          </g>
        </g>
        <g
           id="Group_295">
          <g
             id="Graphic_298">
            <path
               id="rect1306858"
               style="fill:#fdf8e0"
               d="m 1092.9,565.3125 h 90 v 31.375 h -90 z" />
            <path
               id="rect1306860"
               clip-path="url(#inner_stroke_clip_path_24)"
               style="stroke:#dfdfdf;stroke-width:2;stroke-linecap:round;stroke-linejoin:round"
               d="m 1092.9,565.3125 h 90 v 31.375 h -90 z" />
          </g>
          <g
             id="Graphic_297">
            <title
               id="title1306863">Stroke-21</title>
            <path
               id="line1306865"
               style="stroke:#dfdfdf;stroke-width:1.732;stroke-linejoin:round"
               d="m 1095.5826,600.05823 h 84.6347" />
          </g>
          <g
             id="Graphic_296">
            <title
               id="title1306868">Stroke-22</title>
            <path
               id="line1306870"
               style="stroke:#dfdfdf;stroke-width:1.601;stroke-linejoin:round"
               d="m 1098.7845,604.72479 h 78.2309" />
          </g>
        </g>
        <g
           id="Group_274">
          <g
             id="Graphic_221">
            <path
               id="rect1306874"
               style="fill:#fdf8e0"
               d="m 1222,534.86871 h 90 v 31.375 h -90 z" />
            <path
               id="rect1306876"
               clip-path="url(#inner_stroke_clip_path_25)"
               style="stroke:#dfdfdf;stroke-width:2;stroke-linecap:round;stroke-linejoin:round"
               d="m 1222,534.86871 h 90 v 31.375 h -90 z" />
            <g
               aria-label="t1"
               transform="translate(1261.665,543.05624)"
               id="text1306880"
               style="fill:#212121">
              <path
                 d="m 3.5097656,11 q -0.3691406,0.117188 -0.8378906,0.117188 -0.6035156,0 -1.03125,-0.369141 Q 1.2128906,10.378906 1.2128906,9.4238281 V 5.4921875 H 0.05273437 V 4.6601562 H 1.2128906 V 3.1191406 H 2.296875 V 4.6601562 H 3.4804688 V 5.4921875 H 2.296875 v 3.9375 q 0,0.4863281 0.2109375,0.6210935 0.2109375,0.134766 0.4863281,0.134766 0.2050782,0 0.5097657,-0.07031 z"
                 style="font-size:12px;font-family:Roboto"
                 id="path1307115" />
              <path
                 d="M 8.1972656,2.421875 V 11 H 7.1132812 V 3.7753906 L 4.9277344,4.5722656 V 3.59375 L 8.0273438,2.421875 Z"
                 style="font-size:12px;font-family:Roboto"
                 id="path1307117" />
            </g>
          </g>
          <g
             id="Graphic_223">
            <path
               id="rect1306883"
               style="fill:#fdf8e0"
               d="m 1222,565.35626 h 90 v 31.375 h -90 z" />
            <path
               id="rect1306885"
               clip-path="url(#inner_stroke_clip_path_26)"
               style="stroke:#dfdfdf;stroke-width:2;stroke-linecap:round;stroke-linejoin:round"
               d="m 1222,565.35626 h 90 v 31.375 h -90 z" />
            <g
               aria-label="t2"
               transform="translate(1261.665,573.54376)"
               id="text1306889"
               style="fill:#212121">
              <path
                 d="m 3.5097656,11 q -0.3691406,0.117188 -0.8378906,0.117188 -0.6035156,0 -1.03125,-0.369141 Q 1.2128906,10.378906 1.2128906,9.4238281 V 5.4921875 H 0.05273437 V 4.6601562 H 1.2128906 V 3.1191406 H 2.296875 V 4.6601562 H 3.4804688 V 5.4921875 H 2.296875 v 3.9375 q 0,0.4863281 0.2109375,0.6210935 0.2109375,0.134766 0.4863281,0.134766 0.2050782,0 0.5097657,-0.07031 z"
                 style="font-size:12px;font-family:Roboto"
                 id="path1307122" />
              <path
                 d="M 10.224609,10.109375 V 11 H 4.640625 V 10.220703 L 7.5351562,6.9980469 Q 8.25,6.1894531 8.4960938,5.7148437 8.7480469,5.2402344 8.7480469,4.7597656 8.7480469,4.1328125 8.3554688,3.6875 7.96875,3.2421875 7.2597656,3.2421875 q -0.8554687,0 -1.2773437,0.4863281 -0.421875,0.4863281 -0.421875,1.2480469 H 4.4765625 q 0,-1.078125 0.7089844,-1.8515625 0.7089843,-0.7734375 2.0742187,-0.7734375 1.2070313,0 1.8867188,0.6269531 0.6855469,0.6269532 0.6855469,1.6523438 0,0.75 -0.4628907,1.5117187 Q 8.90625,6.8984375 8.2324219,7.6308594 L 5.9472656,10.109375 Z"
                 style="font-size:12px;font-family:Roboto"
                 id="path1307124" />
            </g>
          </g>
          <g
             id="Graphic_224">
            <path
               id="rect1306892"
               style="fill:#fdf8e0"
               d="m 1222,595.75629 h 90 v 31.375 h -90 z" />
            <path
               id="rect1306894"
               clip-path="url(#inner_stroke_clip_path_27)"
               style="stroke:#dfdfdf;stroke-width:2;stroke-linecap:round;stroke-linejoin:round"
               d="m 1222,595.75629 h 90 v 31.375 h -90 z" />
            <g
               aria-label="t3"
               transform="translate(1261.665,603.94376)"
               id="text1306898"
               style="fill:#212121">
              <path
                 d="m 3.5097656,11 q -0.3691406,0.117188 -0.8378906,0.117188 -0.6035156,0 -1.03125,-0.369141 Q 1.2128906,10.378906 1.2128906,9.4238281 V 5.4921875 H 0.05273437 V 4.6601562 H 1.2128906 V 3.1191406 H 2.296875 V 4.6601562 H 3.4804688 V 5.4921875 H 2.296875 v 3.9375 q 0,0.4863281 0.2109375,0.6210935 0.2109375,0.134766 0.4863281,0.134766 0.2050782,0 0.5097657,-0.07031 z"
                 style="font-size:12px;font-family:Roboto"
                 id="path1307129" />
              <path
                 d="m 6.2167969,7.0917969 v -0.890625 h 0.796875 Q 7.8515625,6.1953125 8.2617188,5.7792969 8.671875,5.3632812 8.671875,4.7421875 q 0,-1.5 -1.4882813,-1.5 -0.6914062,0 -1.1191406,0.3984375 Q 5.6367187,4.0332031 5.6367187,4.7011719 H 4.5527344 q 0,-0.9785156 0.7207031,-1.6640625 Q 6,2.3515625 7.1835937,2.3515625 q 1.1542969,0 1.8632813,0.6152344 0.7148438,0.609375 0.7148438,1.7988281 0,0.4746094 -0.3222657,1.0136719 -0.3164062,0.5390625 -1.0195312,0.8378906 0.8496094,0.2753906 1.1601562,0.8496094 0.3105469,0.5742187 0.3105469,1.1542969 0,1.1953125 -0.7734375,1.8457032 -0.7734375,0.650391 -1.9277344,0.650391 -1.1132812,0 -1.9101562,-0.615235 -0.796875,-0.6210936 -0.796875,-1.7578124 h 1.0839843 q 0,0.6738282 0.4335938,1.078125 0.4394531,0.4042974 1.1894531,0.4042974 0.7441406,0 1.1777344,-0.3925786 0.4335938,-0.3925781 0.4335938,-1.1894531 0,-0.7968751 -0.4921875,-1.1718751 Q 7.8164062,7.0917969 6.9902344,7.0917969 Z"
                 style="font-size:12px;font-family:Roboto"
                 id="path1307131" />
            </g>
          </g>
        </g>
      </g>
    </g>
  </g>
</svg>
