<?xml version="1.0" standalone="no"?><!DOCTYPE svg PUBLIC "-//W3C//DTD SVG 1.1//EN" "http://www.w3.org/Graphics/SVG/1.1/DTD/svg11.dtd"><svg t="1697950324815" class="icon" viewBox="0 0 1024 1024" version="1.1" xmlns="http://www.w3.org/2000/svg" p-id="4878" xmlns:xlink="http://www.w3.org/1999/xlink" width="200" height="200"><path d="M263.008 50.96c3.888 0 7.776-0.384 11.68-0.416 55.456-0.464 110.912-0.896 166.368-1.328 31.84-0.304 63.664-0.72 95.52-1.072 3.792-0.352 7.616-0.048 11.328 0.88-3.248 16-8 31.248-11.856 46.768S528 126.208 524 141.408s-8.272 31.04-12.384 46.56c-4.112 15.52-8.064 30.4-12.048 45.632a64986.72 64986.72 0 0 1-24.48 93.216l-12.096 45.6c-4.016 15.2-8.288 31.04-12.4 46.56-4.128 15.52-8.16 30.384-12.032 45.648-3.84 15.248-8.512 30.88-12.08 47.104 1.984 0.608 4.032 0.992 6.08 1.12 11.456-0.8 22.912-1.68 34.32-2.784 16.192-1.584 32.624-3.232 48.912-5.184 33.536-3.952 67.056-8 100.048-15.52a95.92 95.92 0 0 0 56.48-36.688 180.448 180.448 0 0 0 24.736-46.816 292.304 292.304 0 0 0 17.264-70.496c2.72-21.184 2.304-42.656-1.232-63.728a100.128 100.128 0 0 0-16.208-40.752c-10.848-15.216-21.696-30.48-33.072-45.344-32.784-42.704-67.12-84.24-101.616-125.44a469.12 469.12 0 0 1-7.776-9.488c0.832-2.88 2.688-2.368 4.208-2.496 1.52-0.128 2.624 0 3.952 0h297.328a197.76 197.76 0 0 1 44.992 3.888c39.52 9.2 71.04 29.968 92 65.248a114.912 114.912 0 0 1 16.704 60.864 346.4 346.4 0 0 1-7.296 64.4c-12.096 60.672-31.76 119.024-54.72 176.304a999.12 999.12 0 0 1-31.008 69.088c-26.56 54.112-68.416 92.16-122.64 117.344-2.992 1.392-6.032 2.624-9.04 3.92a107.552 107.552 0 0 1-41.888 9.104c-42.112 0.672-83.968 2.4-125.92 3.728-41.952 1.328-83.296 2.656-124.96 3.92-30.16 0.896-60.352 1.68-90.512 2.592-6.208 0.192-12.4 0.768-18.176 1.12-2.4 2.544-3.92 5.776-4.32 9.248-11.12 41.024-22.24 82.16-33.344 123.392-17.28 63.92-34.512 127.84-51.68 191.776-0.768 2.816-1.776 5.568-2.784 8.8-2.24 0.48-4.368 0.992-6.48 1.28a39.616 39.616 0 0 1-4.928 0H28c-2.624 0-5.248 0-7.872-0.224a18.496 18.496 0 0 1-4.112-1.6C97.632 659.84 179.216 357.568 260.752 55.568c0.592-1.6 1.36-3.152 2.256-4.608z" fill="#0959A7" p-id="4879"></path></svg>